<?xml version="1.0" encoding="UTF-8"?>
<svg version="1.1" xmlns="http://www.w3.org/2000/svg" width="418" height="450">
<path d="M0 0 C1.23527435 -0.00428513 2.47054871 -0.00857025 3.74325562 -0.01298523 C6.34689728 -0.01870321 8.95055492 -0.01924758 11.55419922 -0.01489258 C15.49084481 -0.01174481 19.42672896 -0.03518313 23.36328125 -0.06054688 C39.7490906 -0.10295728 54.67185849 0.63745509 70.2109375 6.23828125 C70.96745605 6.50205566 71.72397461 6.76583008 72.50341797 7.03759766 C73.98364988 7.55550461 75.46228058 8.07801981 76.93896484 8.60595703 C78.59094524 9.19174524 80.25343471 9.74777257 81.91796875 10.296875 C88.97854449 12.67862844 95.4920512 15.9950448 102.1015625 19.3984375 C105.63641668 21.20499918 109.23341177 22.77685216 112.8984375 24.30078125 C112.8984375 24.96078125 112.8984375 25.62078125 112.8984375 26.30078125 C113.6615625 26.40390625 114.4246875 26.50703125 115.2109375 26.61328125 C118.22217354 27.38359745 118.7884313 28.14909592 120.8984375 30.30078125 C122.20994054 31.16806552 123.54477673 32.00089079 124.8984375 32.80078125 C127.61842511 34.40804665 129.69438622 36.04747743 131.8984375 38.30078125 C133.0740625 38.98140625 133.0740625 38.98140625 134.2734375 39.67578125 C137.30108893 41.55004166 139.44540693 43.72509915 141.8984375 46.30078125 C142.8265625 47.18765625 143.7546875 48.07453125 144.7109375 48.98828125 C146.8984375 51.30078125 146.8984375 51.30078125 146.8984375 53.30078125 C147.4965625 53.58953125 148.0946875 53.87828125 148.7109375 54.17578125 C150.8984375 55.30078125 150.8984375 55.30078125 153.8984375 57.30078125 C153.8984375 58.29078125 153.8984375 59.28078125 153.8984375 60.30078125 C154.5584375 60.30078125 155.2184375 60.30078125 155.8984375 60.30078125 C155.8984375 61.29078125 155.8984375 62.28078125 155.8984375 63.30078125 C156.6615625 63.50703125 157.4246875 63.71328125 158.2109375 63.92578125 C161.74902482 65.73596546 162.29949709 67.73950488 163.8984375 71.30078125 C165.27329282 72.84244767 165.27329282 72.84244767 166.8984375 74.30078125 C169.97482305 77.83862463 172.5988777 81.20156595 174.8984375 85.30078125 C175.4965625 86.31140625 176.0946875 87.32203125 176.7109375 88.36328125 C178.58815706 91.67388163 180.34918068 95.03952095 182.0859375 98.42578125 C182.59511719 99.41835937 183.10429687 100.4109375 183.62890625 101.43359375 C184.8984375 104.30078125 184.8984375 104.30078125 185.44921875 107.10546875 C185.67158203 108.19214844 185.67158203 108.19214844 185.8984375 109.30078125 C186.5584375 109.63078125 187.2184375 109.96078125 187.8984375 110.30078125 C188.64453125 112.05078125 188.64453125 112.05078125 189.3359375 114.30078125 C189.56152344 115.02265625 189.78710938 115.74453125 190.01953125 116.48828125 C190.30957031 117.41640625 190.59960938 118.34453125 190.8984375 119.30078125 C191.3647897 120.68266193 191.83236554 122.06412992 192.30078125 123.4453125 C194.01726004 128.5878383 195.55370692 133.77036841 197.0234375 138.98828125 C197.28769531 139.87966797 197.55195313 140.77105469 197.82421875 141.68945312 C202.0882097 156.9164462 201.02353563 173.0097124 200.9609375 188.67578125 C200.95591126 190.87630106 200.95135035 193.07682199 200.94726562 195.27734375 C200.93635186 200.61851428 200.9197033 205.95964242 200.8984375 211.30078125 C200.2384375 211.30078125 199.5784375 211.30078125 198.8984375 211.30078125 C199.2284375 212.29078125 199.5584375 213.28078125 199.8984375 214.30078125 C199.5684375 215.29078125 199.2384375 216.28078125 198.8984375 217.30078125 C198.53826244 218.65234466 198.18907016 220.00685718 197.84765625 221.36328125 C195.59669218 230.19274177 193.23842114 238.81059382 189.8984375 247.30078125 C189.51945312 248.34492188 189.14046875 249.3890625 188.75 250.46484375 C186.04861831 257.81191369 182.76261031 264.505167 178.8984375 271.30078125 C177.86659566 273.2874618 176.87781188 275.2876228 175.8984375 277.30078125 C175.2384375 277.30078125 174.5784375 277.30078125 173.8984375 277.30078125 C173.7540625 278.08453125 173.6096875 278.86828125 173.4609375 279.67578125 C172.8984375 282.30078125 172.8984375 282.30078125 171.8984375 284.30078125 C171.2384375 284.30078125 170.5784375 284.30078125 169.8984375 284.30078125 C169.65867187 285.18507813 169.41890625 286.069375 169.171875 286.98046875 C167.77946138 290.61099506 166.17853513 292.61190701 163.5234375 295.42578125 C162.75257813 296.25335938 161.98171875 297.0809375 161.1875 297.93359375 C159.72310684 299.4479662 158.24018659 300.94477402 156.734375 302.41796875 C154.72203025 304.36633907 154.72203025 304.36633907 152.8984375 307.30078125 C151.25413921 308.98952004 149.58459532 310.6538364 147.8984375 312.30078125 C146.691875 313.53828125 146.691875 313.53828125 145.4609375 314.80078125 C131.6234375 328.30078125 131.6234375 328.30078125 126.8984375 328.30078125 C126.6921875 328.89890625 126.4859375 329.49703125 126.2734375 330.11328125 C124.37147923 333.13912395 122.14543346 333.94786627 118.8984375 335.30078125 C118.2384375 335.30078125 117.5784375 335.30078125 116.8984375 335.30078125 C116.5684375 336.29078125 116.2384375 337.28078125 115.8984375 338.30078125 C114.9084375 337.97078125 113.9184375 337.64078125 112.8984375 337.30078125 C112.8984375 337.96078125 112.8984375 338.62078125 112.8984375 339.30078125 C111.44306182 340.13926929 109.98403377 340.97142059 108.5234375 341.80078125 C107.71132813 342.26484375 106.89921875 342.72890625 106.0625 343.20703125 C103.8984375 344.30078125 103.8984375 344.30078125 101.8984375 344.30078125 C101.5684375 344.96078125 101.2384375 345.62078125 100.8984375 346.30078125 C98.8984375 346.96744792 96.8984375 347.63411458 94.8984375 348.30078125 C94.5684375 348.96078125 94.2384375 349.62078125 93.8984375 350.30078125 C92.58069554 350.69122331 91.24176478 351.01033211 89.8984375 351.30078125 C89.0528125 351.58953125 88.2071875 351.87828125 87.3359375 352.17578125 C84.40905804 353.13366907 81.49904161 353.95219496 78.5234375 354.73828125 C75.22245801 355.61913562 72.06140785 356.5746637 68.8984375 357.86328125 C65.016217 359.37216047 61.14706649 360.14430047 57.03979492 360.79907227 C55.04478796 361.1176966 53.05238449 361.45346288 51.06420898 361.81225586 C39.771855 363.68706877 28.50900199 363.77936124 17.0859375 363.80078125 C16.0470639 363.80478943 15.00819031 363.80879761 13.93783569 363.81292725 C-2.16823881 363.82815288 -19.46296726 363.73717109 -34.1965332 356.23388672 C-36.16015957 355.15796484 -36.16015957 355.15796484 -38.7890625 354.86328125 C-43.06800958 354.13666759 -47.01784811 352.74369367 -51.1015625 351.30078125 C-51.1015625 350.64078125 -51.1015625 349.98078125 -51.1015625 349.30078125 C-53.11979167 348.84505208 -55.13802083 348.38932292 -57.15625 347.93359375 C-59.1015625 347.30078125 -59.1015625 347.30078125 -61.1015625 345.30078125 C-62.53858024 344.51070775 -64.00130813 343.76692415 -65.4765625 343.05078125 C-66.36214844 342.61507813 -67.24773437 342.179375 -68.16015625 341.73046875 C-70.2133124 340.73252034 -72.26813579 339.73799801 -74.32421875 338.74609375 C-75.91556641 337.96878906 -75.91556641 337.96878906 -77.5390625 337.17578125 C-78.52777344 336.69882812 -79.51648438 336.221875 -80.53515625 335.73046875 C-82.86175323 334.43437363 -84.44966022 333.37265869 -86.1015625 331.30078125 C-86.1015625 330.64078125 -86.1015625 329.98078125 -86.1015625 329.30078125 C-86.64941406 329.04941406 -87.19726562 328.79804688 -87.76171875 328.5390625 C-94.59900763 324.92066421 -100.79940237 319.89750583 -106.1015625 314.30078125 C-107.23992261 313.33358268 -108.38641254 312.37590486 -109.5390625 311.42578125 C-118.94950183 303.43617412 -118.94950183 303.43617412 -120.1015625 297.30078125 C-121.0915625 297.30078125 -122.0815625 297.30078125 -123.1015625 297.30078125 C-123.1015625 295.98078125 -123.1015625 294.66078125 -123.1015625 293.30078125 C-124.0915625 292.97078125 -125.0815625 292.64078125 -126.1015625 292.30078125 C-128.42421862 289.72005222 -129.1015625 288.84902057 -129.1015625 285.30078125 C-129.7615625 284.97078125 -130.4215625 284.64078125 -131.1015625 284.30078125 C-134.88960918 281.7754168 -135.42361481 279.45917336 -137.1015625 275.30078125 C-138.0915625 273.81578125 -138.0915625 273.81578125 -139.1015625 272.30078125 C-139.1015625 271.31078125 -139.1015625 270.32078125 -139.1015625 269.30078125 C-139.7615625 268.97078125 -140.4215625 268.64078125 -141.1015625 268.30078125 C-141.82232076 266.68765561 -142.53237036 265.06899787 -143.19140625 263.4296875 C-144.1685441 261.14410756 -145.30829522 258.9944869 -146.4765625 256.80078125 C-149.79317332 250.23727815 -151.90225833 243.29399352 -154.1015625 236.30078125 C-154.47539062 235.18058594 -154.84921875 234.06039062 -155.234375 232.90625 C-161.07843536 215.00610958 -161.28839462 196.56425479 -161.28686523 177.91796875 C-161.28905304 174.93865691 -161.3072755 171.95971555 -161.32617188 168.98046875 C-161.37804331 151.45193377 -159.51348629 135.69972411 -153.65234375 119.078125 C-153.00289483 117.29250701 -153.00289483 117.29250701 -153.1015625 115.30078125 C-152.4415625 115.30078125 -151.7815625 115.30078125 -151.1015625 115.30078125 C-150.946875 114.31078125 -150.946875 114.31078125 -150.7890625 113.30078125 C-148.71068687 104.23150576 -144.43826739 95.69624782 -140.0390625 87.55078125 C-139.68779297 86.89207031 -139.33652344 86.23335938 -138.97460938 85.5546875 C-137.45049279 82.71389553 -135.89122662 79.98527744 -134.1015625 77.30078125 C-133.4415625 77.30078125 -132.7815625 77.30078125 -132.1015625 77.30078125 C-131.8746875 76.59953125 -131.6478125 75.89828125 -131.4140625 75.17578125 C-129.81685773 71.67714224 -127.59368121 69.21838364 -125.1015625 66.30078125 C-124.5446875 65.35203125 -123.9878125 64.40328125 -123.4140625 63.42578125 C-122.9809375 62.72453125 -122.5478125 62.02328125 -122.1015625 61.30078125 C-121.4415625 61.30078125 -120.7815625 61.30078125 -120.1015625 61.30078125 C-119.8746875 60.76453125 -119.6478125 60.22828125 -119.4140625 59.67578125 C-117.64586161 56.47617964 -115.56486047 54.01040902 -113.1015625 51.30078125 C-112.4415625 51.30078125 -111.7815625 51.30078125 -111.1015625 51.30078125 C-110.8746875 50.72328125 -110.6478125 50.14578125 -110.4140625 49.55078125 C-108.75308028 46.70338316 -106.78631689 45.18010932 -104.1015625 43.30078125 C-103.4415625 43.30078125 -102.7815625 43.30078125 -102.1015625 43.30078125 C-102.1015625 42.64078125 -102.1015625 41.98078125 -102.1015625 41.30078125 C-101.4415625 41.30078125 -100.7815625 41.30078125 -100.1015625 41.30078125 C-100.1015625 40.64078125 -100.1015625 39.98078125 -100.1015625 39.30078125 C-99.1528125 39.05328125 -98.2040625 38.80578125 -97.2265625 38.55078125 C-94.02145953 37.6811181 -94.02145953 37.6811181 -93.2265625 35.4375 C-91.69312286 32.52502958 -89.7784374 31.55299132 -86.9765625 29.86328125 C-86.06648438 29.30769531 -85.15640625 28.75210938 -84.21875 28.1796875 C-83.19007812 27.55964844 -82.16140625 26.93960938 -81.1015625 26.30078125 C-79.82109796 25.49039906 -78.54118388 24.67914668 -77.26171875 23.8671875 C-73.1512732 21.29474666 -68.94466151 18.95144342 -64.6640625 16.67578125 C-63.96474609 16.29421875 -63.26542969 15.91265625 -62.54492188 15.51953125 C-57.53269663 12.85002653 -52.53282044 10.93627821 -47.1015625 9.30078125 C-46.17819092 9.01879883 -45.25481934 8.73681641 -44.3034668 8.44628906 C-41.26142982 7.52791946 -38.21379316 6.63074491 -35.1640625 5.73828125 C-34.14376953 5.43470703 -33.12347656 5.13113281 -32.07226562 4.81835938 C-31.06228516 4.52251953 -30.05230469 4.22667969 -29.01171875 3.921875 C-27.66799194 3.52633423 -27.66799194 3.52633423 -26.29711914 3.12280273 C-17.41240232 0.83730793 -9.18589491 -0.00717481 0 0 Z " fill="#DA9200" transform="translate(189.1015625,42.69921875)"/>
<path d="M0 0 C1.23527435 -0.00428513 2.47054871 -0.00857025 3.74325562 -0.01298523 C6.34689728 -0.01870321 8.95055492 -0.01924758 11.55419922 -0.01489258 C15.49084481 -0.01174481 19.42672896 -0.03518313 23.36328125 -0.06054688 C39.7490906 -0.10295728 54.67185849 0.63745509 70.2109375 6.23828125 C70.96745605 6.50205566 71.72397461 6.76583008 72.50341797 7.03759766 C73.98364988 7.55550461 75.46228058 8.07801981 76.93896484 8.60595703 C78.59094524 9.19174524 80.25343471 9.74777257 81.91796875 10.296875 C88.97854449 12.67862844 95.4920512 15.9950448 102.1015625 19.3984375 C105.63641668 21.20499918 109.23341177 22.77685216 112.8984375 24.30078125 C112.8984375 24.96078125 112.8984375 25.62078125 112.8984375 26.30078125 C113.6615625 26.40390625 114.4246875 26.50703125 115.2109375 26.61328125 C118.22217354 27.38359745 118.7884313 28.14909592 120.8984375 30.30078125 C122.20994054 31.16806552 123.54477673 32.00089079 124.8984375 32.80078125 C127.61842511 34.40804665 129.69438622 36.04747743 131.8984375 38.30078125 C133.0740625 38.98140625 133.0740625 38.98140625 134.2734375 39.67578125 C137.30108893 41.55004166 139.44540693 43.72509915 141.8984375 46.30078125 C142.8265625 47.18765625 143.7546875 48.07453125 144.7109375 48.98828125 C146.8984375 51.30078125 146.8984375 51.30078125 146.8984375 53.30078125 C147.4965625 53.58953125 148.0946875 53.87828125 148.7109375 54.17578125 C150.8984375 55.30078125 150.8984375 55.30078125 153.8984375 57.30078125 C153.8984375 58.29078125 153.8984375 59.28078125 153.8984375 60.30078125 C154.5584375 60.30078125 155.2184375 60.30078125 155.8984375 60.30078125 C155.8984375 61.29078125 155.8984375 62.28078125 155.8984375 63.30078125 C156.6615625 63.50703125 157.4246875 63.71328125 158.2109375 63.92578125 C161.74902482 65.73596546 162.29949709 67.73950488 163.8984375 71.30078125 C165.27329282 72.84244767 165.27329282 72.84244767 166.8984375 74.30078125 C169.97482305 77.83862463 172.5988777 81.20156595 174.8984375 85.30078125 C175.4965625 86.31140625 176.0946875 87.32203125 176.7109375 88.36328125 C178.58815706 91.67388163 180.34918068 95.03952095 182.0859375 98.42578125 C182.59511719 99.41835937 183.10429687 100.4109375 183.62890625 101.43359375 C184.8984375 104.30078125 184.8984375 104.30078125 185.44921875 107.10546875 C185.67158203 108.19214844 185.67158203 108.19214844 185.8984375 109.30078125 C186.5584375 109.63078125 187.2184375 109.96078125 187.8984375 110.30078125 C188.64453125 112.05078125 188.64453125 112.05078125 189.3359375 114.30078125 C189.56152344 115.02265625 189.78710938 115.74453125 190.01953125 116.48828125 C190.30957031 117.41640625 190.59960938 118.34453125 190.8984375 119.30078125 C191.3647897 120.68266193 191.83236554 122.06412992 192.30078125 123.4453125 C194.01726004 128.5878383 195.55370692 133.77036841 197.0234375 138.98828125 C197.28769531 139.87966797 197.55195313 140.77105469 197.82421875 141.68945312 C202.0882097 156.9164462 201.02353563 173.0097124 200.9609375 188.67578125 C200.95591126 190.87630106 200.95135035 193.07682199 200.94726562 195.27734375 C200.93635186 200.61851428 200.9197033 205.95964242 200.8984375 211.30078125 C200.2384375 211.30078125 199.5784375 211.30078125 198.8984375 211.30078125 C199.2284375 212.29078125 199.5584375 213.28078125 199.8984375 214.30078125 C199.5684375 215.29078125 199.2384375 216.28078125 198.8984375 217.30078125 C198.53826244 218.65234466 198.18907016 220.00685718 197.84765625 221.36328125 C195.59669218 230.19274177 193.23842114 238.81059382 189.8984375 247.30078125 C189.51945312 248.34492188 189.14046875 249.3890625 188.75 250.46484375 C186.04861831 257.81191369 182.76261031 264.505167 178.8984375 271.30078125 C177.86659566 273.2874618 176.87781188 275.2876228 175.8984375 277.30078125 C175.2384375 277.30078125 174.5784375 277.30078125 173.8984375 277.30078125 C173.7540625 278.08453125 173.6096875 278.86828125 173.4609375 279.67578125 C172.8984375 282.30078125 172.8984375 282.30078125 171.8984375 284.30078125 C171.2384375 284.30078125 170.5784375 284.30078125 169.8984375 284.30078125 C169.65867187 285.18507813 169.41890625 286.069375 169.171875 286.98046875 C167.77946138 290.61099506 166.17853513 292.61190701 163.5234375 295.42578125 C162.75257813 296.25335938 161.98171875 297.0809375 161.1875 297.93359375 C159.72310684 299.4479662 158.24018659 300.94477402 156.734375 302.41796875 C154.72203025 304.36633907 154.72203025 304.36633907 152.8984375 307.30078125 C151.25413921 308.98952004 149.58459532 310.6538364 147.8984375 312.30078125 C146.691875 313.53828125 146.691875 313.53828125 145.4609375 314.80078125 C131.6234375 328.30078125 131.6234375 328.30078125 126.8984375 328.30078125 C126.6921875 328.89890625 126.4859375 329.49703125 126.2734375 330.11328125 C124.37147923 333.13912395 122.14543346 333.94786627 118.8984375 335.30078125 C118.2384375 335.30078125 117.5784375 335.30078125 116.8984375 335.30078125 C116.5684375 336.29078125 116.2384375 337.28078125 115.8984375 338.30078125 C114.9084375 337.97078125 113.9184375 337.64078125 112.8984375 337.30078125 C112.8984375 337.96078125 112.8984375 338.62078125 112.8984375 339.30078125 C111.44306182 340.13926929 109.98403377 340.97142059 108.5234375 341.80078125 C107.71132813 342.26484375 106.89921875 342.72890625 106.0625 343.20703125 C103.8984375 344.30078125 103.8984375 344.30078125 101.8984375 344.30078125 C101.5684375 344.96078125 101.2384375 345.62078125 100.8984375 346.30078125 C98.8984375 346.96744792 96.8984375 347.63411458 94.8984375 348.30078125 C94.5684375 348.96078125 94.2384375 349.62078125 93.8984375 350.30078125 C92.58069554 350.69122331 91.24176478 351.01033211 89.8984375 351.30078125 C89.0528125 351.58953125 88.2071875 351.87828125 87.3359375 352.17578125 C84.40905804 353.13366907 81.49904161 353.95219496 78.5234375 354.73828125 C75.22245801 355.61913562 72.06140785 356.5746637 68.8984375 357.86328125 C65.016217 359.37216047 61.14706649 360.14430047 57.03979492 360.79907227 C55.04478796 361.1176966 53.05238449 361.45346288 51.06420898 361.81225586 C39.771855 363.68706877 28.50900199 363.77936124 17.0859375 363.80078125 C16.0470639 363.80478943 15.00819031 363.80879761 13.93783569 363.81292725 C-2.16823881 363.82815288 -19.46296726 363.73717109 -34.1965332 356.23388672 C-36.16015957 355.15796484 -36.16015957 355.15796484 -38.7890625 354.86328125 C-43.06800958 354.13666759 -47.01784811 352.74369367 -51.1015625 351.30078125 C-51.1015625 350.64078125 -51.1015625 349.98078125 -51.1015625 349.30078125 C-53.11979167 348.84505208 -55.13802083 348.38932292 -57.15625 347.93359375 C-59.1015625 347.30078125 -59.1015625 347.30078125 -61.1015625 345.30078125 C-62.53858024 344.51070775 -64.00130813 343.76692415 -65.4765625 343.05078125 C-66.36214844 342.61507813 -67.24773437 342.179375 -68.16015625 341.73046875 C-70.2133124 340.73252034 -72.26813579 339.73799801 -74.32421875 338.74609375 C-75.91556641 337.96878906 -75.91556641 337.96878906 -77.5390625 337.17578125 C-78.52777344 336.69882812 -79.51648438 336.221875 -80.53515625 335.73046875 C-82.86175323 334.43437363 -84.44966022 333.37265869 -86.1015625 331.30078125 C-86.1015625 330.64078125 -86.1015625 329.98078125 -86.1015625 329.30078125 C-86.64941406 329.04941406 -87.19726562 328.79804688 -87.76171875 328.5390625 C-94.59900763 324.92066421 -100.79940237 319.89750583 -106.1015625 314.30078125 C-107.23992261 313.33358268 -108.38641254 312.37590486 -109.5390625 311.42578125 C-118.94950183 303.43617412 -118.94950183 303.43617412 -120.1015625 297.30078125 C-121.0915625 297.30078125 -122.0815625 297.30078125 -123.1015625 297.30078125 C-123.1015625 295.98078125 -123.1015625 294.66078125 -123.1015625 293.30078125 C-124.0915625 292.97078125 -125.0815625 292.64078125 -126.1015625 292.30078125 C-128.42421862 289.72005222 -129.1015625 288.84902057 -129.1015625 285.30078125 C-129.7615625 284.97078125 -130.4215625 284.64078125 -131.1015625 284.30078125 C-134.88960918 281.7754168 -135.42361481 279.45917336 -137.1015625 275.30078125 C-138.0915625 273.81578125 -138.0915625 273.81578125 -139.1015625 272.30078125 C-139.1015625 271.31078125 -139.1015625 270.32078125 -139.1015625 269.30078125 C-139.7615625 268.97078125 -140.4215625 268.64078125 -141.1015625 268.30078125 C-141.82232076 266.68765561 -142.53237036 265.06899787 -143.19140625 263.4296875 C-144.1685441 261.14410756 -145.30829522 258.9944869 -146.4765625 256.80078125 C-149.79317332 250.23727815 -151.90225833 243.29399352 -154.1015625 236.30078125 C-154.47539062 235.18058594 -154.84921875 234.06039062 -155.234375 232.90625 C-161.07843536 215.00610958 -161.28839462 196.56425479 -161.28686523 177.91796875 C-161.28905304 174.93865691 -161.3072755 171.95971555 -161.32617188 168.98046875 C-161.37804331 151.45193377 -159.51348629 135.69972411 -153.65234375 119.078125 C-153.00289483 117.29250701 -153.00289483 117.29250701 -153.1015625 115.30078125 C-152.4415625 115.30078125 -151.7815625 115.30078125 -151.1015625 115.30078125 C-150.946875 114.31078125 -150.946875 114.31078125 -150.7890625 113.30078125 C-148.71068687 104.23150576 -144.43826739 95.69624782 -140.0390625 87.55078125 C-139.68779297 86.89207031 -139.33652344 86.23335938 -138.97460938 85.5546875 C-137.45049279 82.71389553 -135.89122662 79.98527744 -134.1015625 77.30078125 C-133.4415625 77.30078125 -132.7815625 77.30078125 -132.1015625 77.30078125 C-131.8746875 76.59953125 -131.6478125 75.89828125 -131.4140625 75.17578125 C-129.81685773 71.67714224 -127.59368121 69.21838364 -125.1015625 66.30078125 C-124.5446875 65.35203125 -123.9878125 64.40328125 -123.4140625 63.42578125 C-122.9809375 62.72453125 -122.5478125 62.02328125 -122.1015625 61.30078125 C-121.4415625 61.30078125 -120.7815625 61.30078125 -120.1015625 61.30078125 C-119.8746875 60.76453125 -119.6478125 60.22828125 -119.4140625 59.67578125 C-117.64586161 56.47617964 -115.56486047 54.01040902 -113.1015625 51.30078125 C-112.4415625 51.30078125 -111.7815625 51.30078125 -111.1015625 51.30078125 C-110.8746875 50.72328125 -110.6478125 50.14578125 -110.4140625 49.55078125 C-108.75308028 46.70338316 -106.78631689 45.18010932 -104.1015625 43.30078125 C-103.4415625 43.30078125 -102.7815625 43.30078125 -102.1015625 43.30078125 C-102.1015625 42.64078125 -102.1015625 41.98078125 -102.1015625 41.30078125 C-101.4415625 41.30078125 -100.7815625 41.30078125 -100.1015625 41.30078125 C-100.1015625 40.64078125 -100.1015625 39.98078125 -100.1015625 39.30078125 C-99.1528125 39.05328125 -98.2040625 38.80578125 -97.2265625 38.55078125 C-94.02145953 37.6811181 -94.02145953 37.6811181 -93.2265625 35.4375 C-91.69312286 32.52502958 -89.7784374 31.55299132 -86.9765625 29.86328125 C-86.06648438 29.30769531 -85.15640625 28.75210938 -84.21875 28.1796875 C-83.19007812 27.55964844 -82.16140625 26.93960938 -81.1015625 26.30078125 C-79.82109796 25.49039906 -78.54118388 24.67914668 -77.26171875 23.8671875 C-73.1512732 21.29474666 -68.94466151 18.95144342 -64.6640625 16.67578125 C-63.96474609 16.29421875 -63.26542969 15.91265625 -62.54492188 15.51953125 C-57.53269663 12.85002653 -52.53282044 10.93627821 -47.1015625 9.30078125 C-46.17819092 9.01879883 -45.25481934 8.73681641 -44.3034668 8.44628906 C-41.26142982 7.52791946 -38.21379316 6.63074491 -35.1640625 5.73828125 C-34.14376953 5.43470703 -33.12347656 5.13113281 -32.07226562 4.81835938 C-31.06228516 4.52251953 -30.05230469 4.22667969 -29.01171875 3.921875 C-27.66799194 3.52633423 -27.66799194 3.52633423 -26.29711914 3.12280273 C-17.41240232 0.83730793 -9.18589491 -0.00717481 0 0 Z M-1.35400391 31.37695312 C-35.85751732 32.896317 -67.82538593 52.30218729 -90.72265625 77.14453125 C-116.40425885 107.41054471 -125.56366167 143.35570603 -122.859375 182.4296875 C-121.02733584 199.46017394 -115.42249955 215.43249333 -107.1015625 230.30078125 C-106.5240625 231.3784375 -105.9465625 232.45609375 -105.3515625 233.56640625 C-101.33425894 240.81987101 -96.53481272 247.05577209 -91.1015625 253.30078125 C-90.07095703 254.53248047 -90.07095703 254.53248047 -89.01953125 255.7890625 C-69.63447688 278.3390237 -43.89749027 292.00926122 -15.1015625 298.30078125 C-14.30451904 298.4824585 -13.50747559 298.66413574 -12.6862793 298.85131836 C-4.77410345 300.49385528 3.02802318 300.65979982 11.0859375 300.61328125 C11.77396454 300.61079376 12.46199158 300.60830627 13.17086792 300.60574341 C23.38997411 300.54857877 33.02173654 300.14263986 42.8984375 297.30078125 C43.72569336 297.07503418 44.55294922 296.84928711 45.40527344 296.61669922 C68.81130269 290.13637945 88.35188363 279.10003726 105.8984375 262.30078125 C106.64480469 261.61757813 107.39117187 260.934375 108.16015625 260.23046875 C129.64453588 239.9084203 144.56177675 207.68970493 146.05957031 178.11962891 C146.43429692 156.52716069 146.43429692 156.52716069 142.8984375 135.30078125 C142.62 134.07230469 142.3415625 132.84382813 142.0546875 131.578125 C137.39922665 112.17368257 128.08376222 94.25018029 114.8984375 79.30078125 C114.17785156 78.45902344 113.45726562 77.61726563 112.71484375 76.75 C96.71910279 58.41620065 76.24889488 44.49051986 52.8984375 37.30078125 C51.77308594 36.95273438 50.64773437 36.6046875 49.48828125 36.24609375 C32.6674838 31.39972309 16.05102851 30.78835892 -1.35400391 31.37695312 Z " fill="#FECA00" transform="translate(189.1015625,42.69921875)"/>
<path d="M0 0 C1.010625 -0.0103125 2.02125 -0.020625 3.0625 -0.03125 C6.87063439 0.65745516 8.46382351 1.56191576 11 4.5 C11.37233017 7.46672677 11.4808246 9.81856241 11.3125 12.75 C11.28994141 13.49507812 11.26738281 14.24015625 11.24414062 15.0078125 C11.18543561 16.839409 11.09575757 18.66996653 11 20.5 C15.62 20.5 20.24 20.5 25 20.5 C24.95359375 19.39140625 24.9071875 18.2828125 24.859375 17.140625 C24.82184898 15.67711032 24.78544971 14.21356644 24.75 12.75 C24.71648437 12.02039063 24.68296875 11.29078125 24.6484375 10.5390625 C24.58574405 7.09092281 24.72202512 4.92059382 26.64453125 2.01171875 C29.60717672 0.11031942 31.43424238 -0.00376591 34.9375 0.0625 C36.46697266 0.06443359 36.46697266 0.06443359 38.02734375 0.06640625 C41.59552735 0.58686404 43.36975562 0.98494881 46 3.5 C46.61972943 6.58075163 46.46965411 9.561342 46.3125 12.6875 C46.28994141 13.53248047 46.26738281 14.37746094 46.24414062 15.24804688 C46.18524963 17.33278798 46.09556798 19.41661804 46 21.5 C46.58225342 21.48694824 47.16450684 21.47389648 47.7644043 21.46044922 C59.44605488 21.30897366 72.47653979 24.25863537 81.16796875 32.57421875 C82.98835493 34.79827265 84.51428393 37.04173998 86 39.5 C86.64775391 40.46292969 86.64775391 40.46292969 87.30859375 41.4453125 C91.96808215 49.66793909 91.30463561 61.08906889 89.15234375 70.015625 C84.72773099 81.71460111 77.12361992 88.28580316 66 93.5 C67.61068359 94.26183594 67.61068359 94.26183594 69.25390625 95.0390625 C81.54627012 100.94291668 89.31551471 105.52951809 95 118.5 C98.78276724 129.31897252 98.62562528 143.12519144 94.39453125 153.78515625 C87.15450974 167.879876 78.26471212 173.0528948 63.86328125 177.93579102 C59.63461717 179.21624734 55.52324819 179.62914012 51.125 179.5625 C50.34382813 179.55347656 49.56265625 179.54445313 48.7578125 179.53515625 C47.88769531 179.51775391 47.88769531 179.51775391 47 179.5 C47.04640625 180.59699219 47.0928125 181.69398438 47.140625 182.82421875 C47.1781579 184.2786185 47.21455643 185.73304783 47.25 187.1875 C47.28351563 187.90873047 47.31703125 188.62996094 47.3515625 189.37304688 C47.42291404 193.27954343 47.27534719 195.06934334 45.109375 198.45703125 C41.76138109 201.69962536 39.64002065 201.68341788 35.0625 201.75 C33.47115234 201.78867187 33.47115234 201.78867187 31.84765625 201.828125 C29 201.5 29 201.5 27.18359375 200.234375 C24.32838387 196.0505031 24.88153893 191.12291798 24.9375 186.25 C24.94201172 185.50492188 24.94652344 184.75984375 24.95117188 183.9921875 C24.96290754 182.1614236 24.9808415 180.33070127 25 178.5 C20.38 178.5 15.76 178.5 11 178.5 C11.02320313 179.76457031 11.04640625 181.02914062 11.0703125 182.33203125 C11.08907126 183.9921816 11.10727135 185.65233833 11.125 187.3125 C11.14175781 188.14587891 11.15851563 188.97925781 11.17578125 189.83789062 C11.18544922 191.04155273 11.18544922 191.04155273 11.1953125 192.26953125 C11.21102295 193.37711792 11.21102295 193.37711792 11.22705078 194.50708008 C11 196.5 11 196.5 9 199.5 C8.34 199.5 7.68 199.5 7 199.5 C7 200.16 7 200.82 7 201.5 C2.38 201.5 -2.24 201.5 -7 201.5 C-7 200.84 -7 200.18 -7 199.5 C-7.66 199.5 -8.32 199.5 -9 199.5 C-11.56780471 195.6584024 -11.22688882 191.6860825 -11.125 187.25 C-11.11597656 186.50492188 -11.10695312 185.75984375 -11.09765625 184.9921875 C-11.07418358 183.16131941 -11.03831525 181.33061762 -11 179.5 C-11.76666992 179.52094727 -12.53333984 179.54189453 -13.32324219 179.56347656 C-16.7986946 179.64665158 -20.27393763 179.69866575 -23.75 179.75 C-24.9565625 179.78351563 -26.163125 179.81703125 -27.40625 179.8515625 C-28.56640625 179.86445313 -29.7265625 179.87734375 -30.921875 179.890625 C-31.99018555 179.91157227 -33.05849609 179.93251953 -34.15917969 179.95410156 C-37.69856264 179.38833564 -38.84585746 178.31188384 -41 175.5 C-41.49609375 172.625 -41.49609375 172.625 -41.4375 169.5 C-41.43621094 168.46875 -41.43492187 167.4375 -41.43359375 166.375 C-41 163.5 -41 163.5 -38 159.5 C-34.04 159.5 -30.08 159.5 -26 159.5 C-26 120.89 -26 82.28 -26 42.5 C-29.63 42.5 -33.26 42.5 -37 42.5 C-40.27528012 39.9231252 -40.85310136 38.38247196 -41.53125 34.30859375 C-41.5209375 33.19613281 -41.510625 32.08367187 -41.5 30.9375 C-41.5103125 29.82246094 -41.520625 28.70742187 -41.53125 27.55859375 C-40.87851034 23.80054113 -39.97676627 22.82548251 -37 20.5 C-34.15917969 20.04589844 -34.15917969 20.04589844 -30.921875 20.109375 C-29.76171875 20.12226562 -28.6015625 20.13515625 -27.40625 20.1484375 C-26.1996875 20.18195313 -24.993125 20.21546875 -23.75 20.25 C-21.91695312 20.27707031 -21.91695312 20.27707031 -20.046875 20.3046875 C-17.03045922 20.351819 -14.01562509 20.41760587 -11 20.5 C-11.05800781 19.39140625 -11.11601562 18.2828125 -11.17578125 17.140625 C-11.22268829 15.67712548 -11.26818745 14.21358037 -11.3125 12.75 C-11.35439453 12.02039063 -11.39628906 11.29078125 -11.43945312 10.5390625 C-11.52528958 6.76225831 -11.35805052 4.91479077 -8.85546875 2.015625 C-5.63006752 0.30364733 -3.63434821 -0.03708519 0 0 Z " fill="#FECA00" transform="translate(176,105.5)"/>
<path d="M0 0 C20.1503734 -0.49214965 37.06825871 1.52229942 56.04052734 8.30517578 C57.69250774 8.89096399 59.35499721 9.44699132 61.01953125 9.99609375 C68.08010699 12.37784719 74.5936137 15.69426355 81.203125 19.09765625 C84.73797918 20.90421793 88.33497427 22.47607091 92 24 C92 24.66 92 25.32 92 26 C92.763125 26.103125 93.52625 26.20625 94.3125 26.3125 C97.32373604 27.0828162 97.8899938 27.84831467 100 30 C101.31150304 30.86728427 102.64633923 31.70010954 104 32.5 C106.71998761 34.1072654 108.79594872 35.74669618 111 38 C112.175625 38.680625 112.175625 38.680625 113.375 39.375 C116.40265143 41.24926041 118.54696943 43.4243179 121 46 C121.928125 46.886875 122.85625 47.77375 123.8125 48.6875 C126 51 126 51 126 53 C126.598125 53.28875 127.19625 53.5775 127.8125 53.875 C130 55 130 55 133 57 C133 57.99 133 58.98 133 60 C133.66 60 134.32 60 135 60 C135 60.99 135 61.98 135 63 C135.763125 63.20625 136.52625 63.4125 137.3125 63.625 C140.85058732 65.43518421 141.40105959 67.43872363 143 71 C144.37485532 72.54166642 144.37485532 72.54166642 146 74 C149.07638555 77.53784338 151.7004402 80.9007847 154 85 C154.598125 86.010625 155.19625 87.02125 155.8125 88.0625 C157.68971956 91.37310038 159.45074318 94.7387397 161.1875 98.125 C161.69667969 99.11757812 162.20585937 100.11015625 162.73046875 101.1328125 C164 104 164 104 164.55078125 106.8046875 C164.77314453 107.89136719 164.77314453 107.89136719 165 109 C165.66 109.33 166.32 109.66 167 110 C167.74609375 111.75 167.74609375 111.75 168.4375 114 C168.66308594 114.721875 168.88867188 115.44375 169.12109375 116.1875 C169.41113281 117.115625 169.70117188 118.04375 170 119 C170.4663522 120.38188068 170.93392804 121.76334867 171.40234375 123.14453125 C173.11882254 128.28705705 174.65526942 133.46958716 176.125 138.6875 C176.38925781 139.57888672 176.65351563 140.47027344 176.92578125 141.38867188 C181.1897722 156.61566495 180.12509813 172.70893115 180.0625 188.375 C180.05747376 190.57551981 180.05291285 192.77604074 180.04882812 194.9765625 C180.03791436 200.31773303 180.0212658 205.65886117 180 211 C179.34 211 178.68 211 178 211 C178.33 211.99 178.66 212.98 179 214 C178.67 214.99 178.34 215.98 178 217 C177.63982494 218.35156341 177.29063266 219.70607593 176.94921875 221.0625 C174.69825468 229.89196052 172.33998364 238.50981257 169 247 C168.62101562 248.04414063 168.24203125 249.08828125 167.8515625 250.1640625 C165.15018081 257.51113244 161.86417281 264.20438575 158 271 C156.96815816 272.98668055 155.97937438 274.98684155 155 277 C154.34 277 153.68 277 153 277 C152.855625 277.78375 152.71125 278.5675 152.5625 279.375 C152 282 152 282 151 284 C150.34 284 149.68 284 149 284 C148.76023437 284.88429688 148.52046875 285.76859375 148.2734375 286.6796875 C146.88102388 290.31021381 145.28009763 292.31112576 142.625 295.125 C141.85414063 295.95257813 141.08328125 296.78015625 140.2890625 297.6328125 C138.82466934 299.14718495 137.34174909 300.64399277 135.8359375 302.1171875 C133.82359275 304.06555782 133.82359275 304.06555782 132 307 C130.35570171 308.68873879 128.68615782 310.35305515 127 312 C125.7934375 313.2375 125.7934375 313.2375 124.5625 314.5 C110.725 328 110.725 328 106 328 C105.79375 328.598125 105.5875 329.19625 105.375 329.8125 C103.47304173 332.8383427 101.24699596 333.64708502 98 335 C97.34 335 96.68 335 96 335 C95.67 335.99 95.34 336.98 95 338 C94.01 337.67 93.02 337.34 92 337 C92 337.66 92 338.32 92 339 C90.54462432 339.83848804 89.08559627 340.67063934 87.625 341.5 C86.81289063 341.9640625 86.00078125 342.428125 85.1640625 342.90625 C83 344 83 344 81 344 C80.67 344.66 80.34 345.32 80 346 C78 346.66666667 76 347.33333333 74 348 C73.67 348.66 73.34 349.32 73 350 C71.68225804 350.39044206 70.34332728 350.70955086 69 351 C68.154375 351.28875 67.30875 351.5775 66.4375 351.875 C63.51062054 352.83288782 60.60060411 353.65141371 57.625 354.4375 C54.32402051 355.31835437 51.16297035 356.27388245 48 357.5625 C44.1177795 359.07137922 40.24862899 359.84351922 36.14135742 360.49829102 C34.14635046 360.81691535 32.15394699 361.15268163 30.16577148 361.51147461 C18.8734175 363.38628752 7.61056449 363.47857999 -3.8125 363.5 C-4.8513736 363.50400818 -5.89024719 363.50801636 -6.96060181 363.512146 C-23.06667631 363.52737163 -40.36140476 363.43638984 -55.0949707 355.93310547 C-57.05859707 354.85718359 -57.05859707 354.85718359 -59.6875 354.5625 C-63.96644708 353.83588634 -67.91628561 352.44291242 -72 351 C-72 350.34 -72 349.68 -72 349 C-74.01822917 348.54427083 -76.03645833 348.08854167 -78.0546875 347.6328125 C-80 347 -80 347 -82 345 C-83.43701774 344.2099265 -84.89974563 343.4661429 -86.375 342.75 C-87.26058594 342.31429688 -88.14617187 341.87859375 -89.05859375 341.4296875 C-91.1117499 340.43173909 -93.16657329 339.43721676 -95.22265625 338.4453125 C-96.81400391 337.66800781 -96.81400391 337.66800781 -98.4375 336.875 C-99.42621094 336.39804687 -100.41492188 335.92109375 -101.43359375 335.4296875 C-103.76019073 334.13359238 -105.34809772 333.07187744 -107 331 C-107 330.34 -107 329.68 -107 329 C-107.54785156 328.74863281 -108.09570312 328.49726563 -108.66015625 328.23828125 C-115.49744513 324.61988296 -121.69783987 319.59672458 -127 314 C-128.13836011 313.03280143 -129.28485004 312.07512361 -130.4375 311.125 C-139.84793933 303.13539287 -139.84793933 303.13539287 -141 297 C-141.99 297 -142.98 297 -144 297 C-144 295.68 -144 294.36 -144 293 C-144.99 292.67 -145.98 292.34 -147 292 C-149.32265612 289.41927097 -150 288.54823932 -150 285 C-150.66 284.67 -151.32 284.34 -152 284 C-155.78804668 281.47463555 -156.32205231 279.15839211 -158 275 C-158.99 273.515 -158.99 273.515 -160 272 C-160 271.01 -160 270.02 -160 269 C-160.66 268.67 -161.32 268.34 -162 268 C-162.72075826 266.38687436 -163.43080786 264.76821662 -164.08984375 263.12890625 C-165.0669816 260.84332631 -166.20673272 258.69370565 -167.375 256.5 C-170.69161082 249.9364969 -172.80069583 242.99321227 -175 236 C-175.37382812 234.87980469 -175.74765625 233.75960937 -176.1328125 232.60546875 C-181.97687286 214.70532833 -182.18683212 196.26347354 -182.18530273 177.6171875 C-182.18749054 174.63787566 -182.205713 171.6589343 -182.22460938 168.6796875 C-182.27648081 151.15115252 -180.41192379 135.39894286 -174.55078125 118.77734375 C-173.90133233 116.99172576 -173.90133233 116.99172576 -174 115 C-173.34 115 -172.68 115 -172 115 C-171.8453125 114.01 -171.8453125 114.01 -171.6875 113 C-169.60912437 103.93072451 -165.33670489 95.39546657 -160.9375 87.25 C-160.58623047 86.59128906 -160.23496094 85.93257813 -159.87304688 85.25390625 C-158.34893029 82.41311428 -156.78966412 79.68449619 -155 77 C-154.34 77 -153.68 77 -153 77 C-152.7525 76.2575 -152.505 75.515 -152.25 74.75 C-150.89534961 71.76976913 -149.4898459 70.10080748 -147 68 C-146.34 68 -145.68 68 -145 68 C-146.28815876 72.61590222 -148.03681276 75.29601595 -151 79 C-158.86046373 92.00963708 -164.59185223 105.47068628 -168.48681641 120.1171875 C-168.95617605 121.83921489 -169.48121007 123.54581769 -170.01171875 125.25 C-173.06850855 136.84888618 -173.37256985 148.16088471 -173.37060547 160.08764648 C-173.37495544 163.03233737 -173.41130876 165.97549701 -173.44921875 168.91992188 C-173.52293204 181.45052451 -172.09433934 192.87238833 -169 205 C-168.66327431 206.39329213 -168.328254 207.78699775 -167.99511719 209.18115234 C-158.1995364 249.35842506 -130.37766379 284.71972317 -95.45019531 306.28979492 C-82.24165776 314.16628745 -68.64895588 320.4264001 -53.6875 324.0625 C-50 325 -50 325 -47.59570312 326.00537109 C-19.22370014 336.87703589 21.53773299 330.19090777 49 320 C51.09711274 319.0452959 53.13465724 318.02588687 55.17089844 316.94824219 C56.90916364 316.04709136 58.71256653 315.2750135 60.515625 314.51171875 C71.45928858 309.76373915 81.60331323 303.30526118 91 296 C92.17175781 295.13375 92.17175781 295.13375 93.3671875 294.25 C111.77861185 280.24524443 124.71685913 262.68466207 135.99926758 242.74829102 C136.86259622 241.24004598 137.7620218 239.75256853 138.66796875 238.26953125 C142.54413774 231.66526678 144.6948523 224.10330234 147.125 216.875 C147.37870361 216.12323486 147.63240723 215.37146973 147.89379883 214.59692383 C161.74337573 172.81027506 155.55676336 127.30688314 136.2265625 88.43359375 C132.57133812 81.59564961 128.60886028 75.23169841 124 69 C123.55398438 68.360625 123.10796875 67.72125 122.6484375 67.0625 C119.41523519 62.52467219 115.75754463 58.41639923 112 54.3125 C111.25230347 53.492052 111.25230347 53.492052 110.48950195 52.6550293 C107.99794503 49.97153143 105.4846798 47.52207248 102.625 45.23046875 C101.75875 44.49441406 100.8925 43.75835937 100 43 C100 42.34 100 41.68 100 41 C99.45859375 40.76410156 98.9171875 40.52820313 98.359375 40.28515625 C95.35885599 38.65076758 92.90426209 36.58987751 90.25 34.4375 C83.52735097 29.12678158 76.35397912 25.00650298 68.81152344 20.97998047 C67.22512665 20.12178684 65.66119131 19.22233619 64.1015625 18.31640625 C52.1711399 11.41969048 39.51197445 7.46342766 26 5 C24.64025106 4.73236161 23.28088713 4.46276121 21.921875 4.19140625 C14.64521976 2.75647704 7.40918522 1.5165057 0 1 C0 0.67 0 0.34 0 0 Z " fill="#DA9300" transform="translate(210,43)"/>
<path d="M0 0 C2.49361571 1.20381448 4.68143083 2.45428722 7 4 C7 4.99 7 5.98 7 7 C7.66 7 8.32 7 9 7 C9 7.99 9 8.98 9 10 C9.763125 10.20625 10.52625 10.4125 11.3125 10.625 C14.85058732 12.43518421 15.40105959 14.43872363 17 18 C18.37485532 19.54166642 18.37485532 19.54166642 20 21 C23.07638555 24.53784338 25.7004402 27.9007847 28 32 C28.598125 33.010625 29.19625 34.02125 29.8125 35.0625 C31.68971956 38.37310038 33.45074318 41.7387397 35.1875 45.125 C35.69667969 46.11757812 36.20585937 47.11015625 36.73046875 48.1328125 C38 51 38 51 38.55078125 53.8046875 C38.77314453 54.89136719 38.77314453 54.89136719 39 56 C39.66 56.33 40.32 56.66 41 57 C41.74609375 58.75 41.74609375 58.75 42.4375 61 C42.66308594 61.721875 42.88867188 62.44375 43.12109375 63.1875 C43.41113281 64.115625 43.70117188 65.04375 44 66 C44.4663522 67.38188068 44.93392804 68.76334867 45.40234375 70.14453125 C47.11882254 75.28705705 48.65526942 80.46958716 50.125 85.6875 C50.38925781 86.57888672 50.65351563 87.47027344 50.92578125 88.38867188 C55.1897722 103.61566495 54.12509813 119.70893115 54.0625 135.375 C54.05747376 137.57551981 54.05291285 139.77604074 54.04882812 141.9765625 C54.03791436 147.31773303 54.0212658 152.65886117 54 158 C53.34 158 52.68 158 52 158 C52.33 158.99 52.66 159.98 53 161 C52.67 161.99 52.34 162.98 52 164 C51.63982494 165.35156341 51.29063266 166.70607593 50.94921875 168.0625 C48.69825468 176.89196052 46.33998364 185.50981257 43 194 C42.62101562 195.04414063 42.24203125 196.08828125 41.8515625 197.1640625 C39.15018081 204.51113244 35.86417281 211.20438575 32 218 C30.96815816 219.98668055 29.97937438 221.98684155 29 224 C28.34 224 27.68 224 27 224 C26.855625 224.78375 26.71125 225.5675 26.5625 226.375 C26 229 26 229 25 231 C24.34 231 23.68 231 23 231 C22.76023437 231.88429688 22.52046875 232.76859375 22.2734375 233.6796875 C20.88102388 237.31021381 19.28009763 239.31112576 16.625 242.125 C15.85414063 242.95257813 15.08328125 243.78015625 14.2890625 244.6328125 C12.82466934 246.14718495 11.34174909 247.64399277 9.8359375 249.1171875 C7.82359275 251.06555782 7.82359275 251.06555782 6 254 C4.35570171 255.68873879 2.68615782 257.35305515 1 259 C-0.2065625 260.2375 -0.2065625 260.2375 -1.4375 261.5 C-15.275 275 -15.275 275 -20 275 C-20.20625 275.598125 -20.4125 276.19625 -20.625 276.8125 C-22.52695827 279.8383427 -24.75300404 280.64708502 -28 282 C-28.66 282 -29.32 282 -30 282 C-30.33 282.99 -30.66 283.98 -31 285 C-31.99 284.67 -32.98 284.34 -34 284 C-34 284.66 -34 285.32 -34 286 C-35.45537568 286.83848804 -36.91440373 287.67063934 -38.375 288.5 C-39.18710937 288.9640625 -39.99921875 289.428125 -40.8359375 289.90625 C-43 291 -43 291 -45 291 C-45.33 291.66 -45.66 292.32 -46 293 C-48 293.66666667 -50 294.33333333 -52 295 C-52.33 295.66 -52.66 296.32 -53 297 C-54.31774196 297.39044206 -55.65667272 297.70955086 -57 298 C-57.845625 298.28875 -58.69125 298.5775 -59.5625 298.875 C-62.48937946 299.83288782 -65.39939589 300.65141371 -68.375 301.4375 C-71.67597949 302.31835437 -74.83702965 303.27388245 -78 304.5625 C-81.8822205 306.07137922 -85.75137101 306.84351922 -89.85864258 307.49829102 C-91.85364954 307.81691535 -93.84605301 308.15268163 -95.83422852 308.51147461 C-107.1265825 310.38628752 -118.38943551 310.47857999 -129.8125 310.5 C-130.8513736 310.50400818 -131.89024719 310.50801636 -132.96060181 310.512146 C-149.06667631 310.52737163 -166.36140476 310.43638984 -181.0949707 302.93310547 C-183.05859707 301.85718359 -183.05859707 301.85718359 -185.6875 301.5625 C-189.96644708 300.83588634 -193.91628561 299.44291242 -198 298 C-198 297.34 -198 296.68 -198 296 C-200.01822917 295.54427083 -202.03645833 295.08854167 -204.0546875 294.6328125 C-206 294 -206 294 -208 292 C-209.43701774 291.2099265 -210.89974563 290.4661429 -212.375 289.75 C-213.26058594 289.31429688 -214.14617187 288.87859375 -215.05859375 288.4296875 C-217.1117499 287.43173909 -219.16657329 286.43721676 -221.22265625 285.4453125 C-222.81400391 284.66800781 -222.81400391 284.66800781 -224.4375 283.875 C-225.42621094 283.39804687 -226.41492188 282.92109375 -227.43359375 282.4296875 C-229.76019073 281.13359238 -231.34809772 280.07187744 -233 278 C-233 277.34 -233 276.68 -233 276 C-233.54785156 275.74863281 -234.09570312 275.49726563 -234.66015625 275.23828125 C-241.49744513 271.61988296 -247.69783987 266.59672458 -253 261 C-254.13836011 260.03280143 -255.28485004 259.07512361 -256.4375 258.125 C-265.84793933 250.13539287 -265.84793933 250.13539287 -267 244 C-267.99 244 -268.98 244 -270 244 C-270 242.68 -270 241.36 -270 240 C-270.99 239.67 -271.98 239.34 -273 239 C-275.32265612 236.41927097 -276 235.54823932 -276 232 C-276.66 231.67 -277.32 231.34 -278 231 C-281.78804668 228.47463555 -282.32205231 226.15839211 -284 222 C-284.66 221.01 -285.32 220.02 -286 219 C-286 218.01 -286 217.02 -286 216 C-286.66 215.67 -287.32 215.34 -288 215 C-288.72075826 213.38687436 -289.43080786 211.76821662 -290.08984375 210.12890625 C-291.0669816 207.84332631 -292.20673272 205.69370565 -293.375 203.5 C-296.69161082 196.9364969 -298.80069583 189.99321227 -301 183 C-301.37382812 181.87980469 -301.74765625 180.75960937 -302.1328125 179.60546875 C-307.97687286 161.70532833 -308.18683212 143.26347354 -308.18530273 124.6171875 C-308.18749054 121.63787566 -308.205713 118.6589343 -308.22460938 115.6796875 C-308.27648081 98.15115252 -306.41192379 82.39894286 -300.55078125 65.77734375 C-299.90133233 63.99172576 -299.90133233 63.99172576 -300 62 C-299.34 62 -298.68 62 -298 62 C-297.896875 61.34 -297.79375 60.68 -297.6875 60 C-295.60912437 50.93072451 -291.33670489 42.39546657 -286.9375 34.25 C-286.58623047 33.59128906 -286.23496094 32.93257812 -285.87304688 32.25390625 C-284.34893029 29.41311428 -282.78966412 26.68449619 -281 24 C-280.34 24 -279.68 24 -279 24 C-278.7525 23.2575 -278.505 22.515 -278.25 21.75 C-276.89534961 18.76976913 -275.4898459 17.10080748 -273 15 C-272.34 15 -271.68 15 -271 15 C-272.28815876 19.61590222 -274.03681276 22.29601595 -277 26 C-284.81300826 38.93109483 -290.54860803 52.32341045 -294.42504883 66.8828125 C-294.9091487 68.66545117 -295.43276346 70.43729127 -295.96533203 72.20605469 C-299.95452959 86.83373995 -300.53737888 101.67203589 -300.4375 116.75 C-300.43479095 117.71256714 -300.43208191 118.67513428 -300.42929077 119.66687012 C-300.36775272 134.09881526 -299.80293019 147.99319806 -296 162 C-295.79681152 162.75007324 -295.59362305 163.50014648 -295.38427734 164.27294922 C-294.41753336 167.72517302 -293.36874446 171.13455126 -292.19921875 174.5234375 C-291.46309069 176.65748952 -290.7680831 178.80694372 -290.14453125 180.9765625 C-284.28273145 200.95621816 -271.57682589 219.4771624 -258 235 C-257.3709375 235.73992187 -256.741875 236.47984375 -256.09375 237.2421875 C-249.10840735 245.40233778 -241.62685867 252.27171921 -233.05078125 258.703125 C-231.14635761 260.13692923 -229.2640673 261.60121582 -227.41796875 263.109375 C-225.01841679 264.9855998 -222.64546975 266.49155163 -220 268 C-219.05785645 268.53898926 -219.05785645 268.53898926 -218.09667969 269.08886719 C-205.03187479 276.52630756 -192.50097121 282.82318135 -178 287 C-176.92105469 287.3403125 -175.84210938 287.680625 -174.73046875 288.03125 C-141.0796359 298.37329875 -102.93536329 296.93870571 -70.02832031 284.73046875 C-67.86504638 283.9513985 -65.6831978 283.2555205 -63.4921875 282.55859375 C-59.11871904 281.1109447 -55.08774588 279.23651408 -51 277.125 C-50.30503418 276.77058838 -49.61006836 276.41617676 -48.89404297 276.05102539 C-46.92502858 275.04212985 -44.96161216 274.0231964 -43 273 C-42.11570312 272.54238281 -41.23140625 272.08476562 -40.3203125 271.61328125 C-19.14800548 260.27366486 -1.13893987 243.19869427 13 224 C14.03253906 222.67742187 14.03253906 222.67742187 15.0859375 221.328125 C21.12646368 213.4491778 25.58904966 204.85729447 30 196 C30.50789063 194.98421875 31.01578125 193.9684375 31.5390625 192.921875 C34.76524728 186.15282472 36.92787491 179.19395042 39 172 C39.3403125 170.92105469 39.680625 169.84210938 40.03125 168.73046875 C49.88931889 136.6544037 49.62788644 98.5176922 38 67 C37.48459137 65.27536343 36.98289222 63.54652205 36.5 61.8125 C33.90917815 53.08475936 30.28874513 45.05289944 25.453125 37.34765625 C24.11578336 35.1870586 22.92704746 33.00048159 21.75 30.75 C19.05244602 25.79856868 15.73511431 21.31124585 12.38964844 16.78417969 C10.49057183 14.19558327 9.02261421 12.06784263 8 9 C7.01 8.67 6.02 8.34 5 8 C4.3162955 6.67532254 3.65035814 5.34136367 3 4 C2.01 3.34 1.02 2.68 0 2 C0 1.34 0 0.68 0 0 Z " fill="#0B0B0A" transform="translate(336,96)"/>
<path d="M0 0 C13.81716394 0.01823188 28.03577483 0.55408253 39.02392578 10.22216797 C45.05722632 16.94534695 46.1887295 21.72275371 46.02001953 30.77685547 C45.44614905 37.20714783 42.64523554 40.49142382 38.02783203 44.87841797 C27.92942492 53.21895422 16.33924878 54.52402323 3.65283203 54.31591797 C2.59644531 54.30689453 1.54005859 54.29787109 0.45166016 54.28857422 C-2.1273605 54.26523467 -4.70588787 54.23249572 -7.28466797 54.19091797 C-7.30993445 46.66122145 -7.32749938 39.13153577 -7.33959961 31.60180664 C-7.34464167 29.0380004 -7.35147511 26.47419705 -7.36010742 23.91040039 C-7.37217861 20.23436776 -7.37789739 16.55837299 -7.38232422 12.88232422 C-7.3874855 11.7281752 -7.39264679 10.57402618 -7.39796448 9.38490295 C-7.39804001 8.32387863 -7.39811554 7.26285431 -7.39819336 6.16967773 C-7.40041397 5.23035904 -7.40263458 4.29104034 -7.40492249 3.32325745 C-7.14842985 -1.22484086 -3.80294707 0.0361015 0 0 Z " fill="#DB9400" transform="translate(194.28466796875,213.80908203125)"/>
<path d="M0 0 C5.52964402 3.77749106 8.91164523 8.75193742 10.25 15.3125 C10.99991094 22.81160944 8.59494909 29.31617616 4 35.1875 C0.6211918 37.79839724 -2.81120244 39.6814247 -6.75 41.3125 C-7.59433594 41.67601562 -8.43867188 42.03953125 -9.30859375 42.4140625 C-14.18474083 43.68706344 -18.85873207 43.56262095 -23.875 43.5 C-24.86371094 43.49935547 -25.85242188 43.49871094 -26.87109375 43.49804688 C-31.10464534 43.47226747 -34.61166229 43.34708443 -38.75 42.3125 C-38.75 26.8025 -38.75 11.2925 -38.75 -4.6875 C-26.45114508 -7.14727098 -11.19512275 -6.1414201 0 0 Z " fill="#DC9400" transform="translate(225.75,150.6875)"/>
<path d="M0 0 C9.47847025 4.67821493 14.86908909 10.01386802 18.375 20.0625 C22.04485622 33.32926055 20.8671837 48.05516078 14.140625 60.203125 C7.7918978 70.20454457 -1.14010036 75.72223673 -12.5625 78.4375 C-18.788217 79.8123573 -24.60835063 80.40581901 -31 80 C-30.94779297 81.53720703 -30.94779297 81.53720703 -30.89453125 83.10546875 C-30.86637965 84.46612936 -30.83908096 85.8268078 -30.8125 87.1875 C-30.78736328 87.86103516 -30.76222656 88.53457031 -30.73632812 89.22851562 C-30.67092171 93.69795374 -31.15948381 96.5083992 -34 100 C-38.23833043 102.54501278 -42.11570222 102.40264363 -46.9375 102.4375 C-47.73607422 102.47037109 -48.53464844 102.50324219 -49.35742188 102.53710938 C-53.69003092 102.57659463 -55.4564506 102.42260254 -58.984375 99.6796875 C-61.12094972 96.83920251 -62.12298582 94.42832816 -63 91 C-62.4225 91.66 -61.845 92.32 -61.25 93 C-56.47945017 95.93572297 -51.46120085 96.16921986 -46 95 C-43.21575069 93.01290091 -41.37809499 91.49574989 -40.51708984 88.08959961 C-40.28555518 85.9429858 -40.20486223 83.84620447 -40.1875 81.6875 C-40.16236328 80.94693359 -40.13722656 80.20636719 -40.11132812 79.44335938 C-40.05281557 77.62947031 -40.02345651 75.81468097 -40 74 C-39.1028125 73.92523438 -38.205625 73.85046875 -37.28125 73.7734375 C-24.88320522 72.46703195 -9.81587632 69.57799647 -1 60 C8.69929681 47.52102667 10.18072969 35.35299998 9 20 C7.84962856 12.39796206 4.17895751 6.35634314 0 0 Z " fill="#B27800" transform="translate(263,211)"/>
<path d="M0 0 C1 1 1 1 1.25 3.8125 C0.97767509 7.28464266 0.4324572 8.5675428 -2 11 C-2.66 11 -3.32 11 -4 11 C-4.2578125 11.59425781 -4.515625 12.18851563 -4.78125 12.80078125 C-6.10696947 15.19302503 -7.40378864 16.44781639 -9.5 18.1875 C-10.21414062 18.79464844 -10.92828125 19.40179688 -11.6640625 20.02734375 C-12.43492188 20.67832031 -13.20578125 21.32929687 -14 22 C-31.57620407 37.14301621 -43.56650593 54.66327743 -55.046875 74.54296875 C-55.98273437 76.16138672 -55.98273437 76.16138672 -56.9375 77.8125 C-57.48277344 78.76769531 -58.02804688 79.72289062 -58.58984375 80.70703125 C-60 83 -60 83 -62 85 C-63.32 85 -64.64 85 -66 85 C-66.82306282 67.99003512 -57.3124008 52.65818784 -48 39 C-47.319375 37.948125 -46.63875 36.89625 -45.9375 35.8125 C-41.10625374 28.53053047 -35.59045657 22.2040631 -29.4375 16 C-28.39360107 14.94111572 -28.39360107 14.94111572 -27.32861328 13.86083984 C-20.43158199 7.07700719 -10.24328544 -2.85859129 0 0 Z " fill="#FFE06C" transform="translate(119,78)"/>
<path d="M0 0 C5.28550655 1.44150179 8.67102503 4.8091289 12 9 C17.55203815 18.90363562 18.9210065 30.41934654 16.12890625 41.4375 C12.28828791 51.30977796 5.72279172 59.41614239 -4 64 C-7 64.0625 -7 64.0625 -10 63 C-11.17175781 62.62488281 -11.17175781 62.62488281 -12.3671875 62.2421875 C-14.59151267 61.52846322 -16.79756696 60.77819301 -19 60 C-16.16574568 57.77961643 -13.27066458 55.99432491 -10.125 54.25 C-1.35760158 48.97153693 3.41889681 41.96501864 6 32 C7.48989673 21.76021689 6.71872274 13.19787123 1.3125 4.1875 C0 2 0 2 0 0 Z " fill="#B37800" transform="translate(259,140)"/>
<path d="M0 0 C3 2.4375 3 2.4375 4 4.4375 C3.36578125 4.30472656 2.7315625 4.17195312 2.078125 4.03515625 C-8.14368043 2.10091959 -17.26171116 1.97441444 -28 1.4375 C-28 14.9675 -28 28.4975 -28 42.4375 C-31.3 42.4375 -34.6 42.4375 -38 42.4375 C-38 26.9275 -38 11.4175 -38 -4.5625 C-26.30848895 -6.90080221 -10.50065782 -6.39499521 0 0 Z " fill="#B37900" transform="translate(225,150.5625)"/>
<path d="M0 0 C0.66 0.33 1.32 0.66 2 1 C2 1.66 2 2.32 2 3 C-8.56 2.34 -19.12 1.68 -30 1 C-30 16.18 -30 31.36 -30 47 C-32.97 47 -35.94 47 -39 47 C-39 30.17 -39 13.34 -39 -4 C-25.63357811 -6.67328438 -12.22582179 -6.33085848 0 0 Z " fill="#B27800" transform="translate(227,220)"/>
<path d="M0 0 C-1.28815876 4.61590222 -3.03681276 7.29601595 -6 11 C-13.86047371 24.00965359 -19.5759807 37.46208254 -23.48510742 52.1027832 C-23.97382278 53.9035452 -24.50529353 55.69254337 -25.0390625 57.48046875 C-29.36184175 73.31308705 -29.65439989 89.69187527 -30 106 C-31.485 106.495 -31.485 106.495 -33 107 C-33.33 107.99 -33.66 108.98 -34 110 C-34.99 110 -35.98 110 -37 110 C-37.30762579 89.17373398 -36.53178038 70.57474129 -29.55078125 50.77734375 C-28.90133233 48.99172576 -28.90133233 48.99172576 -29 47 C-28.34 47 -27.68 47 -27 47 C-26.896875 46.34 -26.79375 45.68 -26.6875 45 C-24.60912437 35.93072451 -20.33670489 27.39546657 -15.9375 19.25 C-15.4105957 18.26193359 -15.4105957 18.26193359 -14.87304688 17.25390625 C-13.34893029 14.41311428 -11.78966412 11.68449619 -10 9 C-9.34 9 -8.68 9 -8 9 C-7.7525 8.2575 -7.505 7.515 -7.25 6.75 C-5.75805674 3.46772483 -3.93296349 0 0 0 Z " fill="#161514" transform="translate(65,111)"/>
<path d="M0 0 C2.49361571 1.20381448 4.68143083 2.45428722 7 4 C7 4.99 7 5.98 7 7 C7.66 7 8.32 7 9 7 C9 7.99 9 8.98 9 10 C9.763125 10.20625 10.52625 10.4125 11.3125 10.625 C14.85058732 12.43518421 15.40105959 14.43872363 17 18 C18.37485532 19.54166642 18.37485532 19.54166642 20 21 C23.07638555 24.53784338 25.7004402 27.9007847 28 32 C28.598125 33.010625 29.19625 34.02125 29.8125 35.0625 C31.68971956 38.37310038 33.45074318 41.7387397 35.1875 45.125 C35.69667969 46.11757812 36.20585937 47.11015625 36.73046875 48.1328125 C38 51 38 51 38.55078125 53.8046875 C38.69902344 54.52914062 38.84726562 55.25359375 39 56 C39.99 56.495 39.99 56.495 41 57 C41.74609375 58.75 41.74609375 58.75 42.4375 61 C42.66308594 61.721875 42.88867188 62.44375 43.12109375 63.1875 C43.41113281 64.115625 43.70117188 65.04375 44 66 C44.46552936 67.3700013 44.93174873 68.73976822 45.3984375 70.109375 C47.17979444 75.43964542 48.70065869 80.83128944 50.1875 86.25 C50.46013672 87.21679688 50.73277344 88.18359375 51.01367188 89.1796875 C51.27083984 90.11554688 51.52800781 91.05140625 51.79296875 92.015625 C52.0252417 92.85383789 52.25751465 93.69205078 52.49682617 94.55566406 C53.02108992 97.10245139 53.08937678 99.40720577 53 102 C52.21625 101.979375 51.4325 101.95875 50.625 101.9375 C48.01885039 101.81315937 48.01885039 101.81315937 46 103 C45.93530518 102.4423999 45.87061035 101.8847998 45.80395508 101.31030273 C44.36048465 89.24834173 42.2034547 78.39357458 38 67 C37.48459137 65.27536343 36.98289222 63.54652205 36.5 61.8125 C33.90917815 53.08475936 30.28874513 45.05289944 25.453125 37.34765625 C24.11578336 35.1870586 22.92704746 33.00048159 21.75 30.75 C19.05244602 25.79856868 15.73511431 21.31124585 12.38964844 16.78417969 C10.49057183 14.19558327 9.02261421 12.06784263 8 9 C7.01 8.67 6.02 8.34 5 8 C4.3162955 6.67532254 3.65035814 5.34136367 3 4 C2.01 3.34 1.02 2.68 0 2 C0 1.34 0 0.68 0 0 Z " fill="#191612" transform="translate(336,96)"/>
<path d="M0 0 C4.29 0 8.58 0 13 0 C13 1.98 13 3.96 13 6 C12.01 6 11.02 6 10 6 C10.06960937 7.00160156 10.13921875 8.00320313 10.2109375 9.03515625 C10.26726115 10.37753652 10.32185635 11.71999008 10.375 13.0625 C10.44460937 14.37347656 10.51421875 15.68445313 10.5859375 17.03515625 C10.31938422 21.1687668 8.76323489 23.70962904 5.91650391 26.66772461 C2.33101141 29.16021283 -1.26999037 28.93419949 -5.5 28.75 C-6.32886719 28.7603125 -7.15773437 28.770625 -8.01171875 28.78125 C-14.02250741 28.66657677 -16.79916449 27.28266997 -21 23 C-20.67 21.68 -20.34 20.36 -20 19 C-19.34 19.33 -18.68 19.66 -18 20 C-18 20.66 -18 21.32 -18 22 C-13.38 22 -8.76 22 -4 22 C-4 21.34 -4 20.68 -4 20 C-3.5155542 19.5464917 -3.0311084 19.0929834 -2.53198242 18.62573242 C-0.65475586 16.63362857 -0.58960111 15.68338966 -0.48828125 12.98828125 C-0.45283203 12.23095703 -0.41738281 11.47363281 -0.38085938 10.69335938 C-0.35830078 9.90767578 -0.33574219 9.12199219 -0.3125 8.3125 C-0.27833984 7.51521484 -0.24417969 6.71792969 -0.20898438 5.89648438 C-0.12661896 3.93148096 -0.06162933 1.96576304 0 0 Z " fill="#B37900" transform="translate(187,285)"/>
<path d="M0 0 C1.67542976 0.28604898 3.34385343 0.61781233 5 1 C6.09080241 7.15605095 6.12876053 13.16082279 6.09765625 19.40234375 C6.0962413 20.48004532 6.09482635 21.55774689 6.09336853 22.66810608 C6.08779611 26.09126629 6.07524868 29.51435975 6.0625 32.9375 C6.05748144 35.26627509 6.05291915 37.59505122 6.04882812 39.92382812 C6.03783571 45.61590798 6.02112514 51.30794922 6 57 C5.34 57 4.68 57 4 57 C4.33 57.99 4.66 58.98 5 60 C3.35 59.67 1.7 59.34 0 59 C0.99 57.02 1.98 55.04 3 53 C1.09684545 50.95530837 1.09684545 50.95530837 -1.13867188 49.62475586 C-3 48 -3 48 -3.18945312 46.18969727 C-3.05474609 45.46838623 -2.92003906 44.7470752 -2.78125 44.00390625 C-2.05647237 38.96798287 -1.82091536 34.04316434 -1.71875 28.96484375 C-1.69071289 27.75001816 -1.69071289 27.75001816 -1.66210938 26.51065063 C-1.58504513 23.11861959 -1.51583376 19.72645053 -1.44775391 16.33422852 C-1.39626339 13.83599378 -1.33901566 11.33794 -1.28125 8.83984375 C-1.26767456 8.06704575 -1.25409912 7.29424774 -1.2401123 6.49803162 C-1.11303453 1.11303453 -1.11303453 1.11303453 0 0 Z " fill="#111110" transform="translate(384,197)"/>
<path d="M0 0 C-1.28815876 4.61590222 -3.03681276 7.29601595 -6 11 C-13.13206645 22.80408679 -18.83777363 35.14123699 -22.40258789 48.45361328 C-23.28804827 51.74669932 -24.08787046 54.13180569 -26 57 C-26.99 57.495 -26.99 57.495 -28 58 C-28.66 57.67 -29.32 57.34 -30 57 C-30.09978121 53.50765756 -29.77842938 50.40562852 -29 47 C-28.34 47 -27.68 47 -27 47 C-26.896875 46.34 -26.79375 45.68 -26.6875 45 C-24.60912437 35.93072451 -20.33670489 27.39546657 -15.9375 19.25 C-15.58623047 18.59128906 -15.23496094 17.93257812 -14.87304688 17.25390625 C-13.34893029 14.41311428 -11.78966412 11.68449619 -10 9 C-9.34 9 -8.68 9 -8 9 C-7.7525 8.2575 -7.505 7.515 -7.25 6.75 C-5.75805674 3.46772483 -3.93296349 0 0 0 Z " fill="#24241D" transform="translate(65,111)"/>
<path d="M0 0 C2.49361571 1.20381448 4.68143083 2.45428722 7 4 C7 4.99 7 5.98 7 7 C7.66 7 8.32 7 9 7 C9 7.99 9 8.98 9 10 C9.763125 10.20625 10.52625 10.4125 11.3125 10.625 C14.85058732 12.43518421 15.40105959 14.43872363 17 18 C18.37485532 19.54166642 18.37485532 19.54166642 20 21 C23.07638555 24.53784338 25.7004402 27.9007847 28 32 C28.598125 33.010625 29.19625 34.02125 29.8125 35.0625 C31.68971956 38.37310038 33.45074318 41.7387397 35.1875 45.125 C35.69667969 46.11757812 36.20585937 47.11015625 36.73046875 48.1328125 C38 51 38 51 38.55078125 53.8046875 C38.69902344 54.52914062 38.84726562 55.25359375 39 56 C39.99 56.495 39.99 56.495 41 57 C41.625 59.5625 41.625 59.5625 42 62 C40.68 61.67 39.36 61.34 38 61 C38 60.34 38 59.68 38 59 C37.34 59 36.68 59 36 59 C35.63648438 58.10539062 35.27296875 57.21078125 34.8984375 56.2890625 C32.13267746 49.63705502 29.2706889 43.38821351 25.41796875 37.27734375 C24.08848063 35.14210525 22.91504523 32.97789352 21.75 30.75 C19.05244602 25.79856868 15.73511431 21.31124585 12.38964844 16.78417969 C10.49057183 14.19558327 9.02261421 12.06784263 8 9 C7.01 8.67 6.02 8.34 5 8 C4.3162955 6.67532254 3.65035814 5.34136367 3 4 C2.01 3.34 1.02 2.68 0 2 C0 1.34 0 0.68 0 0 Z " fill="#312F28" transform="translate(336,96)"/>
<path d="M0 0 C1.39403756 -0.10933628 2.79063776 -0.18619553 4.1875 -0.25 C5.35345703 -0.31960937 5.35345703 -0.31960937 6.54296875 -0.390625 C10.11973681 0.17801857 11.59900641 1.29465511 14 4 C14.37233017 6.96672677 14.4808246 9.31856241 14.3125 12.25 C14.27866211 13.36761719 14.27866211 13.36761719 14.24414062 14.5078125 C14.18543561 16.339409 14.09575757 18.16996653 14 20 C10.7 20 7.4 20 4 20 C3.96261719 18.89140625 3.92523438 17.7828125 3.88671875 16.640625 C3.82104552 15.17705026 3.75459865 13.71351009 3.6875 12.25 C3.66494141 11.52039063 3.64238281 10.79078125 3.61914062 10.0390625 C3.40690219 5.79429381 3.02929201 3.086142 0 0 Z " fill="#B37900" transform="translate(183,106)"/>
<path d="M0 0 C1.45945288 0.08708669 2.91765868 0.19526907 4.375 0.3125 C5.59316406 0.39951172 5.59316406 0.39951172 6.8359375 0.48828125 C9 1 9 1 11 4 C11.14245897 6.76655324 11.18769445 9.42653306 11.125 12.1875 C11.11597656 12.93708984 11.10695312 13.68667969 11.09765625 14.45898438 C11.07412578 16.30612654 11.03825561 18.15310412 11 20 C8.03 20 5.06 20 2 20 C1.93941406 19.05898437 1.87882813 18.11796875 1.81640625 17.1484375 C1.69072266 15.28058594 1.69072266 15.28058594 1.5625 13.375 C1.48128906 12.14523438 1.40007812 10.91546875 1.31640625 9.6484375 C1.03336056 6.38467612 0.58961047 3.22056141 0 0 Z " fill="#B17700" transform="translate(221,106)"/>
<path d="M0 0 C0.66 0 1.32 0 2 0 C2 0.66 2 1.32 2 2 C15.86 2.495 15.86 2.495 30 3 C30 4.98 30 6.96 30 9 C25.75022954 9.11611395 21.50086663 9.18722349 17.25 9.25 C16.0434375 9.28351563 14.836875 9.31703125 13.59375 9.3515625 C11.85351562 9.37089844 11.85351562 9.37089844 10.078125 9.390625 C9.00981445 9.41157227 7.94150391 9.43251953 6.84082031 9.45410156 C3.30571303 8.8890191 2.14423995 7.81503502 0 5 C-0.25 2.25 -0.25 2.25 0 0 Z " fill="#B37900" transform="translate(135,282)"/>
<path d="M0 0 C0.66 0 1.32 0 2 0 C0.29977612 7.12647031 -1.57919742 14.0834212 -4 21 C-5.65 21 -7.3 21 -9 21 C-9 20.34 -9 19.68 -9 19 C-12.54518884 20.39759905 -12.54518884 20.39759905 -16 22 C-14 16 -12 10 -10 4 C-8.68 4 -7.36 4 -6 4 C-5.01 5.485 -5.01 5.485 -4 7 C-2.55245745 5.55245745 -2.44266439 3.96037087 -2 2 C-1.34 2 -0.68 2 0 2 C0 1.34 0 0.68 0 0 Z " fill="#12110E" transform="translate(384,267)"/>
<path d="M0 0 C2 1 2 1 3.26171875 2.58203125 C4.38530906 6.26193814 3.05609573 9.2021157 1.8125 12.6875 C1.59013672 13.37650391 1.36777344 14.06550781 1.13867188 14.77539062 C0.45703125 16.76171875 0.45703125 16.76171875 -1 20 C-1.99 20.33 -2.98 20.66 -4 21 C-4.66 20.67 -5.32 20.34 -6 20 C-6.09978121 16.50765756 -5.77842938 13.40562852 -5 10 C-4.34 10 -3.68 10 -3 10 C-2.87625 9.278125 -2.7525 8.55625 -2.625 7.8125 C-2.0095069 5.04278106 -1.11555626 2.6029646 0 0 Z " fill="#25241A" transform="translate(41,148)"/>
<path d="M0 0 C3.5 1.375 3.5 1.375 5 3.875 C5.5 6.375 5.5 6.375 4.5 8.375 C5.098125 8.49875 5.69625 8.6225 6.3125 8.75 C8.5 9.375 8.5 9.375 11.5 11.375 C11.17 12.035 10.84 12.695 10.5 13.375 C7.9375 14 7.9375 14 5.5 14.375 C5.12488281 13.91609375 4.74976562 13.4571875 4.36328125 12.984375 C1.9114844 10.04468911 -0.34542052 7.49597524 -3.375 5.125 C-4.07625 4.5475 -4.7775 3.97 -5.5 3.375 C-5.5 2.385 -5.5 1.395 -5.5 0.375 C-3.5 -0.625 -3.5 -0.625 0 0 Z " fill="#151515" transform="translate(78.5,344.625)"/>
<path d="M0 0 C0.54140625 0.48082031 1.0828125 0.96164063 1.640625 1.45703125 C4.47897288 3.31323558 6.38792626 3.48737656 9.75 3.6875 C11.22726563 3.78611328 11.22726563 3.78611328 12.734375 3.88671875 C13.85585937 3.94279297 13.85585937 3.94279297 15 4 C15 5.98 15 7.96 15 10 C5.02405581 10.61919654 5.02405581 10.61919654 1.3125 8.375 C-0.32796316 5.40654286 -0.30375856 3.34134421 0 0 Z " fill="#B37800" transform="translate(135,144)"/>
<path d="M0 0 C-1.28257126 4.59588035 -3.01478084 7.33244503 -6 11 C-7.75197632 13.95490023 -9.38767991 16.96698803 -11 20 C-11.99 19.34 -12.98 18.68 -14 18 C-12.94124926 14.59687262 -11.99097846 11.98646769 -10 9 C-9.34 9 -8.68 9 -8 9 C-7.7525 8.2575 -7.505 7.515 -7.25 6.75 C-5.75805674 3.46772483 -3.93296349 0 0 0 Z " fill="#302D20" transform="translate(65,111)"/>
<path d="M0 0 C2.49361571 1.20381448 4.68143083 2.45428722 7 4 C7 4.99 7 5.98 7 7 C7.66 7 8.32 7 9 7 C9 7.99 9 8.98 9 10 C9.763125 10.20625 10.52625 10.4125 11.3125 10.625 C14.85058732 12.43518421 15.40105959 14.43872363 17 18 C17.515625 18.515625 18.03125 19.03125 18.5625 19.5625 C20.4636497 21.4636497 21.11822728 23.49033918 22 26 C20.22265625 25.8359375 20.22265625 25.8359375 18 25 C16.18359375 22.6015625 16.18359375 22.6015625 14.4375 19.625 C12.49271483 16.34182147 10.69856553 13.67395855 8 11 C8 10.34 8 9.68 8 9 C7.01 8.67 6.02 8.34 5 8 C4.3162955 6.67532254 3.65035814 5.34136367 3 4 C2.01 3.34 1.02 2.68 0 2 C0 1.34 0 0.68 0 0 Z " fill="#38332D" transform="translate(336,96)"/>
<path d="M0 0 C2.3125 0.4375 2.3125 0.4375 5 2 C6.01854726 4.30243035 6.68920756 6.56904739 7.32421875 9.00390625 C7.80535737 11.19592168 7.80535737 11.19592168 10 12 C10.625 14.5625 10.625 14.5625 11 17 C9.68 16.67 8.36 16.34 7 16 C7 15.34 7 14.68 7 14 C6.34 14 5.68 14 5 14 C4.16235732 12.04350603 3.33000941 10.08474444 2.5 8.125 C2.0359375 7.03445312 1.571875 5.94390625 1.09375 4.8203125 C0 2 0 2 0 0 Z " fill="#24231B" transform="translate(367,141)"/>
<path d="M0 0 C0.79953138 3.28696233 1.09658936 4.71023192 0 8 C-1.98 8.33 -3.96 8.66 -6 9 C-6.33 6.03 -6.66 3.06 -7 0 C-3.86650268 -1.04449911 -3.01031744 -0.93423645 0 0 Z " fill="#201E19" transform="translate(388,190)"/>
<path d="M0 0 C3.87498404 -0.02917234 7.74993958 -0.04685673 11.625 -0.0625 C12.71941406 -0.07087891 13.81382812 -0.07925781 14.94140625 -0.08789062 C16.53662109 -0.09272461 16.53662109 -0.09272461 18.1640625 -0.09765625 C19.62513428 -0.10551147 19.62513428 -0.10551147 21.11572266 -0.11352539 C24.14875321 0.00585494 27.01915268 0.44133276 30 1 C21.52157007 5.71647758 9.24985313 2.18941854 0 1 C0 0.67 0 0.34 0 0 Z " fill="#E7B100" transform="translate(210,43)"/>
<path d="M0 0 C0.99 0.33 1.98 0.66 3 1 C1.625 2.5 1.625 2.5 0 4 C-0.66 4 -1.32 4 -2 4 C-2.33 5.32 -2.66 6.64 -3 8 C-3.66 8 -4.32 8 -5 8 C-5.226875 8.70125 -5.45375 9.4025 -5.6875 10.125 C-7.33841288 13.74128535 -9.2908835 16.08769976 -12 19 C-12.66 19 -13.32 19 -14 19 C-13.67 17.35 -13.34 15.7 -13 14 C-12.01 13.67 -11.02 13.34 -10 13 C-9.31379969 11.67661368 -8.65213539 10.34050052 -8 9 C-6.43955895 6.85832084 -4.79050671 4.96955738 -3 3 C-2.34 3 -1.68 3 -1 3 C-0.67 2.01 -0.34 1.02 0 0 Z " fill="#030300" transform="translate(79,91)"/>
<path d="M0 0 C0.99 0.33 1.98 0.66 3 1 C3 1.66 3 2.32 3 3 C3.99 3 4.98 3 6 3 C6.33 3.99 6.66 4.98 7 6 C6.01 6.99 5.02 7.98 4 9 C-0.8 6.53846154 -0.8 6.53846154 -1.8125 3.8125 C-1.874375 3.214375 -1.93625 2.61625 -2 2 C-1.34 2 -0.68 2 0 2 C0 1.34 0 0.68 0 0 Z " fill="#2D2D2D" transform="translate(105,369)"/>
<path d="M0 0 C2.875 1.125 2.875 1.125 6 3 C7.375 6.1875 7.375 6.1875 8 9 C6.02 9.33 4.04 9.66 2 10 C1.34 6.7 0.68 3.4 0 0 Z " fill="#110D09" transform="translate(373,155)"/>
<path d="M0 0 C0.66 0.33 1.32 0.66 2 1 C2 3.97 2 6.94 2 10 C1.01 10 0.02 10 -1 10 C-0.67 9.01 -0.34 8.02 0 7 C-1.65 6.67 -3.3 6.34 -5 6 C-4.34 5.34 -3.68 4.68 -3 4 C-1.98758315 2.67607028 -0.98560611 1.34400833 0 0 Z " fill="#030303" transform="translate(33,216)"/>
<path d="M0 0 C1.67542976 0.28604898 3.34385343 0.61781233 5 1 C4.67 2.98 4.34 4.96 4 7 C2.35 7.33 0.7 7.66 -1 8 C-1.04241723 5.66705225 -1.04092937 3.33297433 -1 1 C-0.67 0.67 -0.34 0.34 0 0 Z " fill="#040404" transform="translate(384,197)"/>
<path d="M0 0 C1.66666667 0 3.33333333 0 5 0 C5.36923077 4.55384615 5.36923077 4.55384615 3.5 6.8125 C3.005 7.204375 2.51 7.59625 2 8 C0.68 6.68 -0.64 5.36 -2 4 C-1.34 2.68 -0.68 1.36 0 0 Z " fill="#080807" transform="translate(31,186)"/>
<path d="M0 0 C-1.96969697 6.81818182 -1.96969697 6.81818182 -5 9 C-5.99 9 -6.98 9 -8 9 C-6.68994234 5.06982701 -4.75047804 0 0 0 Z " fill="#222219" transform="translate(65,111)"/>
<path d="M0 0 C4.67692308 1.47692308 4.67692308 1.47692308 6.3125 4.125 C6.539375 4.74375 6.76625 5.3625 7 6 C6.34 6 5.68 6 5 6 C4.67 6.66 4.34 7.32 4 8 C3.34 7.67 2.68 7.34 2 7 C2 6.34 2 5.68 2 5 C1.01 5.33 0.02 5.66 -1 6 C-0.67 4.02 -0.34 2.04 0 0 Z M1 1 C2 3 2 3 2 3 Z " fill="#0D0B08" transform="translate(381,245)"/>
<path d="M0 0 C2.125 0.375 2.125 0.375 4 1 C3.67 2.98 3.34 4.96 3 7 C2.01 7.33 1.02 7.66 0 8 C-0.66 7.67 -1.32 7.34 -2 7 C-2.125 4.625 -2.125 4.625 -2 2 C-1.34 1.34 -0.68 0.68 0 0 Z " fill="#282720" transform="translate(37,161)"/>
<path d="M0 0 C2.51083114 1.25541557 2.87125446 2.50063488 4 5 C3.360625 5.28875 2.72125 5.5775 2.0625 5.875 C-0.15206079 6.82823451 -0.15206079 6.82823451 -1 9 C-1.66 9 -2.32 9 -3 9 C-2.30058404 5.85262818 -1.23921302 2.97411124 0 0 Z " fill="#383831" transform="translate(41,148)"/>
<path d="M0 0 C3.68754757 0.49831724 5.60490662 1.10067643 8 4 C7.67 4.66 7.34 5.32 7 6 C4.4375 6.625 4.4375 6.625 2 7 C1.34 4.69 0.68 2.38 0 0 Z " fill="#272727" transform="translate(82,352)"/>
<path d="M0 0 C0 1.65 0 3.3 0 5 C-1.98 5 -3.96 5 -6 5 C-6 3.35 -6 1.7 -6 0 C-3 -1 -3 -1 0 0 Z " fill="#020200" transform="translate(387,185)"/>
<path d="M0 0 C1.25664978 2.90600261 2 4.79604584 2 8 C-0.99324263 6.9024777 -1.84610901 6.32317108 -3.25 3.375 C-3.4975 2.59125 -3.745 1.8075 -4 1 C-2 0 -2 0 0 0 Z " fill="#1F1C16" transform="translate(360,121)"/>
<path d="M0 0 C0.33 1.32 0.66 2.64 1 4 C-2.28804981 6.91227269 -4.59885603 8.49701212 -9 9 C-7.37660195 7.29115995 -5.70680947 5.62553283 -4 4 C-3.34 4 -2.68 4 -2 4 C-2 3.34 -2 2.68 -2 2 C-1.34 2 -0.68 2 0 2 C0 1.34 0 0.68 0 0 Z " fill="#A89849" transform="translate(89,82)"/>
<path d="M0 0 C-0.25 1.875 -0.25 1.875 -1 4 C-3.0625 5.25 -3.0625 5.25 -5 6 C-4.67 4.68 -4.34 3.36 -4 2 C-5.32 1.34 -6.64 0.68 -8 0 C-5.13822943 -1.43088528 -3.06624227 -0.59991697 0 0 Z " fill="#000000" transform="translate(348,341)"/>
<path d="M0 0 C0.66 0 1.32 0 2 0 C1.34 2.97 0.68 5.94 0 9 C-1.32 8.67 -2.64 8.34 -4 8 C-3.34 7.67 -2.68 7.34 -2 7 C-2.33 5.68 -2.66 4.36 -3 3 C-2.01 2.67 -1.02 2.34 0 2 C0 1.34 0 0.68 0 0 Z " fill="#2D2D2D" transform="translate(384,267)"/>
<path d="M0 0 C0.66 0.33 1.32 0.66 2 1 C1.34 3.31 0.68 5.62 0 8 C-3 6 -3 6 -4 4 C-2.68 2.68 -1.36 1.36 0 0 Z " fill="#151312" transform="translate(45,143)"/>
<path d="M0 0 C0.99 0.33 1.98 0.66 3 1 C2.01 1.33 1.02 1.66 0 2 C0.33 3.32 0.66 4.64 1 6 C0.01 6.66 -0.98 7.32 -2 8 C-3 7 -3 7 -3.25 4.5625 C-3.1675 3.716875 -3.085 2.87125 -3 2 C-2.01 1.34 -1.02 0.68 0 0 Z " fill="#191919" transform="translate(31,222)"/>
<path d="M0 0 C0.66 0 1.32 0 2 0 C1.42676569 3.86933162 -0.38953552 6.15222057 -3 9 C-3.66 9 -4.32 9 -5 9 C-4.67 7.35 -4.34 5.7 -4 4 C-3.01 3.67 -2.02 3.34 -1 3 C-0.67 2.01 -0.34 1.02 0 0 Z " fill="#252525" transform="translate(70,101)"/>
<path d="M0 0 C0.66 0 1.32 0 2 0 C2.33 1.65 2.66 3.3 3 5 C2.34 5 1.68 5 1 5 C1.33 5.99 1.66 6.98 2 8 C0.35 7.67 -1.3 7.34 -3 7 C-2.01 4.69 -1.02 2.38 0 0 Z " fill="#434343" transform="translate(387,249)"/>
<path d="M0 0 C1.98 0.66 3.96 1.32 6 2 C6 2.66 6 3.32 6 4 C4.02 4.99 4.02 4.99 2 6 C1.01 5.34 0.02 4.68 -1 4 C-0.67 2.68 -0.34 1.36 0 0 Z " fill="#232321" transform="translate(30,182)"/>
<path d="M0 0 C0.66 0 1.32 0 2 0 C2.33 1.65 2.66 3.3 3 5 C1.02 5.99 1.02 5.99 -1 7 C-1.33 5.35 -1.66 3.7 -2 2 C-1.34 2 -0.68 2 0 2 C0 1.34 0 0.68 0 0 Z " fill="#121212" transform="translate(383,179)"/>
<path d="M0 0 C2 2 2 2 3 5 C2.01 5.33 1.02 5.66 0 6 C-1.5 4.625 -1.5 4.625 -3 3 C-3 2.34 -3 1.68 -3 1 C-2.01 0.67 -1.02 0.34 0 0 Z " fill="#2B2B2B" transform="translate(39,280)"/>
<path d="M0 0 C1.65 0 3.3 0 5 0 C5 1.32 5 2.64 5 4 C3.68 4.33 2.36 4.66 1 5 C0.67 3.35 0.34 1.7 0 0 Z " fill="#343232" transform="translate(376,164)"/>
<path d="M0 0 C1.32 0 2.64 0 4 0 C4 1.65 4 3.3 4 5 C2.68 5.33 1.36 5.66 0 6 C0 4.02 0 2.04 0 0 Z " fill="#252525" transform="translate(28,215)"/>
<path d="M0 0 C4.875 2.75 4.875 2.75 6 5 C0.06 4.01 0.06 4.01 -6 3 C-6 2.67 -6 2.34 -6 2 C-4.02 2 -2.04 2 0 2 C0 1.34 0 0.68 0 0 Z " fill="#C18300" transform="translate(223,150)"/>
<path d="M0 0 C1.5 1.3125 1.5 1.3125 3 3 C3 3.99 3 4.98 3 6 C2.01 6.33 1.02 6.66 0 7 C-0.66 5.35 -1.32 3.7 -2 2 C-1.34 2 -0.68 2 0 2 C0 1.34 0 0.68 0 0 Z " fill="#3E352C" transform="translate(362,127)"/>
<path d="M0 0 C2.49361571 1.20381448 4.68143083 2.45428722 7 4 C7 4.99 7 5.98 7 7 C3.63983107 5.87994369 2.30935087 4.62788203 0 2 C0 1.34 0 0.68 0 0 Z " fill="#434343" transform="translate(336,96)"/>
<path d="M0 0 C2 3.75 2 3.75 2 6 C0.35 5.67 -1.3 5.34 -3 5 C-2.01 3.35 -1.02 1.7 0 0 Z " fill="#202020" transform="translate(98,362)"/>
<path d="M0 0 C-1.0625 1.5625 -1.0625 1.5625 -3 3 C-6.6875 2.6875 -6.6875 2.6875 -10 2 C-6.5980513 -0.09350689 -3.94727588 -0.17942163 0 0 Z " fill="#E39E00" transform="translate(242,45)"/>
<path d="" fill="#FFFFFF" transform="translate(0,0)"/>
<path d="" fill="#000000" transform="translate(0,0)"/>
<path d="" fill="#000000" transform="translate(0,0)"/>
<path d="" fill="#000000" transform="translate(0,0)"/>
<path d="" fill="#FFFFFF" transform="translate(0,0)"/>
</svg>
