<?xml version="1.0" encoding="UTF-8"?>
<svg version="1.1" xmlns="http://www.w3.org/2000/svg" width="428" height="416">
<path d="M0 0 C3.62565691 1.23958163 7.26728938 2.42857614 10.90870667 3.62089539 C12.70215797 4.20862525 14.49482616 4.79875067 16.28666687 5.39137268 C25.95668947 8.58641638 35.69562776 11.42061941 45.60238647 13.78610229 C46.39097046 13.97462769 47.17955444 14.16315308 47.99203491 14.35739136 C69.43668676 19.34351138 91.43042797 20.92159127 113.36508179 22.05221558 C143.99353783 23.7085486 143.99353783 23.7085486 153.60238647 32.78610229 C155.16874456 35.18179329 156.38904216 37.69702393 157.60238647 40.28610229 C158.12046875 41.35948853 158.12046875 41.35948853 158.64901733 42.45455933 C161.52647425 48.4761413 164.15705881 54.57645204 166.60238647 60.78610229 C167.1986832 62.2731045 167.79504205 63.76008179 168.39144897 65.24703979 C169.0251341 66.84304777 169.65794752 68.43940212 170.28988647 70.03610229 C170.58774048 70.78101929 170.88559448 71.52593628 171.19247437 72.29342651 C173.06140847 77.07012255 174.45412981 81.7858122 175.60238647 86.78610229 C177.08738647 86.29110229 177.08738647 86.29110229 178.60238647 85.78610229 C187.93083687 84.99459741 195.85007692 85.03516659 203.60238647 90.78610229 C207.51751466 94.10818154 211.23371375 97.58827824 214.91586304 101.16452026 C217.12120471 103.28494287 219.3783163 105.34497067 221.63949585 107.40548706 C235.10513849 119.68989803 235.10513849 119.68989803 239.60238647 124.78610229 C239.60238647 125.44610229 239.60238647 126.10610229 239.60238647 126.78610229 C240.15668335 127.01168823 240.71098022 127.23727417 241.28207397 127.46969604 C244.28744802 129.17476516 246.3322565 131.3641018 248.72738647 133.84860229 C251.84344413 137.25063713 251.84344413 137.25063713 255.60238647 139.78610229 C255.60238647 140.44610229 255.60238647 141.10610229 255.60238647 141.78610229 C256.26238647 141.78610229 256.92238647 141.78610229 257.60238647 141.78610229 C259.37299993 143.39575089 260.97202491 145.03844853 262.60238647 146.78610229 C263.33586304 147.53762573 264.0693396 148.28914917 264.82504272 149.06344604 C272.70362462 157.37759182 275.19095257 163.17728824 275.1590271 174.63986206 C274.82343069 182.64103983 272.09781671 189.1812387 266.48129272 194.97360229 C260.01127637 200.35593826 252.1691093 204.00803812 243.60238647 203.78610229 C230.32210664 201.91487272 222.58060258 195.22782095 213.60238647 185.78610229 C212.27250289 184.44932812 210.94022174 183.11491845 209.60238647 181.78610229 C211.34092522 189.24909788 213.3868433 196.55579745 215.80038452 203.82516479 C223.14161705 226.45459377 221.29958381 249.69277137 210.85238647 270.84860229 C209.47307064 273.51540982 208.04581596 276.15354318 206.60238647 278.78610229 C206.08418335 279.74202271 206.08418335 279.74202271 205.55551147 280.71725464 C200.24479943 290.47915584 194.52010422 299.99253727 188.77816772 309.50485229 C186.05281058 314.02487443 183.36387798 318.5654394 180.68685913 323.11422729 C178.51811198 326.79717532 176.33730353 330.47293523 174.15756226 334.14938354 C172.66659391 336.67724197 171.19401418 339.21506998 169.72348022 341.75485229 C164.2125387 351.16472426 158.42556829 359.14889152 150.60238647 366.78610229 C150.04680054 367.37391479 149.4912146 367.96172729 148.91879272 368.56735229 C138.71792468 378.52975849 120.75526047 384.59832798 107.40707397 389.25485229 C104.07931899 390.48518424 101.79516169 391.97395173 99.22738647 394.47360229 C95.78458109 397.78610229 95.78458109 397.78610229 93.60238647 397.78610229 C93.60238647 398.44610229 93.60238647 399.10610229 93.60238647 399.78610229 C83.74550062 408.32028104 76.21115687 411.41244094 63.23519897 411.14157104 C58.34367979 410.66293852 54.76843265 409.31737086 50.60238647 406.78610229 C49.55051147 406.20860229 48.49863647 405.63110229 47.41488647 405.03610229 C41.73287571 400.49049369 37.89443243 394.66224017 35.60238647 387.78610229 C35.55860135 385.78658164 35.55198232 383.78546705 35.60238647 381.78610229 C34.86552612 381.68015747 34.12866577 381.57421265 33.36947632 381.46505737 C24.69504202 380.17820538 16.09354845 378.62142561 7.49203491 376.91915894 C5.98672723 376.62299825 4.480534 376.3313023 2.97348022 376.04415894 C-16.89444818 372.25845475 -34.88821588 366.31960809 -50.39761353 352.78610229 C-50.39761353 352.12610229 -50.39761353 351.46610229 -50.39761353 350.78610229 C-51.05761353 350.78610229 -51.71761353 350.78610229 -52.39761353 350.78610229 C-52.39761353 350.12610229 -52.39761353 349.46610229 -52.39761353 348.78610229 C-53.05761353 348.78610229 -53.71761353 348.78610229 -54.39761353 348.78610229 C-54.39761353 348.12610229 -54.39761353 347.46610229 -54.39761353 346.78610229 C-55.05761353 346.78610229 -55.71761353 346.78610229 -56.39761353 346.78610229 C-66.73036703 334.68271263 -74.20500942 319.78447445 -82.24917603 306.11813354 C-84.2871953 302.65694973 -86.34504246 299.2089931 -88.42105103 295.77047729 C-91.50519573 290.63914207 -94.46210485 285.44106048 -97.39761353 280.22360229 C-98.22857544 278.75117065 -98.22857544 278.75117065 -99.07632446 277.24899292 C-102.07719676 271.92643736 -105.06388494 266.59617708 -108.03823853 261.25875854 C-109.2411833 259.10110597 -110.44430669 256.94355297 -111.64761353 254.78610229 C-112.23542603 253.73197144 -112.82323853 252.67784058 -113.42886353 251.59176636 C-116.99759543 245.21587316 -120.67593345 238.92631729 -124.48623657 232.69259644 C-127.22219707 228.17881152 -129.58012065 223.5417694 -131.87808228 218.79391479 C-133.5521535 215.48020055 -135.39434441 212.3007776 -137.27261353 209.09860229 C-141.50665604 201.83340497 -145.10573429 194.31596742 -148.5519104 186.64987183 C-149.27413003 185.05823653 -150.02801347 183.48103275 -150.78823853 181.90719604 C-154.22318334 174.37208823 -154.99868455 167.26193983 -152.17495728 159.36813354 C-148.40710862 151.34252683 -143.44123486 144.45795213 -137.85903931 137.58786011 C-116.41773926 111.15338059 -98.11714583 83.63591358 -84.52676392 52.35641479 C-83.31369389 49.59507399 -82.05924749 46.85477318 -80.79995728 44.11422729 C-78.86899026 39.88235906 -77.11839095 35.6312698 -75.46011353 31.28610229 C-67.92369851 12.26920698 -58.83443201 5.99375277 -40.68008423 -2.27175903 C-26.36605744 -8.18018019 -13.98641773 -4.7846769 0 0 Z " fill="#8D95F6" transform="translate(153.39761352539063,5.213897705078125)"/>
<path d="M0 0 C3.62565691 1.23958163 7.26728938 2.42857614 10.90870667 3.62089539 C12.70215797 4.20862525 14.49482616 4.79875067 16.28666687 5.39137268 C25.95668947 8.58641638 35.69562776 11.42061941 45.60238647 13.78610229 C46.39097046 13.97462769 47.17955444 14.16315308 47.99203491 14.35739136 C69.43668676 19.34351138 91.43042797 20.92159127 113.36508179 22.05221558 C143.99353783 23.7085486 143.99353783 23.7085486 153.60238647 32.78610229 C155.16874456 35.18179329 156.38904216 37.69702393 157.60238647 40.28610229 C158.12046875 41.35948853 158.12046875 41.35948853 158.64901733 42.45455933 C161.52647425 48.4761413 164.15705881 54.57645204 166.60238647 60.78610229 C167.1986832 62.2731045 167.79504205 63.76008179 168.39144897 65.24703979 C169.0251341 66.84304777 169.65794752 68.43940212 170.28988647 70.03610229 C170.58774048 70.78101929 170.88559448 71.52593628 171.19247437 72.29342651 C173.06140847 77.07012255 174.45412981 81.7858122 175.60238647 86.78610229 C177.08738647 86.29110229 177.08738647 86.29110229 178.60238647 85.78610229 C187.93083687 84.99459741 195.85007692 85.03516659 203.60238647 90.78610229 C207.51592449 94.10683225 211.2308002 97.58535286 214.91146851 101.16012573 C217.13546947 103.2987117 219.41110953 105.3773133 221.6902771 107.45675659 C227.48626763 112.7461939 233.11684716 118.1729923 238.60238647 123.78610229 C234.02785471 131.55076806 228.13684399 137.80386058 221.98422241 144.30709839 C220.20143051 146.21525269 218.49049964 148.17961863 216.78988647 150.16110229 C210.66265839 157.20152303 203.98188607 163.06958852 196.60238647 168.78610229 C189.03639255 162.39704076 181.86974683 155.6160783 174.70443726 148.78414917 C172.81430121 146.98753205 170.91095031 145.20622554 169.00473022 143.42672729 C161.36068224 136.19540502 155.69956118 129.93693723 154.97079468 118.99362183 C154.72063388 109.67540526 156.99885478 101.65610589 163.55941772 94.71578979 C165.47738647 93.03610229 165.47738647 93.03610229 168.60238647 90.78610229 C168.3157312 90.07687622 168.02907593 89.36765015 167.73373413 88.63693237 C166.61903317 85.82804951 165.55437489 83.00515903 164.50082397 80.17282104 C158.86433711 65.06397779 158.86433711 65.06397779 152.28988647 50.34860229 C151.98937378 49.71204712 151.68886108 49.07549194 151.37924194 48.41964722 C149.3660656 44.45127137 147.54888599 42.7492259 143.60238647 40.78610229 C141.05229791 40.13164535 138.63036451 39.60831508 136.04379272 39.18844604 C135.30439957 39.06364365 134.56500641 38.93884125 133.8032074 38.81025696 C125.6319568 37.51072468 117.42149687 36.99526963 109.16925049 36.50738525 C77.7145864 34.60788993 45.65891045 29.86444982 16.35238647 17.66110229 C7.75213401 14.09690371 -1.13465773 12.38040698 -10.39761353 11.78610229 C-10.39761353 12.44610229 -10.39761353 13.10610229 -10.39761353 13.78610229 C-11.55261353 14.28110229 -12.70761353 14.77610229 -13.89761353 15.28610229 C-23.35887881 20.0915933 -27.83178825 27.57133088 -31.64761353 37.16110229 C-32.05495728 38.13821167 -32.46230103 39.11532104 -32.88198853 40.12203979 C-34.45832401 43.92141251 -35.98343718 47.73985883 -37.49746704 51.56442261 C-39.14357057 55.71757373 -40.78409949 59.81181904 -42.83511353 63.78610229 C-43.46353149 65.01393433 -43.46353149 65.01393433 -44.10464478 66.26657104 C-44.53132446 67.09801636 -44.95800415 67.92946167 -45.39761353 68.78610229 C-46.27371306 70.55639191 -47.14873038 72.32721754 -48.02261353 74.09860229 C-49.6829239 77.4244115 -51.45866168 80.61327201 -53.39761353 83.78610229 C-53.87198853 84.75547729 -54.34636353 85.72485229 -54.83511353 86.72360229 C-56.47716385 89.94202094 -58.37254967 92.79315078 -60.39761353 95.78610229 C-60.78102905 96.36078247 -61.16444458 96.93546265 -61.55947876 97.52755737 C-67.08120024 105.79847163 -72.83879795 113.76089201 -79.11294556 121.47775269 C-83.41535801 126.77232539 -87.46840469 132.20802904 -91.39761353 137.78610229 C-92.26386353 138.95399292 -92.26386353 138.95399292 -93.14761353 140.14547729 C-97.39260899 146.06398058 -99.95445512 151.22500655 -99.04995728 158.63375854 C-97.64493604 165.15406669 -95.15100788 170.58724443 -91.80776978 176.32907104 C-90.0599945 179.3743637 -88.77257419 182.55793378 -87.39761353 185.78610229 C-86.09278088 188.13480106 -84.75574144 190.4591136 -83.38589478 192.77047729 C-82.39761353 194.78610229 -82.39761353 194.78610229 -82.39761353 197.78610229 C-81.73761353 197.78610229 -81.07761353 197.78610229 -80.39761353 197.78610229 C-80.08308228 198.42676636 -79.76855103 199.06743042 -79.44448853 199.72750854 C-77.43047992 203.7979898 -75.41885431 207.82566966 -73.08511353 211.72360229 C-71.39761353 214.78610229 -71.39761353 214.78610229 -71.39761353 217.78610229 C-70.73761353 217.78610229 -70.07761353 217.78610229 -69.39761353 217.78610229 C-68.22607059 220.07539282 -67.06023279 222.36728591 -65.89761353 224.66110229 C-65.56374634 225.31207886 -65.22987915 225.96305542 -64.88589478 226.63375854 C-62.39761353 231.55953979 -62.39761353 231.55953979 -62.39761353 233.78610229 C-61.73761353 233.78610229 -61.07761353 233.78610229 -60.39761353 233.78610229 C-59.40761353 237.25110229 -59.40761353 237.25110229 -58.39761353 240.78610229 C-57.73761353 240.78610229 -57.07761353 240.78610229 -56.39761353 240.78610229 C-55.40761353 244.25110229 -55.40761353 244.25110229 -54.39761353 247.78610229 C-53.73761353 247.78610229 -53.07761353 247.78610229 -52.39761353 247.78610229 C-51.39277149 249.74195554 -50.39387547 251.70086466 -49.39761353 253.66110229 C-48.84073853 254.75164917 -48.28386353 255.84219604 -47.71011353 256.96578979 C-46.39761353 259.78610229 -46.39761353 259.78610229 -46.39761353 261.78610229 C-45.73761353 261.78610229 -45.07761353 261.78610229 -44.39761353 261.78610229 C-43.39277149 263.74195554 -42.39387547 265.70086466 -41.39761353 267.66110229 C-40.84073853 268.75164917 -40.28386353 269.84219604 -39.71011353 270.96578979 C-38.39761353 273.78610229 -38.39761353 273.78610229 -38.39761353 275.78610229 C-37.73761353 275.78610229 -37.07761353 275.78610229 -36.39761353 275.78610229 C-35.9619104 276.62012573 -35.52620728 277.45414917 -35.07730103 278.31344604 C-31.94356218 284.23499152 -28.75111638 290.00670378 -24.93667603 295.52438354 C-22.54222417 299.04313387 -20.33716569 302.6802111 -18.10855103 306.30563354 C-16.45857067 308.85976326 -16.45857067 308.85976326 -14.18667603 310.98532104 C-12.39761353 312.78610229 -12.39761353 312.78610229 -12.39761353 314.78610229 C-11.82398071 315.03746948 -11.2503479 315.28883667 -10.65933228 315.54782104 C-8.1064879 316.94549232 -6.3156248 318.59280558 -4.21011353 320.59860229 C2.97512811 327.07940847 10.27901345 330.39200024 19.60238647 332.78610229 C19.60238647 333.44610229 19.60238647 334.10610229 19.60238647 334.78610229 C20.28301147 334.89567261 20.96363647 335.00524292 21.66488647 335.11813354 C33.69113125 337.0851922 45.6631774 339.34660044 57.60238647 341.78610229 C57.93238647 343.10610229 58.26238647 344.42610229 58.60238647 345.78610229 C57.53310913 346.62141479 57.53310913 346.62141479 56.44223022 347.47360229 C43.60331792 357.70326055 37.96695207 365.3696617 35.60238647 381.78610229 C26.17536567 380.43069749 16.8331555 378.76779618 7.49203491 376.91915894 C5.98672723 376.62299825 4.480534 376.3313023 2.97348022 376.04415894 C-16.89444818 372.25845475 -34.88821588 366.31960809 -50.39761353 352.78610229 C-50.39761353 352.12610229 -50.39761353 351.46610229 -50.39761353 350.78610229 C-51.05761353 350.78610229 -51.71761353 350.78610229 -52.39761353 350.78610229 C-52.39761353 350.12610229 -52.39761353 349.46610229 -52.39761353 348.78610229 C-53.05761353 348.78610229 -53.71761353 348.78610229 -54.39761353 348.78610229 C-54.39761353 348.12610229 -54.39761353 347.46610229 -54.39761353 346.78610229 C-55.05761353 346.78610229 -55.71761353 346.78610229 -56.39761353 346.78610229 C-66.73036703 334.68271263 -74.20500942 319.78447445 -82.24917603 306.11813354 C-84.2871953 302.65694973 -86.34504246 299.2089931 -88.42105103 295.77047729 C-91.50519573 290.63914207 -94.46210485 285.44106048 -97.39761353 280.22360229 C-98.22857544 278.75117065 -98.22857544 278.75117065 -99.07632446 277.24899292 C-102.07719676 271.92643736 -105.06388494 266.59617708 -108.03823853 261.25875854 C-109.2411833 259.10110597 -110.44430669 256.94355297 -111.64761353 254.78610229 C-112.23542603 253.73197144 -112.82323853 252.67784058 -113.42886353 251.59176636 C-116.99759543 245.21587316 -120.67593345 238.92631729 -124.48623657 232.69259644 C-127.22219707 228.17881152 -129.58012065 223.5417694 -131.87808228 218.79391479 C-133.5521535 215.48020055 -135.39434441 212.3007776 -137.27261353 209.09860229 C-141.50665604 201.83340497 -145.10573429 194.31596742 -148.5519104 186.64987183 C-149.27413003 185.05823653 -150.02801347 183.48103275 -150.78823853 181.90719604 C-154.22318334 174.37208823 -154.99868455 167.26193983 -152.17495728 159.36813354 C-148.40710862 151.34252683 -143.44123486 144.45795213 -137.85903931 137.58786011 C-116.41773926 111.15338059 -98.11714583 83.63591358 -84.52676392 52.35641479 C-83.31369389 49.59507399 -82.05924749 46.85477318 -80.79995728 44.11422729 C-78.86899026 39.88235906 -77.11839095 35.6312698 -75.46011353 31.28610229 C-67.92369851 12.26920698 -58.83443201 5.99375277 -40.68008423 -2.27175903 C-26.36605744 -8.18018019 -13.98641773 -4.7846769 0 0 Z " fill="#97D9EE" transform="translate(153.39761352539063,5.213897705078125)"/>
<path d="M0 0 C13.64572474 7.54227983 18.66001379 17.69703466 24.921875 31.58203125 C25.41945313 32.66484375 25.91703125 33.74765625 26.4296875 34.86328125 C30.046875 42.81314389 30.046875 42.81314389 30.046875 45.08203125 C30.74135742 44.74880859 31.43583984 44.41558594 32.15136719 44.07226562 C35.35572466 42.55144545 38.5756562 41.06678329 41.796875 39.58203125 C42.88871094 39.05738281 43.98054688 38.53273437 45.10546875 37.9921875 C53.23755581 34.28703541 60.88932039 32.21560601 69.69116211 34.88354492 C78.16773529 38.25023903 83.73786273 44.17784911 88.046875 52.08203125 C89.95913114 56.71682154 90.39990207 60.99217185 90.359375 65.95703125 C90.35200317 67.01821167 90.35200317 67.01821167 90.34448242 68.10083008 C90.19130125 74.91542841 89.2287351 79.40146027 84.859375 84.76953125 C78.6774718 89.85242944 71.86876118 93.25232114 64.546875 96.39453125 C63.72445312 96.75353516 62.90203125 97.11253906 62.0546875 97.48242188 C60.05452731 98.35458475 58.0510458 99.21912438 56.046875 100.08203125 C59.78297697 109.31175062 63.58094547 118.46200194 67.8828125 127.4453125 C71.14836806 134.8421246 71.22955103 144.02359763 69.3984375 151.85546875 C66.73963644 158.5138338 62.12987811 162.05005193 56.296875 165.89453125 C52.44185031 167.30309796 48.99021915 167.44504844 44.91796875 167.69921875 C41.90987022 168.10029855 39.628207 168.924368 36.859375 170.14453125 C32.11106698 172.1741708 29.20873222 172.90137367 24.046875 172.08203125 C14.04646405 167.24422561 8.64263674 159.20009067 4.109375 149.39453125 C3.69880859 148.55341797 3.28824219 147.71230469 2.86523438 146.84570312 C2.48302734 146.03294922 2.10082031 145.22019531 1.70703125 144.3828125 C1.19088257 143.28706909 1.19088257 143.28706909 0.66430664 142.16918945 C-0.06511812 139.70345111 0.17834064 138.47389469 1.046875 136.08203125 C2.17620383 134.11179929 3.4288033 132.25922381 4.6953125 130.375 C6.45982111 127.38145505 7.72169849 124.29422811 9.046875 121.08203125 C8.24975098 121.53642578 8.24975098 121.53642578 7.43652344 122 C-3.4489088 128.06041195 -12.54031822 132.41911109 -25.20214844 131.15039062 C-30.76397255 130.66149022 -33.69218573 131.5675706 -38.23925781 134.86132812 C-40.95371769 136.79470411 -42.61409592 137.2864616 -45.953125 137.08203125 C-52.62316401 133.97015048 -57.15903591 129.28634715 -60.953125 123.08203125 C-61.57380859 122.13457031 -61.57380859 122.13457031 -62.20703125 121.16796875 C-66.51980442 113.38393913 -66.54617565 102.67302633 -64.140625 94.23046875 C-58.17396391 82.17284113 -43.9463292 77.1705144 -31.953125 73.08203125 C-31.293125 73.08203125 -30.633125 73.08203125 -29.953125 73.08203125 C-34.16923881 63.5476216 -38.39962824 54.02586765 -42.82421875 44.5859375 C-46.03842068 37.45685985 -46.14374326 28.10234519 -44.33984375 20.49609375 C-40.39956053 11.71290736 -31.48484376 6.84580482 -23.078125 3.14453125 C-22.24410156 2.74685547 -21.41007812 2.34917969 -20.55078125 1.93945312 C-13.66918957 -1.15034963 -7.32060445 -2.27558472 0 0 Z " fill="#E9E0F5" transform="translate(211.953125,93.91796875)"/>
<path d="M0 0 C0.66 0 1.32 0 2 0 C2 0.66 2 1.32 2 2 C2.55429687 2.22558594 3.10859375 2.45117188 3.6796875 2.68359375 C6.68506155 4.38866286 8.72987003 6.57799951 11.125 9.0625 C14.24105765 12.46453483 14.24105765 12.46453483 18 15 C18 15.66 18 16.32 18 17 C18.66 17 19.32 17 20 17 C21.77061345 18.60964859 23.36963843 20.25234623 25 22 C25.73347656 22.75152344 26.46695313 23.50304687 27.22265625 24.27734375 C35.10123814 32.59148952 37.58856609 38.39118594 37.55664062 49.85375977 C37.22104421 57.85493753 34.49543024 64.3951364 28.87890625 70.1875 C22.4088899 75.56983596 14.56672283 79.22193582 6 79 C-7.28027983 77.12877042 -15.0217839 70.44171865 -24 61 C-25.32988359 59.66322582 -26.66216474 58.32881615 -28 57 C-26.26146126 64.46299559 -24.21554318 71.76969515 -21.80200195 79.0390625 C-14.46076942 101.66849148 -16.30280266 124.90666908 -26.75 146.0625 C-28.12931584 148.72930753 -29.55657052 151.36744089 -31 154 C-31.34546875 154.63728027 -31.6909375 155.27456055 -32.046875 155.93115234 C-37.35758705 165.69305355 -43.08228225 175.20643498 -48.82421875 184.71875 C-51.54957589 189.23877213 -54.23850849 193.77933711 -56.91552734 198.328125 C-59.08427449 202.01107302 -61.26508295 205.68683293 -63.44482422 209.36328125 C-64.93579257 211.89113968 -66.40837229 214.42896769 -67.87890625 216.96875 C-73.38984778 226.37862197 -79.17681819 234.36278923 -87 242 C-87.55558594 242.5878125 -88.11117187 243.175625 -88.68359375 243.78125 C-98.8844618 253.7436562 -116.847126 259.81222569 -130.1953125 264.46875 C-133.52306748 265.69908195 -135.80722479 267.18784943 -138.375 269.6875 C-141.81780538 273 -141.81780538 273 -144 273 C-144 273.66 -144 274.32 -144 275 C-153.85688586 283.53417875 -161.3912296 286.62633865 -174.3671875 286.35546875 C-179.25339445 285.87735603 -182.84194537 284.53860178 -187 282 C-188.0725 281.38125 -189.145 280.7625 -190.25 280.125 C-193.41377939 277.68026138 -195.56081466 275.15659279 -198 272 C-197.67 271.34 -197.34 270.68 -197 270 C-195 271.375 -195 271.375 -193 273 C-193 273.66 -193 274.32 -193 275 C-187.45444514 277.42618025 -182.0585719 279 -176 279 C-172.61689028 277.52970337 -169.61447847 275.61447847 -167 273 C-165.97261719 272.61972656 -164.94523437 272.23945313 -163.88671875 271.84765625 C-158.93872896 269.80874101 -155.56039242 266.15723924 -151.8125 262.4375 C-150.4272687 261.07785007 -149.03808236 259.72221514 -147.64453125 258.37109375 C-147.03971924 257.77224365 -146.43490723 257.17339355 -145.81176758 256.55639648 C-143.95940491 254.96512685 -142.20097459 254.0320251 -140 253 C-138.61248587 251.89478241 -137.25868017 250.74621633 -135.9375 249.5625 C-135.26589844 248.96566406 -134.59429687 248.36882812 -133.90234375 247.75390625 C-132.2245521 246.20703058 -130.59840757 244.62828434 -129 243 C-128.48050781 243.58910156 -127.96101563 244.17820312 -127.42578125 244.78515625 C-126.72839844 245.53667969 -126.03101563 246.28820312 -125.3125 247.0625 C-124.62800781 247.81660156 -123.94351563 248.57070313 -123.23828125 249.34765625 C-121.13108388 251.2462627 -121.13108388 251.2462627 -118.51953125 250.99609375 C-115.47155733 249.7910808 -113.73484873 248.27303155 -111.375 246 C-107.92025221 242.76435864 -104.43422597 239.659877 -100.75 236.6875 C-99.84378906 235.94628906 -98.93757813 235.20507812 -98.00390625 234.44140625 C-96.42409522 233.15742459 -94.84250024 231.87546429 -93.24560547 230.61279297 C-84.46949126 223.65932076 -76.09270009 216.67506366 -74 205 C-73.90601957 202.96007192 -73.87007931 200.91708586 -73.875 198.875 C-73.87628906 197.72515625 -73.87757813 196.5753125 -73.87890625 195.390625 C-73.98615928 192.38754011 -74.33573675 189.58547273 -74.8125 186.625 C-75.21876048 183.07165129 -75.00190832 181.33301071 -72.875 178.4375 C-72.41222656 177.89480469 -71.94945312 177.35210937 -71.47265625 176.79296875 C-69.26119306 174.10049765 -67.75581423 171.07597962 -66.11328125 168.015625 C-63.42042755 163.14014252 -63.42042755 163.14014252 -60 162 C-58.7436635 159.98285268 -58.7436635 159.98285268 -57.6875 157.5 C-55.59059401 153.0724967 -53.17946161 149.12449014 -50.4140625 145.08984375 C-47.70781731 141.09028249 -45.43017235 137.02867301 -43.5625 132.5625 C-42.34099694 129.77747301 -41.17038111 127.6706337 -39.5 125.1875 C-31.18950574 112.08952799 -31.96854448 93.28906568 -34.61962891 78.55664062 C-36.28588181 71.54724909 -38.58165315 64.77955164 -41 58 C-41.7701176 55.70611051 -42.52628169 53.40803471 -43.28051758 51.10888672 C-43.88695256 49.27763786 -44.51853183 47.45476701 -45.15234375 45.6328125 C-46 43 -46 43 -46 41 C-44.35 41.66 -42.7 42.32 -41 43 C-25.90771434 30.28178175 -11.02731658 16.54097487 0 0 Z " fill="#52ADDE" transform="translate(391,130)"/>
<path d="M0 0 C8.43617071 4.88771356 14.05211376 10.91558207 17.0234375 20.28515625 C19.01584225 30.64190171 17.22155563 39.07514498 11.875 47.875 C6.24886264 55.95391153 -1.94198312 61.84387322 -9.5546875 67.94921875 C-11.82384235 69.82642867 -14.0158244 71.73040584 -16.1953125 73.70703125 C-16.81631836 74.26285889 -17.43732422 74.81868652 -18.07714844 75.39135742 C-19.29723732 76.4873559 -20.50672229 77.59530024 -21.70410156 78.71606445 C-24.09207227 80.8449369 -25.80171863 82.36213958 -29.046875 82.68359375 C-32.88214541 80.78382471 -35.50699902 77.95182882 -38.4375 74.875 C-39.06317871 74.23167725 -39.68885742 73.58835449 -40.33349609 72.92553711 C-44.56164903 68.55328024 -48.71015684 64.14682628 -52.5625 59.4375 C-53.23925781 58.61548096 -53.23925781 58.61548096 -53.9296875 57.77685547 C-55.52298722 55.83628516 -57.10671775 53.88827797 -58.6875 51.9375 C-59.19104004 51.32011963 -59.69458008 50.70273926 -60.21337891 50.06665039 C-62.77370365 46.87404776 -65.21186835 43.61798351 -67.4921875 40.21875 C-67.91483887 39.59033203 -68.33749023 38.96191406 -68.77294922 38.31445312 C-69.7822671 35.91506046 -69.50841913 34.82915648 -68.5625 32.4375 C-66.6640625 30.39453125 -66.6640625 30.39453125 -64.1875 28.25 C-63.27484375 27.45722656 -62.3621875 26.66445313 -61.421875 25.84765625 C-57.87078426 22.85445545 -54.30461002 19.88586844 -50.6875 16.97265625 C-48.30550988 15.05409138 -45.96199309 13.09419324 -43.625 11.12109375 C-42.22919157 9.95569933 -40.83335832 8.79033465 -39.4375 7.625 C-38.79280762 7.07360352 -38.14811523 6.52220703 -37.48388672 5.95410156 C-26.51128747 -3.1383535 -13.28186007 -6.22378619 0 0 Z " fill="#EBE2F3" transform="translate(300.5625,299.5625)"/>
<path d="M0 0 C6.12120677 3.59178249 11.12250897 8.7080754 16.18408203 13.62402344 C18.408083 15.76260941 20.68372306 17.841211 22.96289062 19.9206543 C28.75888116 25.2100916 34.38946069 30.63689001 39.875 36.25 C35.30046823 44.01466576 29.40945751 50.26775829 23.25683594 56.77099609 C21.47404403 58.6791504 19.76311316 60.64351634 18.0625 62.625 C11.93527191 69.66542073 5.25449959 75.53348623 -2.125 81.25 C-9.69099393 74.86093846 -16.85763965 68.079976 -24.02294922 61.24804688 C-25.91308527 59.45142975 -27.81643616 57.67012325 -29.72265625 55.890625 C-37.36746409 48.6585839 -43.02559069 42.40121267 -43.75708008 31.45776367 C-43.98148826 23.02416811 -42.25187706 16.14549173 -37.125 9.25 C-34.35872282 6.44296736 -31.46868561 4.31962609 -28.125 2.25 C-27.52171875 1.81816406 -26.9184375 1.38632813 -26.296875 0.94140625 C-18.85318281 -3.73517428 -7.89158895 -3.4428991 0 0 Z " fill="#F1E8F6" transform="translate(352.125,92.75)"/>
<path d="M0 0 C0.66 0 1.32 0 2 0 C2 0.66 2 1.32 2 2 C2.83144531 2.33837891 2.83144531 2.33837891 3.6796875 2.68359375 C6.68506155 4.38866286 8.72987003 6.57799951 11.125 9.0625 C14.24105765 12.46453483 14.24105765 12.46453483 18 15 C18 15.66 18 16.32 18 17 C18.66 17 19.32 17 20 17 C21.77061345 18.60964859 23.36963843 20.25234623 25 22 C26.10021484 23.12728516 26.10021484 23.12728516 27.22265625 24.27734375 C35.10123814 32.59148952 37.58856609 38.39118594 37.55664062 49.85375977 C37.22104421 57.85493753 34.49543024 64.3951364 28.87890625 70.1875 C22.4088899 75.56983596 14.56672283 79.22193582 6 79 C-7.28860673 77.12759714 -15.0111443 70.43173728 -24 61 C-25.66255315 59.32922995 -27.32961449 57.66293951 -29 56 C-30.03801031 54.96248954 -31.07575948 53.92471776 -32.11328125 52.88671875 C-32.63857422 52.36142578 -33.16386719 51.83613281 -33.70507812 51.29492188 C-36.13671875 48.86328125 -38.56835938 46.43164062 -41 44 C-37.94861272 40.89813021 -34.83533016 37.91740993 -31.59887695 35.00610352 C-21.09070416 25.51842208 -11.3894735 15.38763699 -3.06958008 3.91040039 C-2.0892739 2.57438013 -1.04991234 1.28204306 0 0 Z " fill="#A3A2F4" transform="translate(391,130)"/>
<path d="M0 0 C1.26121873 1.89182809 2.52059038 3.78489011 3.77734375 5.6796875 C11.40389238 16.96091133 19.99207569 27.14189808 29.515625 36.87890625 C31 39 31 39 30.9375 41.05078125 C29.82972984 43.35402003 28.56899043 44.82973553 26.75 46.625 C26.16734375 47.21539062 25.5846875 47.80578125 24.984375 48.4140625 C23 50 23 50 20.55859375 50.921875 C17.35086748 52.2735276 15.6860171 54.09063298 13.3125 56.625 C7.21560848 62.90388828 1.22356666 68.78725611 -7 72 C-8.82418584 73.28565281 -10.5287027 74.6597909 -12.25390625 76.07421875 C-14.55442362 77.29395615 -15.5766016 76.73841792 -18 76 C-18.99 76.495 -18.99 76.495 -20 77 C-24.47295905 75.98725456 -28.27296035 74.71057429 -32 72 C-32 71.34 -32 70.68 -32 70 C-32.598125 69.731875 -33.19625 69.46375 -33.8125 69.1875 C-37.99562069 66.91666306 -39.4970451 64.47742213 -41 60 C-42.06567498 49.44012978 -40.81492603 39.51102305 -33.984375 31.125 C-27.12449648 23.77898836 -19.36217045 17.37678107 -11.5546875 11.07421875 C-4.96067691 6.24388704 -4.96067691 6.24388704 0 0 Z " fill="#BAB5F7" transform="translate(230,333)"/>
<path d="M0 0 C1.1055189 0.93590504 2.20935453 1.87379858 3.3125 2.8125 C4.23482422 3.59560547 4.23482422 3.59560547 5.17578125 4.39453125 C6.85424679 5.87172469 8.43882034 7.40039131 10 9 C7.65624456 14.14933461 3.85575865 19.75518213 -1.4375 22.0625 C-2.283125 22.371875 -3.12875 22.68125 -4 23 C-6.15305869 24.7733526 -8.19512888 26.63214751 -10.23046875 28.5390625 C-12 30 -12 30 -14 30 C-14 30.66 -14 31.32 -14 32 C-23.85688586 40.53417875 -31.3912296 43.62633865 -44.3671875 43.35546875 C-49.25339445 42.87735603 -52.84194537 41.53860178 -57 39 C-58.0725 38.38125 -59.145 37.7625 -60.25 37.125 C-63.41377939 34.68026138 -65.56081466 32.15659279 -68 29 C-67.67 28.34 -67.34 27.68 -67 27 C-65 28.375 -65 28.375 -63 30 C-63 30.66 -63 31.32 -63 32 C-57.45444514 34.42618025 -52.0585719 36 -46 36 C-42.61689028 34.52970337 -39.61447847 32.61447847 -37 30 C-35.97261719 29.61972656 -34.94523437 29.23945313 -33.88671875 28.84765625 C-28.93872896 26.80874101 -25.56039242 23.15723924 -21.8125 19.4375 C-20.4272687 18.07785007 -19.03808236 16.72221514 -17.64453125 15.37109375 C-17.03971924 14.77224365 -16.43490723 14.17339355 -15.81176758 13.55639648 C-13.959122 11.96488381 -12.20183655 11.03123633 -10 10 C-8.59076564 8.89654291 -7.21597987 7.747967 -5.875 6.5625 C-5.19179687 5.96566406 -4.50859375 5.36882812 -3.8046875 4.75390625 C-1.80171822 2.9301723 -1.80171822 2.9301723 0 0 Z " fill="#3C3DB9" transform="translate(261,373)"/>
<path d="M0 0 C3.57393405 1.97182568 5.17927048 4.45618084 6.44921875 8.30859375 C8.48201887 18.24192197 8.0371658 27.5451964 2.90234375 36.4375 C-2.94201587 44.30998442 -10.48022687 47.71205294 -19.75 49.875 C-28.06107135 50.64242702 -36.19014946 47.64356624 -42.83203125 42.81640625 C-46.82310311 39.47253523 -50.42029686 35.77378343 -54 32 C-54.99667224 30.99668328 -55.99527195 29.99524949 -57 29 C-53.51645795 29 -53.11572947 29.45035158 -50.625 31.6875 C-50.01140625 32.23148438 -49.3978125 32.77546875 -48.765625 33.3359375 C-47.24459208 34.76947738 -45.80112313 36.28451094 -44.375 37.8125 C-41.64442615 40.32750223 -40.64400192 40.67608872 -37 41 C-36.23171875 41.13535156 -35.4634375 41.27070313 -34.671875 41.41015625 C-30.17553215 42.10345462 -27.80352118 42.42450175 -23.6875 40.25 C-22.800625 39.5075 -21.91375 38.765 -21 38 C-20.175 37.525625 -19.35 37.05125 -18.5 36.5625 C-13.40398593 33.3774912 -9.979388 30.18154434 -7 25 C-5.33333333 23.33333333 -3.66666667 21.66666667 -2 20 C-0.56637843 18.04842483 0.71083633 16.05311252 2 14 C1.34 14.33 0.68 14.66 0 15 C0.33 12.69 0.66 10.38 1 8 C0.67 8 0.34 8 0 8 C0 5.36 0 2.72 0 0 Z " fill="#6476F2" transform="translate(421,159)"/>
<path d="M0 0 C1.32 0.66 2.64 1.32 4 2 C3.48050781 2.51046875 2.96101563 3.0209375 2.42578125 3.546875 C-2.63674957 8.82463356 -5.50938174 13.71828789 -7.9921875 20.59375 C-9 23 -9 23 -11 24 C-11.54153772 25.68959769 -12.00400821 27.40450927 -12.4375 29.125 C-17.93754965 47.80868926 -28.43386447 65.3393567 -38.8125 81.6875 C-39.18584473 82.27668213 -39.55918945 82.86586426 -39.94384766 83.47290039 C-41.76307986 86.28680585 -43.63499376 88.6479527 -46 91 C-46.42925781 91.71800781 -46.85851562 92.43601562 -47.30078125 93.17578125 C-49.64477525 97.07166093 -52.41131079 100.59179498 -55.1875 104.1875 C-56.05761719 105.32251953 -56.05761719 105.32251953 -56.9453125 106.48046875 C-60.06759224 110.54151856 -63.24304968 114.54557657 -66.5 118.5 C-71.90315329 125.23966266 -75.70747284 131.22418507 -76 140 C-75.67364302 141.66804677 -75.34274406 143.33524314 -75 145 C-75.99 145.99 -75.99 145.99 -77 147 C-79.93362859 143.44408656 -80.9841056 141.95366412 -81.0625 137.25 C-79.2757682 127.73291838 -73.1036421 119.31920265 -66.84765625 112.19921875 C-63.94304097 108.74192826 -61.23489274 105.134657 -58.51513672 101.53100586 C-55.28990687 97.28358929 -55.28990687 97.28358929 -53.38671875 95.421875 C-51.50922732 93.4967852 -50.35065138 91.32217254 -49 89 C-47.69663023 87.03557822 -46.38362442 85.07752553 -45.0625 83.125 C-41.34853831 77.5779086 -37.89251226 72.02606721 -35 66 C-34.34 66 -33.68 66 -33 66 C-32.81824219 65.40832031 -32.63648438 64.81664063 -32.44921875 64.20703125 C-31.0304396 59.74697167 -29.47959424 55.98891247 -27 52 C-26.690625 51.01 -26.38125 50.02 -26.0625 49 C-24.88377893 45.6718464 -23.25986492 43.68358959 -21 41 C-19.66967314 38.7594495 -19.01258906 37.0629453 -18.5 34.5 C-17.99461277 31.97306384 -17.17645324 30.27673325 -16 28 C-15.36537212 26.62941711 -14.74078376 25.25415205 -14.125 23.875 C-13.77179688 23.08867188 -13.41859375 22.30234375 -13.0546875 21.4921875 C-12.36069316 19.85230457 -11.7180092 18.189594 -11.1328125 16.5078125 C-8.72830147 9.67729888 -5.08722851 5.11192379 0 0 Z " fill="#ABADF9" transform="translate(141,21)"/>
<path d="M0 0 C1.98 1.65 3.96 3.3 6 5 C3.41342253 8.87986621 0.68591584 10.41188982 -3.6875 11.9375 C-6.56287424 13.25861789 -6.64908012 14.21869437 -8 17 C-11.1379329 19.91379484 -14.26074244 22.1975028 -17.9375 24.375 C-20.89878636 26.15289352 -23.0994953 28.02424952 -25.4375 30.5625 C-31.98627945 37.42526203 -40.28215119 38.95104983 -49.4375 39.25 C-55.12160735 39.16527753 -59.57703857 38.42296143 -63.7578125 34.2421875 C-65.24155185 32.53761253 -66.64680826 30.8092124 -68 29 C-67.67 28.34 -67.34 27.68 -67 27 C-65 28.375 -65 28.375 -63 30 C-63 30.66 -63 31.32 -63 32 C-57.45444514 34.42618025 -52.0585719 36 -46 36 C-42.61689028 34.52970337 -39.61447847 32.61447847 -37 30 C-35.97261719 29.61972656 -34.94523437 29.23945313 -33.88671875 28.84765625 C-28.93872896 26.80874101 -25.56039242 23.15723924 -21.8125 19.4375 C-20.4272687 18.07785007 -19.03808236 16.72221514 -17.64453125 15.37109375 C-17.03971924 14.77224365 -16.43490723 14.17339355 -15.81176758 13.55639648 C-13.959122 11.96488381 -12.20183655 11.03123633 -10 10 C-8.59076564 8.89654291 -7.21597987 7.747967 -5.875 6.5625 C-5.19179687 5.96566406 -4.50859375 5.36882812 -3.8046875 4.75390625 C-1.80171822 2.9301723 -1.80171822 2.9301723 0 0 Z " fill="#7F79E1" transform="translate(261,373)"/>
<path d="M0 0 C0.99 0.33 1.98 0.66 3 1 C4.02734375 3.46508789 4.02734375 3.46508789 4.9375 6.72265625 C5.27523437 7.90150391 5.61296875 9.08035156 5.9609375 10.29492188 C6.30382812 11.53822266 6.64671875 12.78152344 7 14.0625 C7.68484381 16.49163584 8.37228295 18.9200417 9.0625 21.34765625 C9.55363281 23.07846436 9.55363281 23.07846436 10.0546875 24.84423828 C10.84076401 27.46841827 11.69928657 30.00590893 12.6875 32.55859375 C18.44382582 47.65181712 16.59907573 68.32875445 10.17041016 82.87744141 C6.24289522 91.53500414 1.52154878 99.71800596 -3.4453125 107.8125 C-6.55199228 112.87671139 -9.54999606 118.00443503 -12.5625 123.125 C-14.2061802 125.9066859 -15.85192673 128.68713276 -17.49902344 131.46679688 C-18.44367305 133.06108517 -19.38719579 134.65604224 -20.32910156 136.25195312 C-21.44092533 138.13101606 -22.56202113 140.00409488 -23.6875 141.875 C-24.28949219 142.88304687 -24.89148438 143.89109375 -25.51171875 144.9296875 C-26.00285156 145.61289062 -26.49398438 146.29609375 -27 147 C-27.66 147 -28.32 147 -29 147 C-29.50626158 142.84865507 -29.15659761 141.23713353 -26.8125 137.6875 C-26.131875 136.81931641 -26.131875 136.81931641 -25.4375 135.93359375 C-23.35085832 133.12683388 -21.76447929 130.09212428 -20.11328125 127.015625 C-17.42042755 122.14014252 -17.42042755 122.14014252 -14 121 C-12.7436635 118.98285268 -12.7436635 118.98285268 -11.6875 116.5 C-9.59059401 112.0724967 -7.17946161 108.12449014 -4.4140625 104.08984375 C-1.70781731 100.09028249 0.56982765 96.02867301 2.4375 91.5625 C3.65900306 88.77747301 4.82961889 86.6706337 6.5 84.1875 C14.81049426 71.08952799 14.03145552 52.28906568 11.38037109 37.55664062 C9.71411819 30.54724909 7.41834685 23.77955164 5 17 C4.2298824 14.70611051 3.47371831 12.40803471 2.71948242 10.10888672 C2.11304744 8.27763786 1.48146817 6.45476701 0.84765625 4.6328125 C0 2 0 2 0 0 Z " fill="#465EDF" transform="translate(345,171)"/>
<path d="M0 0 C0 3.69398544 -1.1326011 5.59694911 -2.8125 8.875 C-3.33457031 9.90367187 -3.85664063 10.93234375 -4.39453125 11.9921875 C-4.92433594 12.98476562 -5.45414063 13.97734375 -6 15 C-6.35964844 15.87696533 -6.71929687 16.75393066 -7.08984375 17.6574707 C-9 20 -9 20 -12.64526367 20.56762695 C-14.15306381 20.56683665 -15.66101019 20.5386577 -17.16796875 20.48828125 C-18.36018791 20.47766914 -18.36018791 20.47766914 -19.57649231 20.46684265 C-22.11445361 20.43885874 -24.65020607 20.3761184 -27.1875 20.3125 C-28.90817125 20.28742205 -30.6288771 20.26460799 -32.34960938 20.24414062 C-36.56725697 20.18901967 -40.78325407 20.10272412 -45 20 C-41.61676043 18.25740862 -38.23684376 17.02333549 -34.625 15.8125 C-28.30480951 13.58569713 -22.44876403 10.85937021 -16.48828125 7.78125 C-11.0711015 5.01503055 -5.53924981 2.51198538 0 0 Z " fill="#2C3BE1" transform="translate(221,214)"/>
<path d="M0 0 C12.81885084 0.86077154 25.47696366 1.81681288 38.09765625 4.26953125 C44.36401253 5.44251286 50.67426859 6.21734036 57 7 C55.08835436 11.30120268 52.73448667 13.199135 49 16 C48.34 16 47.68 16 47 16 C47 15.01 47 14.02 47 13 C46.01 13.33 45.02 13.66 44 14 C41.63671875 13.6171875 41.63671875 13.6171875 38.6875 12.875 C37.553125 12.59785156 36.41875 12.32070313 35.25 12.03515625 C34.59644531 11.87418457 33.94289062 11.71321289 33.26953125 11.54736328 C28.58740663 10.41813314 23.8853621 9.373929 19.1875 8.3125 C17.24344806 7.87127668 15.29943447 7.42988431 13.35546875 6.98828125 C11.90365274 6.65882372 10.4518326 6.3293844 9 6 C9 5.34 9 4.68 9 4 C8.071875 3.896875 7.14375 3.79375 6.1875 3.6875 C2.85034764 2.96772204 2.16813468 2.42857128 0 0 Z " fill="#6D6DF1" transform="translate(164,334)"/>
<path d="M0 0 C0.66 0.33 1.32 0.66 2 1 C-3.81560515 7.04267867 -9.70792954 12.50877239 -16.29296875 17.703125 C-19.0554204 20.04702337 -21.38535254 22.56464537 -23.8125 25.25 C-30.81196656 32.37148579 -39.55170132 35.20241843 -49.4375 35.4375 C-53.91231065 35.2398176 -57.79695013 34.52838177 -62 33 C-59.45897535 31.72948768 -57.7722451 31.97079939 -54.9375 32.0625 C-45.16357343 32.11353878 -37.34451985 30.15202655 -30.15625 23.22265625 C-28.98977021 22.01268928 -27.82686176 20.7992667 -26.66796875 19.58203125 C-23.93806802 16.99278114 -20.82707981 15 -17 15 C-16.67 14.01 -16.34 13.02 -16 12 C-14.546875 10.53515625 -14.546875 10.53515625 -12.75 9.0625 C-12.11964844 8.54300781 -11.48929688 8.02351563 -10.83984375 7.48828125 C-9.92912109 6.75158203 -9.92912109 6.75158203 -9 6 C-8.113125 5.2575 -7.22625 4.515 -6.3125 3.75 C-4.24090259 2.18230466 -2.42744005 0.92075312 0 0 Z " fill="#5A5BD6" transform="translate(266,379)"/>
<path d="M0 0 C0.33 0 0.66 0 1 0 C0.72782159 8.43753069 -1.77919092 14.85751521 -7.89453125 20.859375 C-14.23605951 25.91258489 -21.79418255 29.05924778 -30 29 C-33.38302671 28.51532569 -36.68390926 27.82222742 -40 27 C-40 26.67 -40 26.34 -40 26 C-36.04 26 -32.08 26 -28 26 C-28 25.34 -28 24.68 -28 24 C-26.38931641 23.29037109 -26.38931641 23.29037109 -24.74609375 22.56640625 C-14.08993777 17.69792512 -14.08993777 17.69792512 -6.359375 9.078125 C-5 7 -5 7 -2.890625 4.921875 C-0.77247742 3.05054466 -0.77247742 3.05054466 0 0 Z " fill="#4C56DC" transform="translate(427,180)"/>
<path d="M0 0 C1 3 1 3 -0.44140625 5.96875 C-1.13823871 7.15189956 -1.84577341 8.32879491 -2.5625 9.5 C-3.2527992 10.65535682 -3.94155158 11.81163897 -4.62890625 12.96875 C-5.19037354 13.90968506 -5.19037354 13.90968506 -5.76318359 14.86962891 C-7.18727309 17.32257106 -8.53810683 19.80946813 -9.88671875 22.3046875 C-12.87958979 27.82402041 -16.03663485 33.23178249 -19.25 38.625 C-20.38426961 40.53636635 -21.51838217 42.4478259 -22.65234375 44.359375 C-23.21163574 45.30103516 -23.77092773 46.24269531 -24.34716797 47.21289062 C-26.84640177 51.42725593 -29.33032079 55.65057431 -31.8125 59.875 C-32.23885742 60.60025879 -32.66521484 61.32551758 -33.10449219 62.07275391 C-34.0698777 63.71504217 -35.03497627 65.35749912 -36 67 C-36.33 66.34 -36.66 65.68 -37 65 C-38.98 65.495 -38.98 65.495 -41 66 C-40.47212891 65.30777344 -40.47212891 65.30777344 -39.93359375 64.6015625 C-38.27544234 62.41089771 -36.63467407 60.20824392 -35 58 C-34.4121875 57.2059375 -33.824375 56.411875 -33.21875 55.59375 C-29.72071215 50.74559227 -26.83018425 45.9140654 -24.25390625 40.5234375 C-21.74250524 35.46934075 -18.89302748 30.46667217 -15.453125 25.984375 C-13.94926572 23.93071771 -12.93898443 21.93424027 -11.875 19.625 C-8.51319542 12.71519858 -4.23148885 6.39793739 0 0 Z " fill="#3A90C9" transform="translate(365,270)"/>
<path d="M0 0 C4.95519194 0.46094809 7.44212774 1.51817387 11 5 C12.69253342 7.82226844 13.9672403 10.78580983 15.25 13.8125 C15.62697021 14.67746094 16.00394043 15.54242188 16.39233398 16.43359375 C19.39809169 23.40749801 22.25597451 30.44386548 25.0625 37.5 C25.45663086 38.48460205 25.85076172 39.4692041 26.25683594 40.48364258 C26.61680664 41.40685303 26.97677734 42.33006348 27.34765625 43.28125 C27.66742432 44.09658203 27.98719238 44.91191406 28.31665039 45.75195312 C29 48 29 48 29 52 C26.39061877 51.01947276 25.23765234 50.52165182 24.05859375 47.93359375 C23.85363281 47.10988281 23.64867187 46.28617188 23.4375 45.4375 C22.3062091 41.15475588 21.00720079 36.99503816 19.55078125 32.8125 C19 31 19 31 19 29 C18.34 29 17.68 29 17 29 C16.5875 27.845 16.175 26.69 15.75 25.5 C14.37019497 21.776507 12.68610697 18.33361712 10.76953125 14.859375 C10 13 10 13 10 9 C9.34 9 8.68 9 8 9 C6.31183067 7.35511706 4.64646685 5.68662458 3 4 C2.01 3.34 1.02 2.68 0 2 C0 1.34 0 0.68 0 0 Z " fill="#638BF1" transform="translate(293,45)"/>
<path d="M0 0 C1.46067199 0.45082469 2.91848032 0.91093537 4.375 1.375 C5.18710938 1.63023437 5.99921875 1.88546875 6.8359375 2.1484375 C9 3 9 3 11 5 C17.70567629 7.89563294 24.57758459 8.44933769 31.80078125 8.7890625 C35 9 35 9 37.66796875 9.5859375 C39.96541051 10.15923029 39.96541051 10.15923029 42.0546875 9.4765625 C44.5628272 8.86211864 45.75011851 9.41978936 48.125 10.375 C53.08216111 12.1628286 57.77468198 12.61746114 63 13 C64.70913538 13.18004245 66.41754843 13.36713328 68.125 13.5625 C69.40375 13.706875 70.6825 13.85125 72 14 C70.9140625 15.5390625 70.9140625 15.5390625 69 17 C66.0234375 16.9609375 66.0234375 16.9609375 62.375 16.375 C61.7162085 16.27453369 61.05741699 16.17406738 60.37866211 16.07055664 C56.83838609 15.51773948 53.31533555 14.87895209 49.79296875 14.22265625 C48.3829049 13.96044014 46.97274812 13.69872324 45.5625 13.4375 C44.50663696 13.24124023 44.50663696 13.24124023 43.42944336 13.04101562 C37.12270457 11.91879451 30.8767738 11.49310713 24.484375 11.18359375 C20.61122435 10.97951518 16.83953557 10.52699508 13 10 C12.01 10 11.02 10 10 10 C4.42984014 7.8401421 4.42984014 7.8401421 2.625 4.3125 C2.41875 3.549375 2.2125 2.78625 2 2 C1.34 2 0.68 2 0 2 C0 1.34 0 0.68 0 0 Z " fill="#7F80F5" transform="translate(152,325)"/>
<path d="M0 0 C1 3 1 3 0.0625 5.6875 C-2.70611778 10.13406795 -6.16702673 13.46245352 -10 17 C-10.825 17.763125 -11.65 18.52625 -12.5 19.3125 C-15.83528397 21.56381668 -19.20303142 22.671061 -23 24 C-23.33 24.33 -23.66 24.66 -24 25 C-30.44220642 25.52168527 -36.65241582 25.62927664 -41.9296875 21.484375 C-43.31691285 20.28036809 -44.68553008 19.05460179 -46.03515625 17.80859375 C-47.78277192 16.19995348 -49.57402996 14.72021977 -51.4375 13.25 C-54 11 -54 11 -55 8 C-49.956277 10.13388281 -46.11964393 13.79843091 -42.4375 17.75 C-39.66314349 20.31094447 -38.69664021 20.67140976 -35 21 C-34.23171875 21.13535156 -33.4634375 21.27070313 -32.671875 21.41015625 C-28.17553215 22.10345462 -25.80352118 22.42450175 -21.6875 20.25 C-20.800625 19.5075 -19.91375 18.765 -19 18 C-18.175 17.525625 -17.35 17.05125 -16.5 16.5625 C-11.40398593 13.3774912 -7.979388 10.18154434 -5 5 C-3.37163262 3.2958946 -1.71230248 1.61974559 0 0 Z " fill="#8783E8" transform="translate(419,179)"/>
<path d="M0 0 C0.845625 0.28875 1.69125 0.5775 2.5625 0.875 C6.67484584 2.22085864 10.12448642 2.11083587 14.4140625 1.97265625 C16.80874133 1.99797763 18.71928523 2.30936102 21 3 C21 3.99 21 4.98 21 6 C10.35153185 8.45413915 -3.31532532 9.30131455 -14 7 C-15.8515625 5.453125 -15.8515625 5.453125 -17 4 C-16.10796875 3.87882812 -15.2159375 3.75765625 -14.296875 3.6328125 C-12.54117188 3.38144531 -12.54117188 3.38144531 -10.75 3.125 C-9.58984375 2.96257812 -8.4296875 2.80015625 -7.234375 2.6328125 C-4.38578063 2.07547882 -2.54220817 1.27967333 0 0 Z " fill="#6C74EE" transform="translate(259,263)"/>
<path d="M0 0 C1.32 0.66 2.64 1.32 4 2 C4 2.99 4 3.98 4 5 C1.17832526 7.16547131 -1.40227755 8.78264638 -4.75 10 C-7.58748378 11.2611039 -7.671744 12.2653553 -9 15 C-12.1379329 17.91379484 -15.26074244 20.1975028 -18.9375 22.375 C-21.97744093 24.19664399 -24.26291531 26.16729023 -26.6875 28.75 C-29.30239304 31.51482957 -31.03130706 32.87973658 -35 33 C-35 32.34 -35 31.68 -35 31 C-32.97096601 29.29477963 -30.9395749 27.69908132 -28.8125 26.125 C-27.65202578 25.25302718 -26.49186524 24.38063672 -25.33203125 23.5078125 C-24.76822754 23.08790039 -24.20442383 22.66798828 -23.62353516 22.23535156 C-22.11784289 21.08966692 -20.65619295 19.88672052 -19.19921875 18.6796875 C-17 17 -17 17 -15 17 C-14.7525 16.360625 -14.505 15.72125 -14.25 15.0625 C-12.67012061 12.455699 -11.83219689 12.70804922 -9 12 C-7.93283296 10.20067421 -7.93283296 10.20067421 -7 8 C-4.8346504 5.13615053 -2.6034972 2.47332234 0 0 Z " fill="#6A69DD" transform="translate(262,375)"/>
<path d="M0 0 C0.495 0.99 0.495 0.99 1 2 C-1.09939382 7.773333 -2.64072423 10.76476135 -8.06640625 13.60546875 C-9.22011719 14.12753906 -10.37382812 14.64960938 -11.5625 15.1875 C-13.29693359 15.98220703 -13.29693359 15.98220703 -15.06640625 16.79296875 C-18 18 -18 18 -20 18 C-20 18.66 -20 19.32 -20 20 C-22.24940295 20.08119503 -24.49964871 20.13927819 -26.75 20.1875 C-28.00296875 20.22230469 -29.2559375 20.25710937 -30.546875 20.29296875 C-34.14109357 19.98802939 -35.44725126 19.45605371 -38 17 C-37.04738281 17.03480469 -36.09476562 17.06960937 -35.11328125 17.10546875 C-33.23189453 17.14607422 -33.23189453 17.14607422 -31.3125 17.1875 C-30.07113281 17.22230469 -28.82976562 17.25710937 -27.55078125 17.29296875 C-23.75750136 16.97999186 -22.09212481 16.10436272 -19 14 C-15.6875 13.3125 -15.6875 13.3125 -13 13 C-12.67 12.01 -12.34 11.02 -12 10 C-10.29296875 8.28125 -10.29296875 8.28125 -8.1875 6.5 C-7.50042969 5.9121875 -6.81335938 5.324375 -6.10546875 4.71875 C-4.10841956 3.08850576 -2.0749438 1.52939678 0 0 Z " fill="#6F6EE0" transform="translate(419,186)"/>
<path d="M0 0 C0.84046875 0.06123047 1.6809375 0.12246094 2.546875 0.18554688 C4.61570599 0.33835825 6.68305508 0.51100162 8.75 0.6875 C2.63270029 5.83811531 -6.46250049 8.96759869 -14.4375 9.125 C-18.25 8.6875 -18.25 8.6875 -21.25 6.6875 C-20.71890625 6.43355469 -20.1878125 6.17960938 -19.640625 5.91796875 C-18.93421875 5.57378906 -18.2278125 5.22960937 -17.5 4.875 C-16.80390625 4.53855469 -16.1078125 4.20210937 -15.390625 3.85546875 C-13.19411797 2.78343401 -13.19411797 2.78343401 -11.5625 1.03125 C-7.84532547 -1.1287298 -4.17711461 -0.3687609 0 0 Z " fill="#ADA4F1" transform="translate(189.25,224.3125)"/>
<path d="M0 0 C0.99 0.33 1.98 0.66 3 1 C4.02734375 3.46508789 4.02734375 3.46508789 4.9375 6.72265625 C5.27523438 7.90150391 5.61296875 9.08035156 5.9609375 10.29492188 C6.30382812 11.53822266 6.64671875 12.78152344 7 14.0625 C7.68484381 16.49163584 8.37228295 18.9200417 9.0625 21.34765625 C9.38992188 22.50152832 9.71734375 23.65540039 10.0546875 24.84423828 C10.84076401 27.46841827 11.69928657 30.00590893 12.6875 32.55859375 C14.56052583 37.46971208 15.13118537 41.49648183 14.87890625 46.73828125 C14.83056641 47.80498047 14.78222656 48.87167969 14.73242188 49.97070312 C14.67634766 51.07349609 14.62027344 52.17628906 14.5625 53.3125 C14.51029297 54.43462891 14.45808594 55.55675781 14.40429688 56.71289062 C14.2749801 59.47556709 14.14002857 62.23784918 14 65 C13.67 65 13.34 65 13 65 C13.00636475 64.39865234 13.01272949 63.79730469 13.01928711 63.17773438 C13.07072087 46.68152405 10.2929205 32.57126531 5 17 C4.47396358 15.41058487 3.94912529 13.82077243 3.42578125 12.23046875 C2.58684591 9.68951862 1.72696429 7.1604697 0.84765625 4.6328125 C0 2 0 2 0 0 Z " fill="#627AF1" transform="translate(345,171)"/>
<path d="M0 0 C6.61223604 0.95099842 12.80024654 2.12806648 19.0859375 4.40234375 C21.44406181 5.13865603 23.54715174 5.23737241 26 5 C26 5.66 26 6.32 26 7 C28.97 6.34 31.94 5.68 35 5 C34.34 7.31 33.68 9.62 33 12 C32.505 11.01 32.505 11.01 32 10 C29.76451922 9.59653756 27.50867042 9.3045004 25.25 9.0625 C6.84788253 6.89858836 6.84788253 6.89858836 1 3 C0.67 2.01 0.34 1.02 0 0 Z " fill="#4D9DC7" transform="translate(158,363)"/>
<path d="M0 0 C0 3.70255827 -1.12226303 5.74659028 -2.75 9.0625 C-3.26046875 10.12597656 -3.7709375 11.18945312 -4.296875 12.28515625 C-6.03338055 15.05320983 -6.97189452 15.94016308 -10 17 C-13 11.375 -13 11.375 -13 8 C-13.66 7.67 -14.32 7.34 -15 7 C-10.05 4.69 -5.1 2.38 0 0 Z " fill="#8D8DE9" transform="translate(221,214)"/>
<path d="M0 0 C0.66 0.66 1.32 1.32 2 2 C0.9171875 3.0209375 0.9171875 3.0209375 -0.1875 4.0625 C-2.25428818 6.10600042 -3.88547766 8.21090469 -5.5 10.625 C-7.62670262 13.71171885 -9.67342932 15.20876963 -13 17 C-14.35500919 18.31129922 -15.68671343 19.64691687 -17 21 C-21.29522494 25.00887661 -24.38672526 26.76507956 -30 28 C-26.12577097 23.03614405 -21.8127101 19.04532916 -17 15 C-16.17242187 14.28263672 -16.17242187 14.28263672 -15.328125 13.55078125 C-13.13500367 11.66854052 -11.03700316 10.02035174 -8.5 8.625 C-4.97419507 6.3332268 -2.60443251 3.26672807 0 0 Z " fill="#7A77E4" transform="translate(261,373)"/>
<path d="M0 0 C2.7850528 0.39786469 4.77382084 0.85860313 7.17602539 2.36035156 C19.60449263 9.57653432 35.12787891 11.6962752 49.0625 14.25 C51.78565721 14.75374435 54.50790545 15.26118152 57.2283783 15.77923584 C58.90055204 16.09734214 60.57433315 16.40714047 62.24977112 16.70758057 C64.18002028 17.07314309 66.09298262 17.52800156 68 18 C68.495 18.99 68.495 18.99 69 20 C63.6512022 19.37568179 58.37641796 18.57938722 53.08984375 17.546875 C52.35987686 17.404776 51.62990997 17.262677 50.87782288 17.11627197 C49.34051045 16.81531018 47.80352078 16.51269537 46.2668457 16.20849609 C43.96926305 15.75625207 41.66936381 15.31749036 39.36914062 14.87890625 C25.35863997 12.14731105 12.32904967 8.45894689 0 1 C0 0.67 0 0.34 0 0 Z " fill="#2B7BA6" transform="translate(115,366)"/>
<path d="M0 0 C1.68814237 0.11600255 3.37550887 0.24331025 5.0625 0.375 C6.00222656 0.44460938 6.94195312 0.51421875 7.91015625 0.5859375 C10.71522358 0.9618378 13.21033111 1.66617219 15.90942383 2.48291016 C21.47369973 3.85919608 27.30344095 4.21933083 32.99023438 4.85546875 C33.98990234 4.97535156 34.98957031 5.09523438 36.01953125 5.21875 C37.38235229 5.3724707 37.38235229 5.3724707 38.77270508 5.52929688 C41 6 41 6 43 8 C42.34 8.66 41.68 9.32 41 10 C38.44213867 9.84790039 38.44213867 9.84790039 35.23046875 9.28515625 C34.0604834 9.08422363 32.89049805 8.88329102 31.68505859 8.67626953 C30.46898926 8.45310059 29.25291992 8.22993164 28 8 C26.8548291 7.79358887 25.7096582 7.58717773 24.52978516 7.37451172 C21.12021767 6.74736961 17.71607783 6.09632006 14.3125 5.4375 C13.14783203 5.21642578 11.98316406 4.99535156 10.78320312 4.76757812 C9.67525391 4.55423828 8.56730469 4.34089844 7.42578125 4.12109375 C6.42973877 3.9295874 5.43369629 3.73808105 4.4074707 3.54077148 C2 3 2 3 0 2 C0 1.34 0 0.68 0 0 Z " fill="#334CE7" transform="translate(175,337)"/>
<path d="M0 0 C0.33 0 0.66 0 1 0 C2.03343691 13.6260571 2.03343691 13.6260571 -1.8125 18.6875 C-2.83632912 19.82761588 -3.89785769 20.93540026 -5 22 C-5.56074219 22.56332031 -6.12148437 23.12664062 -6.69921875 23.70703125 C-7.12847656 24.13371094 -7.55773437 24.56039062 -8 25 C-10.08734796 21.56201513 -10.08734796 21.56201513 -9.703125 19.08984375 C-8.95601638 16.8692709 -7.99896744 15.24924912 -6.6875 13.3125 C-3.94240921 9.07516508 -1.92913908 4.65579933 0 0 Z " fill="#D6C6F0" transform="translate(222,213)"/>
<path d="M0 0 C0 0.99 0 1.98 0 3 C-11.88 3 -23.76 3 -36 3 C-32.7167129 1.35835645 -30.54553576 0.47912645 -27 0 C-26.67 0.33 -26.34 0.66 -26 1 C-24.40757243 0.76295925 -22.82529392 0.4573597 -21.25 0.125 C-3.30816832 -3.30816832 -3.30816832 -3.30816832 0 0 Z " fill="#4E58E8" transform="translate(212,231)"/>
<path d="M0 0 C0.82218018 0.05760498 1.64436035 0.11520996 2.49145508 0.17456055 C3.83046875 0.25673828 3.83046875 0.25673828 5.1965332 0.34057617 C6.5896875 0.44982422 6.5896875 0.44982422 8.01098633 0.5612793 C8.95135742 0.62250977 9.89172852 0.68374023 10.8605957 0.74682617 C13.1828959 0.90007441 15.50320091 1.0679079 17.82348633 1.2487793 C15.29895439 3.77331123 14.31717785 3.49475092 10.82348633 3.6237793 C5.69016091 3.97942145 1.86002064 5.32558729 -2.80541992 7.39331055 C-6.39558637 8.68860948 -9.39747815 8.52870785 -13.17651367 8.2487793 C-13.17651367 7.5887793 -13.17651367 6.9287793 -13.17651367 6.2487793 C-10.17651367 4.2487793 -10.17651367 4.2487793 -7.67651367 3.8112793 C-5.1273157 3.49255048 -5.1273157 3.49255048 -3.81201172 1.71826172 C-2.17651367 0.2487793 -2.17651367 0.2487793 0 0 Z " fill="#C4B5F2" transform="translate(249.176513671875,257.751220703125)"/>
<path d="M0 0 C0.33 0 0.66 0 1 0 C1.94959023 22.0392588 1.94959023 22.0392588 -1.1875 32.5625 C-1.3836792 33.23273193 -1.5798584 33.90296387 -1.78198242 34.59350586 C-3.35971139 39.33274931 -5.68431617 42.38339697 -9 46 C-9.75 44.375 -9.75 44.375 -10 42 C-9.08541016 40.69289063 -9.08541016 40.69289063 -8.15234375 39.359375 C-5.70383742 35.53774987 -4.77461997 32.25122502 -3.8125 27.875 C-3.64814453 27.17246094 -3.48378906 26.46992188 -3.31445312 25.74609375 C-2.86775452 23.83270456 -2.43333944 21.91645891 -2 20 C-1.82436523 19.34435059 -1.64873047 18.68870117 -1.46777344 18.01318359 C-0.68469614 14.64300856 -0.62313897 11.19497232 -0.4375 7.75 C-0.39431641 7.00492188 -0.35113281 6.25984375 -0.30664062 5.4921875 C-0.20103275 3.661651 -0.10005799 1.83084824 0 0 Z " fill="#469FD9" transform="translate(372,228)"/>
<path d="M0 0 C0.66 0.33 1.32 0.66 2 1 C-4.51850498 7.0862132 -11.08750315 13.01124706 -18.05859375 18.58203125 C-20.31135029 20.43389884 -22.49179256 22.31497252 -24.66015625 24.26171875 C-25.28680176 24.81867432 -25.91344727 25.37562988 -26.55908203 25.94946289 C-27.79189287 27.04912247 -29.01590807 28.1587394 -30.22998047 29.27905273 C-31.93359375 30.7890625 -31.93359375 30.7890625 -35 33 C-37.19165039 32.63818359 -37.19165039 32.63818359 -39 32 C-38.195625 31.505 -37.39125 31.01 -36.5625 30.5 C-32.67139128 27.93688304 -29.35415457 24.77904201 -25.953125 21.609375 C-24 20 -24 20 -22 20 C-21.67 19.01 -21.34 18.02 -21 17 C-19.0390625 15.2109375 -19.0390625 15.2109375 -16.625 13.375 C-15.83351563 12.76398438 -15.04203125 12.15296875 -14.2265625 11.5234375 C-12 10 -12 10 -9 9 C-9 8.34 -9 7.68 -9 7 C-7.03125 5.2734375 -7.03125 5.2734375 -4.5 3.375 C-3.6646875 2.74335938 -2.829375 2.11171875 -1.96875 1.4609375 C-1.3190625 0.97882813 -0.669375 0.49671875 0 0 Z " fill="#C1B2DF" transform="translate(309,349)"/>
<path d="M0 0 C1.35472561 2.70945121 0.75689959 4.57704421 0.00390625 7.42578125 C-1.32221762 10.82623118 -3.10495102 13.89404899 -5 17 C-5.35634521 17.58821533 -5.71269043 18.17643066 -6.07983398 18.7824707 C-6.99285548 20.22824803 -7.99026584 21.62002998 -9 23 C-9.66 23 -10.32 23 -11 23 C-11.50626158 18.84865507 -11.15659761 17.23713353 -8.8125 13.6875 C-8.36003906 13.11128906 -7.90757812 12.53507812 -7.44140625 11.94140625 C-5.31227534 9.07371502 -3.69911194 5.96353178 -2.015625 2.8203125 C-1 1 -1 1 0 0 Z " fill="#495EE1" transform="translate(327,295)"/>
<path d="M0 0 C13.86 0.33 27.72 0.66 42 1 C41.67 1.99 41.34 2.98 41 4 C37.95613276 4.08226668 35.92824652 3.97608217 33 3 C31.88625 3.350625 30.7725 3.70125 29.625 4.0625 C25.44165946 5.14439842 24.82030714 4.53605821 21 3 C18.17718175 2.83327199 18.17718175 2.83327199 15.25 3 C9.80906599 3.10774127 5.24734984 2.39929329 0 1 C0 0.67 0 0.34 0 0 Z " fill="#7072ED" transform="translate(171,233)"/>
<path d="M0 0 C2.70968948 4.06453422 4.31353763 8.41524501 6.125 12.9375 C6.49753906 13.84435547 6.87007813 14.75121094 7.25390625 15.68554688 C7.60582031 16.56146484 7.95773437 17.43738281 8.3203125 18.33984375 C8.64273926 19.13769287 8.96516602 19.93554199 9.29736328 20.75756836 C10 23 10 23 10 27 C7.39061877 26.01947276 6.23765234 25.52165182 5.05859375 22.93359375 C4.85363281 22.10988281 4.64867187 21.28617188 4.4375 20.4375 C3.52718253 16.97129115 2.53638105 13.61853242 1.3125 10.25 C0.1122239 6.73044041 -0.28834726 3.74851437 0 0 Z " fill="#5B8DEE" transform="translate(312,70)"/>
<path d="M0 0 C0.66 0.33 1.32 0.66 2 1 C-20.65449914 24.21007071 -20.65449914 24.21007071 -29 28 C-21.91574304 19.1446788 -13.19461301 11.81257033 -4.62109375 4.4375 C-3.0163427 3.01449184 -1.5002349 1.53215479 0 0 Z M-30 28 C-29.67 28.66 -29.34 29.32 -29 30 C-30.32 29.67 -31.64 29.34 -33 29 C-32.01 28.67 -31.02 28.34 -30 28 Z " fill="#4144C6" transform="translate(267,380)"/>
<path d="M0 0 C0.66 0.33 1.32 0.66 2 1 C-3.52893625 9.1732101 -11.14090293 12.47575621 -20.49609375 14.5546875 C-23 15 -23 15 -25 15 C-25 14.34 -25 13.68 -25 13 C-23.02 12.67 -21.04 12.34 -19 12 C-19 11.34 -19 10.68 -19 10 C-16.70967689 9.16280617 -14.41789043 8.3301071 -12.125 7.5 C-11.14853516 7.14228516 -11.14853516 7.14228516 -10.15234375 6.77734375 C-5.2265625 5 -5.2265625 5 -3 5 C-2.87625 4.360625 -2.7525 3.72125 -2.625 3.0625 C-2.315625 2.0415625 -2.315625 2.0415625 -2 1 C-1.34 0.67 -0.68 0.34 0 0 Z " fill="#393DBC" transform="translate(422,194)"/>
<path d="M0 0 C0.33 0 0.66 0 1 0 C1.57142857 9.71428571 1.57142857 9.71428571 -2 14 C-3.93676758 15.77906641 -5.91982544 17.38208646 -8 19 C-6.82692244 12.2814649 -5.00774736 5.00774736 0 0 Z " fill="#5A68EA" transform="translate(427,171)"/>
<path d="M0 0 C0.33 0.66 0.66 1.32 1 2 C-1.60542712 8.07932995 -5.36384075 13.64200579 -9.125 19.0625 C-11.16315077 22.25560287 -12.51786955 25.52021546 -14 29 C-15.5625 31.4375 -15.5625 31.4375 -17 33 C-17.66 33 -18.32 33 -19 33 C-18.731875 32.484375 -18.46375 31.96875 -18.1875 31.4375 C-17.28050895 29.57578152 -16.46297568 27.67022549 -15.6875 25.75 C-14.23805229 22.33655065 -12.41303628 19.30658475 -10.3984375 16.19921875 C-8.26037017 12.83683912 -6.3070285 9.36640349 -4.33203125 5.90625 C-3.89246094 5.2771875 -3.45289063 4.648125 -3 4 C-2.34 4 -1.68 4 -1 4 C-0.67 2.68 -0.34 1.36 0 0 Z " fill="#4BA2D7" transform="translate(352,289)"/>
<path d="M0 0 C0.33 0.99 0.66 1.98 1 3 C-0.91282125 3.84212256 -2.83042473 4.67338864 -4.75 5.5 C-6.35101563 6.19609375 -6.35101563 6.19609375 -7.984375 6.90625 C-11 8 -11 8 -15 8 C-15 8.66 -15 9.32 -15 10 C-20.55139349 12.48351814 -25.16524985 11.85330338 -31 11 C-31 10.67 -31 10.34 -31 10 C-27.04 10 -23.08 10 -19 10 C-19 9.34 -19 8.68 -19 8 C-17.11076602 6.98758753 -15.21330056 5.99052575 -13.3125 5 C-12.25675781 4.443125 -11.20101563 3.88625 -10.11328125 3.3125 C-7.03024256 2.01274968 -5.26696407 1.90845635 -2 2 C-1.34 1.34 -0.68 0.68 0 0 Z " fill="#4D4BC3" transform="translate(418,196)"/>
<path d="M0 0 C0.33 0 0.66 0 1 0 C1.70322789 16.13517336 -1.12732122 28.67172462 -9 43 C-9.99 43 -10.98 43 -12 43 C-10.9123423 39.83590488 -9.54333497 37.32837667 -7.625 34.625 C-1.14733892 24.41022675 -0.3339026 11.77006656 0 0 Z " fill="#4964E5" transform="translate(359,221)"/>
<path d="M0 0 C0.66 0.33 1.32 0.66 2 1 C0.01825598 3.14487538 -1.98260601 5.26408443 -4 7.375 C-4.55300781 7.97828125 -5.10601562 8.5815625 -5.67578125 9.203125 C-9.8783441 13.55060381 -13.02763261 15.01770273 -19 16 C-13.74881138 9.43274856 -8.2211158 5.24771518 -1 1 C-0.67 0.67 -0.34 0.34 0 0 Z " fill="#4A4CCC" transform="translate(248,395)"/>
<path d="M0 0 C7.93631829 0.55794865 15.6728102 1.96085906 23.46191406 3.52905273 C25.52238375 3.94198587 27.58520218 4.34137795 29.6484375 4.74023438 C30.963703 5.00179422 32.27881352 5.26413483 33.59375 5.52734375 C34.77646484 5.76187256 35.95917969 5.99640137 37.17773438 6.23803711 C40 7 40 7 42 9 C40.02 9.99 40.02 9.99 38 11 C38 10.01 38 9.02 38 8 C37.01 8.33 36.02 8.66 35 9 C32.63671875 8.6171875 32.63671875 8.6171875 29.6875 7.875 C28.553125 7.59785156 27.41875 7.32070313 26.25 7.03515625 C25.59644531 6.87418457 24.94289062 6.71321289 24.26953125 6.54736328 C19.58740663 5.41813314 14.8853621 4.373929 10.1875 3.3125 C8.24344806 2.87127668 6.29943447 2.42988431 4.35546875 1.98828125 C2.90365274 1.65882372 1.4518326 1.3293844 0 1 C0 0.67 0 0.34 0 0 Z " fill="#5EADEA" transform="translate(173,339)"/>
<path d="M0 0 C-0.625 2.375 -0.625 2.375 -2 5 C-8.25281869 8.45550507 -17.5048623 7.92325718 -24.25 6 C-25.1575 5.67 -26.065 5.34 -27 5 C-24.45897535 3.72948768 -22.7722451 3.97079939 -19.9375 4.0625 C-12.84592288 4.12773133 -6.13337684 0 0 0 Z " fill="#655CCA" transform="translate(231,407)"/>
<path d="M0 0 C1.32 0.66 2.64 1.32 4 2 C3.48050781 2.51046875 2.96101562 3.0209375 2.42578125 3.546875 C-3.24698873 9.46081635 -6.29015106 15.30038113 -9 23 C-10.87305328 17.38084015 -8.07965352 11.3555679 -6 6 C-4.16060629 3.41768814 -2.53027282 1.95521081 0 0 Z " fill="#A6AAF9" transform="translate(141,21)"/>
<path d="M0 0 C0.66 0 1.32 0 2 0 C-0.74676311 7.09580471 -3.58475398 13.7667115 -8 20 C-9.08703773 21.62252429 -10.1701789 23.24766398 -11.25 24.875 C-11.77078125 25.65617187 -12.2915625 26.43734375 -12.828125 27.2421875 C-13.40820312 28.11230469 -13.40820312 28.11230469 -14 29 C-14.33 28.34 -14.66 27.68 -15 27 C-14.05957031 24.83276367 -14.05957031 24.83276367 -12.578125 22.16796875 C-11.78148437 20.72260742 -11.78148437 20.72260742 -10.96875 19.24804688 C-10.4015625 18.23806641 -9.834375 17.22808594 -9.25 16.1875 C-8.69828125 15.18912109 -8.1465625 14.19074219 -7.578125 13.16210938 C-6.06555479 10.43330181 -4.54615724 7.70991759 -3 5 C-2.4853418 4.06712158 -1.97068359 3.13424316 -1.44042969 2.1730957 C-0.96508789 1.45597412 -0.48974609 0.73885254 0 0 Z " fill="#727DF0" transform="translate(350,254)"/>
<path d="M0 0 C3.00811916 0.18305988 5.98996723 0.12040131 9 0 C8.67 0.66 8.34 1.32 8 2 C2.52993412 3.14289156 -2.86849475 3.12083769 -8.4375 3.0625 C-9.26443359 3.05798828 -10.09136719 3.05347656 -10.94335938 3.04882812 C-12.96227146 3.03715811 -14.98114574 3.01922718 -17 3 C-16.11441406 2.55914062 -16.11441406 2.55914062 -15.2109375 2.109375 C-13.34134349 1.17127483 -11.48195961 0.21286795 -9.625 -0.75 C-5.27395519 -2.25036028 -4.18753606 -1.5912637 0 0 Z " fill="#475BE9" transform="translate(265,265)"/>
<path d="M0 0 C5.043723 2.13388281 8.88035607 5.79843091 12.5625 9.75 C15.29423724 12.27160361 16.36896834 12.66222961 20 13 C21.4378121 13.18509148 22.87529809 13.37272862 24.3125 13.5625 C25.529375 13.706875 26.74625 13.85125 28 14 C28 14.66 28 15.32 28 16 C22.53808679 16.76016318 17.90789318 17.24837455 13.15234375 14.13671875 C10.66242849 11.84209096 8.33818247 9.44759482 6 7 C5.10152344 6.30390625 4.20304687 5.6078125 3.27734375 4.890625 C1 3 1 3 0 0 Z " fill="#8E83E8" transform="translate(364,187)"/>
<path d="M0 0 C2.5 1.375 2.5 1.375 5 3 C5 3.66 5 4.32 5 5 C10.54555486 7.42618025 15.9414281 9 22 9 C22 9.66 22 10.32 22 11 C9.10437514 11.86098386 9.10437514 11.86098386 5.375 8.75 C0 2.52631579 0 2.52631579 0 0 Z " fill="#8679D8" transform="translate(193,400)"/>
<path d="M0 0 C-1.78628831 1.67277835 -3.5785075 3.33824443 -5.375 5 C-6.13683594 5.71542969 -6.13683594 5.71542969 -6.9140625 6.4453125 C-10.7734375 10 -10.7734375 10 -13 10 C-13.66 8.35 -14.32 6.7 -15 5 C-13.06891037 3.96709159 -11.129882 2.94901328 -9.1875 1.9375 C-8.10855469 1.36902344 -7.02960938 0.80054688 -5.91796875 0.21484375 C-3 -1 -3 -1 0 0 Z " fill="#3248E2" transform="translate(282,189)"/>
<path d="M0 0 C-0.97288089 2.65331153 -1.58952739 3.78269097 -4.125 5.125 C-7.63859416 6.19435474 -10.6456645 6.19353898 -14.3125 6.125 C-15.56675781 6.10695313 -16.82101563 6.08890625 -18.11328125 6.0703125 C-19.06589844 6.04710937 -20.01851562 6.02390625 -21 6 C-21 5.67 -21 5.34 -21 5 C-20.18015625 4.80664062 -19.3603125 4.61328125 -18.515625 4.4140625 C-17.43796875 4.15367187 -16.3603125 3.89328125 -15.25 3.625 C-13.64898437 3.24214844 -13.64898437 3.24214844 -12.015625 2.8515625 C-1.60221465 -0.08901193 -1.60221465 -0.08901193 0 0 Z " fill="#9F9DF3" transform="translate(259,261)"/>
<path d="M0 0 C1.26328125 0.11988281 2.5265625 0.23976562 3.828125 0.36328125 C5.27445313 0.52376953 5.27445313 0.52376953 6.75 0.6875 C6.75 1.0175 6.75 1.3475 6.75 1.6875 C6.14414063 1.71328125 5.53828125 1.7390625 4.9140625 1.765625 C-1.2302767 2.1815495 -9.64693199 3.08443199 -14.25 7.6875 C-15.91617115 7.72813832 -17.58388095 7.730221 -19.25 7.6875 C-16.86663058 4.9278091 -14.60825349 3.99803795 -11.25 2.6875 C-10.68667969 2.16542969 -10.12335938 1.64335937 -9.54296875 1.10546875 C-6.23466292 -0.94038307 -3.81678975 -0.3887471 0 0 Z " fill="#C7B5F1" transform="translate(187.25,224.3125)"/>
<path d="M0 0 C2.75700224 0.39385746 4.73261494 0.82839467 7.09375 2.34375 C10.99337095 4.56611463 15.04979561 5.82491493 19.3125 7.1875 C20.56643555 7.59645508 20.56643555 7.59645508 21.84570312 8.01367188 C23.89535489 8.68127274 25.9474413 9.34139082 28 10 C28 10.33 28 10.66 28 11 C17.62013705 10.48100685 8.77598126 6.38526123 0 1 C0 0.67 0 0.34 0 0 Z " fill="#4494AF" transform="translate(115,366)"/>
<path d="M0 0 C7.69863548 0.57026929 14.53973765 2.69315843 21 7 C15.57878002 7.27908468 11.62142765 6.42721053 6.5625 4.5 C5.92634766 4.26152344 5.29019531 4.02304687 4.63476562 3.77734375 C3.08597268 3.19509076 1.54239747 2.59898931 0 2 C0 1.34 0 0.68 0 0 Z " fill="#74A8F5" transform="translate(161,20)"/>
<path d="M0 0 C1.89693861 0.28438952 3.79252027 0.57783792 5.6875 0.875 C6.74324219 1.03742188 7.79898438 1.19984375 8.88671875 1.3671875 C11.79794914 1.95893069 14.28955607 2.8031806 17 4 C17 4.33 17 4.66 17 5 C14.89611431 5.05402274 12.79183286 5.09280256 10.6875 5.125 C8.92986328 5.15980469 8.92986328 5.15980469 7.13671875 5.1953125 C4 5 4 5 1 3 C0.67 2.01 0.34 1.02 0 0 Z " fill="#5AA9CC" transform="translate(158,363)"/>
<path d="M0 0 C1 3 1 3 0.0625 5.6875 C-2.66914192 10.07468247 -6.03442728 13.68272685 -10 17 C-10.66 17 -11.32 17 -12 17 C-10.95748072 13.87244217 -9.79885265 12.81232343 -7.4765625 10.60546875 C-4.53903427 7.41148964 -2.31750848 3.65545152 0 0 Z M-14 17 C-13.34 17.33 -12.68 17.66 -12 18 C-12.99 18.99 -13.98 19.98 -15 21 C-15.66 20.67 -16.32 20.34 -17 20 C-16.01 19.01 -15.02 18.02 -14 17 Z " fill="#797AE8" transform="translate(419,179)"/>
<path d="M0 0 C1.68322018 4.9689582 0.10321769 9.35704775 -2 14 C-4.6875 16.125 -4.6875 16.125 -7 17 C-7.33 16.01 -7.66 15.02 -8 14 C-6.67267046 12.32854798 -5.33773782 10.66313351 -4 9 C-2.53010852 6.05526792 -1.24717143 3.04495579 0 0 Z " fill="#BEB2ED" transform="translate(220,217)"/>
<path d="M0 0 C0.53625 0.226875 1.0725 0.45375 1.625 0.6875 C1.17125 1.22375 0.7175 1.76 0.25 2.3125 C-1.59188312 5.00448302 -2.45471933 7.57270388 -3.375 10.6875 C-6.375 7.0625 -6.375 7.0625 -6.375 3.6875 C-7.035 3.3575 -7.695 3.0275 -8.375 2.6875 C-2.95961538 -0.38942308 -2.95961538 -0.38942308 0 0 Z " fill="#7C80E6" transform="translate(214.375,218.3125)"/>
<path d="M0 0 C0.66 0.33 1.32 0.66 2 1 C0.02 1.66 -1.96 2.32 -4 3 C-4 3.66 -4 4.32 -4 5 C-6.24940295 5.08119503 -8.49964871 5.13927819 -10.75 5.1875 C-12.00296875 5.22230469 -13.2559375 5.25710937 -14.546875 5.29296875 C-18.14109357 4.98802939 -19.44725126 4.45605371 -22 2 C-20.37191406 2.03480469 -20.37191406 2.03480469 -18.7109375 2.0703125 C-17.26563193 2.0890827 -15.82031885 2.10728156 -14.375 2.125 C-13.30572266 2.15013672 -13.30572266 2.15013672 -12.21484375 2.17578125 C-7.69983892 2.21720331 -4.29601653 1.53521311 0 0 Z " fill="#6D61CC" transform="translate(403,201)"/>
<path d="M0 0 C0.33 0.66 0.66 1.32 1 2 C-1.28894757 8.29460581 -1.28894757 8.29460581 -3.47265625 10.4609375 C-5.23067981 12.23244974 -6.11893054 13.93981941 -7.1875 16.1875 C-7.53167969 16.90292969 -7.87585938 17.61835938 -8.23046875 18.35546875 C-8.48441406 18.89816406 -8.73835938 19.44085938 -9 20 C-9.66 20 -10.32 20 -11 20 C-9.4095488 15.6366679 -7.25824078 11.75213615 -4.9375 7.75 C-4.57333984 7.11320312 -4.20917969 6.47640625 -3.83398438 5.8203125 C-1.14074248 1.14074248 -1.14074248 1.14074248 0 0 Z " fill="#46A6E1" transform="translate(343,275)"/>
<path d="M0 0 C-3.01432188 4.52148281 -7.00086685 6.14317911 -12 8 C-11.07161713 6.68103535 -10.13194268 5.37001311 -9.1875 4.0625 C-8.66542969 3.33160156 -8.14335937 2.60070312 -7.60546875 1.84765625 C-5.06158307 -1.07997861 -3.63118633 -1.21039544 0 0 Z M-13 8 C-13 8.99 -13 9.98 -13 11 C-13.99 11.495 -13.99 11.495 -15 12 C-14.34 10.68 -13.68 9.36 -13 8 Z " fill="#6565DB" transform="translate(267,378)"/>
<path d="M0 0 C6.44362304 -0.2408831 12.2103966 0.64700392 18.5 2 C19.4178125 2.19078125 20.335625 2.3815625 21.28125 2.578125 C23.52241577 3.04503453 25.76180083 3.51910692 28 4 C28 4.33 28 4.66 28 5 C18.31219237 4.61141574 9.40447504 3.52160461 0 1 C0 0.67 0 0.34 0 0 Z " fill="#5C60ED" transform="translate(180,337)"/>
<path d="M0 0 C6.25107435 0.42954941 12.04204521 1.01401507 18 3 C14.18793396 5.54137736 12.86026286 4.95345334 8.4375 4.1875 C6.70306641 3.89939453 6.70306641 3.89939453 4.93359375 3.60546875 C2 3 2 3 0 2 C0 1.34 0 0.68 0 0 Z " fill="#3152E6" transform="translate(175,337)"/>
<path d="M0 0 C1.46067199 0.45082469 2.91848032 0.91093537 4.375 1.375 C5.18710938 1.63023437 5.99921875 1.88546875 6.8359375 2.1484375 C9 3 9 3 11 5 C12.98356483 5.71408334 14.98315437 6.38617742 17 7 C17 7.33 17 7.66 17 8 C12.1001072 7.49311454 7.55643866 7.0003877 3 5 C2.67 4.01 2.34 3.02 2 2 C1.34 2 0.68 2 0 2 C0 1.34 0 0.68 0 0 Z " fill="#8885EB" transform="translate(152,325)"/>
<path d="M0 0 C0.66 0.33 1.32 0.66 2 1 C-0.036994 2.29956591 -2.07907615 3.5896261 -4.125 4.875 C-4.69476563 5.23980469 -5.26453125 5.60460937 -5.8515625 5.98046875 C-9.46472705 8.2386966 -12.90886041 9.8186679 -17 11 C-16.5 9.1875 -16.5 9.1875 -15 7 C-13.0750692 6.2169773 -11.14263699 5.44430721 -9.16796875 4.796875 C-6.96399502 3.98676574 -5.12424356 2.97385559 -3.125 1.75 C-2.09375 1.1725 -1.0625 0.595 0 0 Z " fill="#297AA9" transform="translate(299,374)"/>
<path d="M0 0 C1.34794719 2.69589439 0.40931243 4.03077388 -0.453125 6.78125 C-1.51861696 11.10410309 -1.69551729 15.56897527 -2 20 C-4.53463421 17.02427361 -5.00600552 16.36033149 -4.9375 12.25 C-4.1892669 7.72659081 -2.25845113 3.94966337 0 0 Z " fill="#B6B6FA" transform="translate(65,146)"/>
<path d="M0 0 C0.99 0.33 1.98 0.66 3 1 C2.67 1.66 2.34 2.32 2 3 C1.01 2.67 0.02 2.34 -1 2 C-0.67 1.34 -0.34 0.68 0 0 Z M-3 3 C-2.34 3.33 -1.68 3.66 -1 4 C-3.31 6.64 -5.62 9.28 -8 12 C-8 7.61031544 -5.87194899 6.23094261 -3 3 Z M-11 12 C-10.34 12.33 -9.68 12.66 -9 13 C-11.05233685 15.2477975 -12.00667261 16.0022242 -15 17 C-13.25 13.125 -13.25 13.125 -11 12 Z " fill="#7170E0" transform="translate(262,375)"/>
<path d="M0 0 C0.99 0.33 1.98 0.66 3 1 C1.55575365 4.23861303 -0.25772247 6.61969163 -2.625 9.25 C-3.25664062 9.95640625 -3.88828125 10.6628125 -4.5390625 11.390625 C-5.02117187 11.92171875 -5.50328125 12.4528125 -6 13 C-6.99 12.67 -7.98 12.34 -9 12 C-8.401875 11.443125 -7.80375 10.88625 -7.1875 10.3125 C-5.00069182 8.00073135 -3.55790419 5.76173925 -2 3 C-1.34 2.01 -0.68 1.02 0 0 Z " fill="#2D53AF" transform="translate(268,381)"/>
<path d="M0 0 C1 3 1 3 0.00390625 5.26171875 C-0.47175781 6.06222656 -0.94742187 6.86273438 -1.4375 7.6875 C-2.14712891 8.89986328 -2.14712891 8.89986328 -2.87109375 10.13671875 C-3.42990234 11.05904297 -3.42990234 11.05904297 -4 12 C-4.33 11.34 -4.66 10.68 -5 10 C-6.32 10.33 -7.64 10.66 -9 11 C-8.06558465 9.72689688 -7.12732889 8.456612 -6.1875 7.1875 C-5.66542969 6.47980469 -5.14335937 5.77210938 -4.60546875 5.04296875 C-3.16871123 3.21468607 -1.68184237 1.60103312 0 0 Z " fill="#3F98D0" transform="translate(333,325)"/>
<path d="M0 0 C0.66 0.66 1.32 1.32 2 2 C-0.97 4.475 -0.97 4.475 -4 7 C-4.66 6.67 -5.32 6.34 -6 6 C-4.02 4.02 -2.04 2.04 0 0 Z M-11 11 C-11 11.99 -11 12.98 -11 14 C-13.5 16.1875 -13.5 16.1875 -16 18 C-16.66 17.67 -17.32 17.34 -18 17 C-15.69 15.02 -13.38 13.04 -11 11 Z " fill="#8480E7" transform="translate(249,383)"/>
<path d="M0 0 C0.66 0.33 1.32 0.66 2 1 C-8.37357631 11.55808656 -8.37357631 11.55808656 -14 16 C-14.66 15.67 -15.32 15.34 -16 15 C-10.86877855 9.74595676 -5.5930976 4.76008307 0 0 Z " fill="#4D50CF" transform="translate(266,379)"/>
<path d="M0 0 C7.4596963 0.74596963 14.68951218 2.36746129 22 4 C22 4.33 22 4.66 22 5 C21.09636719 4.9278125 20.19273437 4.855625 19.26171875 4.78125 C18.08222656 4.6884375 16.90273437 4.595625 15.6875 4.5 C14.51574219 4.4071875 13.34398437 4.314375 12.13671875 4.21875 C10.094806 4.07635011 8.0468721 4 6 4 C3.97676387 3.04788888 1.97300116 2.05226728 0 1 C0 0.67 0 0.34 0 0 Z " fill="#7181E9" transform="translate(156,331)"/>
<path d="M0 0 C-3.43233747 3.43233747 -7.11029672 3.95506549 -11.8671875 4.1953125 C-13.20326637 4.18221369 -14.53928077 4.15865184 -15.875 4.125 C-16.56335938 4.11597656 -17.25171875 4.10695313 -17.9609375 4.09765625 C-19.64077838 4.07432513 -21.32043746 4.03846326 -23 4 C-23 3.67 -23 3.34 -23 3 C-22.27554688 2.95101563 -21.55109375 2.90203125 -20.8046875 2.8515625 C-13.69530468 2.30177023 -7.05823264 -0.33610632 0 0 Z " fill="#3230A3" transform="translate(236,412)"/>
<path d="M0 0 C0.82218018 0.0628418 1.64436035 0.12568359 2.49145508 0.19042969 C3.38413086 0.2484375 4.27680664 0.30644531 5.1965332 0.36621094 C6.12530273 0.44742187 7.05407227 0.52863281 8.01098633 0.61230469 C8.95135742 0.67804688 9.89172852 0.74378906 10.8605957 0.81152344 C13.18358197 0.97660876 15.50341649 1.16086245 17.82348633 1.36230469 C17.82348633 1.69230469 17.82348633 2.02230469 17.82348633 2.36230469 C16.00010742 2.45318359 16.00010742 2.45318359 14.13989258 2.54589844 C12.55524405 2.630288 10.97060931 2.71493679 9.38598633 2.79980469 C8.58354492 2.83912109 7.78110352 2.8784375 6.9543457 2.91894531 C3.07109072 2.76773429 3.07109072 2.76773429 -0.17651367 4.36230469 C-1.84268482 4.40294301 -3.51039462 4.40502569 -5.17651367 4.36230469 C-2.81112358 0.4679425 -2.81112358 0.4679425 0 0 Z " fill="#D8C9F1" transform="translate(249.176513671875,257.6376953125)"/>
<path d="M0 0 C0.33 1.98 0.66 3.96 1 6 C-1.64 5.67 -4.28 5.34 -7 5 C-6.625 3.0625 -6.625 3.0625 -6 1 C-4 0 -4 0 0 0 Z " fill="#1A2DDD" transform="translate(208,222)"/>
<path d="M0 0 C0.70703125 1.64453125 0.70703125 1.64453125 1 4 C-0.36328125 6.76171875 -0.36328125 6.76171875 -2.3125 9.6875 C-2.94800781 10.66074219 -3.58351563 11.63398438 -4.23828125 12.63671875 C-6 15 -6 15 -8 16 C-6.42986223 10.03347646 -3.24970218 5.17090975 0 0 Z " fill="#48A6E1" transform="translate(352,259)"/>
<path d="M0 0 C2.0625 0.4375 2.0625 0.4375 4 1 C-2.05022986 3.66557258 -7.38914524 5.51030705 -14 6 C-14 5.34 -14 4.68 -14 4 C-9.66720517 2.41483116 -5.56156234 1.62609679 -1 1 C-0.67 0.67 -0.34 0.34 0 0 Z " fill="#3030AC" transform="translate(411,203)"/>
<path d="M0 0 C-6.50806804 3.75465464 -13.72813859 3.1164533 -21 3 C-21 2.67 -21 2.34 -21 2 C-20.04287109 1.90912109 -20.04287109 1.90912109 -19.06640625 1.81640625 C-17.82697266 1.69072266 -17.82697266 1.69072266 -16.5625 1.5625 C-15.32693359 1.44068359 -15.32693359 1.44068359 -14.06640625 1.31640625 C-12.01337975 1.21069185 -12.01337975 1.21069185 -11 0 C-3.7826685 -1.36176066 -3.7826685 -1.36176066 0 0 Z " fill="#7E72D8" transform="translate(227,409)"/>
<path d="M0 0 C0.33 0 0.66 0 1 0 C0.46248864 5.91262501 -0.51152124 11.55868519 -3 17 C-3.66 17.33 -4.32 17.66 -5 18 C-4.27595226 13.95295419 -3.16553713 10.10929598 -1.9375 6.1875 C-1.57527344 5.02605469 -1.21304687 3.86460937 -0.83984375 2.66796875 C-0.56269531 1.78753906 -0.28554688 0.90710938 0 0 Z " fill="#6D79F0" transform="translate(357,236)"/>
<path d="M0 0 C9.41002278 0.96355353 9.41002278 0.96355353 14 2 C13.01 2.33 12.02 2.66 11 3 C11 3.66 11 4.32 11 5 C9.35153231 4.55123384 7.70626545 4.09069512 6.0625 3.625 C5.14597656 3.36976563 4.22945312 3.11453125 3.28515625 2.8515625 C1 2 1 2 0 0 Z " fill="#586CE6" transform="translate(164,334)"/>
<path d="M0 0 C0.99 0 1.98 0 3 0 C2.67 6.27 2.34 12.54 2 19 C1.67 19 1.34 19 1 19 C0.67 12.73 0.34 6.46 0 0 Z " fill="#4CB2E4" transform="translate(370,225)"/>
<path d="M0 0 C0 3.60194862 -0.96327513 5.00745453 -2.8125 8.0625 C-3.33457031 8.94035156 -3.85664063 9.81820313 -4.39453125 10.72265625 C-6 13 -6 13 -9 15 C-7.68262072 11.41061876 -6.09204262 8.40505503 -3.9375 5.25 C-3.41027344 4.47140625 -2.88304687 3.6928125 -2.33984375 2.890625 C-1 1 -1 1 0 0 Z " fill="#59B4E6" transform="translate(355,260)"/>
<path d="M0 0 C2.5 1.375 2.5 1.375 5 3 C5 3.66 5 4.32 5 5 C5.78375 5.28875 6.5675 5.5775 7.375 5.875 C10 7 10 7 12 9 C5.90140505 8.76083941 5.90140505 8.76083941 3.421875 6.66796875 C0 2.62661638 0 2.62661638 0 0 Z " fill="#9D91E7" transform="translate(193,400)"/>
<path d="M0 0 C0 3 0 3 -1.4375 5.5 C-4.87619363 8.85482305 -8.42698352 9.79811746 -13 11 C-11.62102771 8.24205543 -9.47669255 7.58455882 -6.85546875 6.15234375 C-4.12142143 4.45435646 -2.16894347 2.36612015 0 0 Z " fill="#5E60DB" transform="translate(418,190)"/>
<path d="M0 0 C0 3.08401374 -0.34209098 4.03663956 -1.8125 6.625 C-2.14894531 7.23601562 -2.48539063 7.84703125 -2.83203125 8.4765625 C-4 10 -4 10 -7 11 C-6.40716379 7.60807637 -5.23256811 5.7892243 -2.9375 3.25 C-2.38964844 2.63640625 -1.84179688 2.0228125 -1.27734375 1.390625 C-0.85582031 0.93171875 -0.43429688 0.4728125 0 0 Z " fill="#A59DEA" transform="translate(218,220)"/>
<path d="M0 0 C0.66 0 1.32 0 2 0 C2 0.66 2 1.32 2 2 C2.99 2.33 3.98 2.66 5 3 C4.443125 3.061875 3.88625 3.12375 3.3125 3.1875 C0.05012827 4.33373872 -1.68667874 6.49390197 -4 9 C-4.66 8.67 -5.32 8.34 -6 8 C-5.04956626 6.66102417 -4.08940853 5.32894573 -3.125 4 C-2.59132813 3.2575 -2.05765625 2.515 -1.5078125 1.75 C-1.01023437 1.1725 -0.51265625 0.595 0 0 Z " fill="#6A80F3" transform="translate(391,130)"/>
<path d="M0 0 C0 3.80345877 -1.13786331 4.77701015 -3.5 7.6875 C-4.47453125 8.89986328 -4.47453125 8.89986328 -5.46875 10.13671875 C-5.9740625 10.75160156 -6.479375 11.36648437 -7 12 C-7.33 11.34 -7.66 10.68 -8 10 C-7.0625 7.875 -7.0625 7.875 -6 6 C-5.34 6 -4.68 6 -4 6 C-3.566875 4.7934375 -3.566875 4.7934375 -3.125 3.5625 C-2 1 -2 1 0 0 Z " fill="#A0A4F8" transform="translate(82,127)"/>
<path d="M0 0 C0 3.93974955 -1.47789475 5.82936093 -3.5 9.1875 C-4.47453125 10.81751953 -4.47453125 10.81751953 -5.46875 12.48046875 C-6.22671875 13.72763672 -6.22671875 13.72763672 -7 15 C-7.33 14.34 -7.66 13.68 -8 13 C-7.04060332 11.30963442 -6.03357147 9.64605826 -5 8 C-4.67 7.13375 -4.34 6.2675 -4 5.375 C-2.98218886 2.95769855 -1.96537696 1.69737101 0 0 Z " fill="#4DA4D8" transform="translate(361,274)"/>
<path d="M0 0 C0.94875 0.350625 1.8975 0.70125 2.875 1.0625 C2.875 1.7225 2.875 2.3825 2.875 3.0625 C-1.085 3.0625 -5.045 3.0625 -9.125 3.0625 C-3.60119048 -1.08035714 -3.60119048 -1.08035714 0 0 Z " fill="#2F48E4" transform="translate(262.125,263.9375)"/>
<path d="M0 0 C0 3 0 3 -1.3125 4.375 C-1.869375 4.91125 -2.42625 5.4475 -3 6 C-3.515625 6.86625 -4.03125 7.7325 -4.5625 8.625 C-6 11 -6 11 -8 12 C-6.74337944 7.49710965 -5.16038089 4.4566666 -2 1 C-1.34 0.67 -0.68 0.34 0 0 Z " fill="#A1A5F8" transform="translate(98,106)"/>
<path d="M0 0 C0.66 0 1.32 0 2 0 C1.67 1.65 1.34 3.3 1 5 C0.34 5 -0.32 5 -1 5 C-1.28875 5.804375 -1.5775 6.60875 -1.875 7.4375 C-3 10 -3 10 -5 11 C-4.32902328 6.80639551 -2.1441606 3.59665648 0 0 Z " fill="#B3B4FB" transform="translate(106,87)"/>
<path d="M0 0 C1 3 1 3 0.22265625 4.82421875 C-0.8515625 6.54947917 -1.92578125 8.27473958 -3 10 C-3.66 9.01 -4.32 8.02 -5 7 C-1.125 1.125 -1.125 1.125 0 0 Z " fill="#3588BB" transform="translate(338,317)"/>
<path d="M0 0 C2.16321167 3.24481751 3.6314591 6.35055759 5 10 C4.67 10.99 4.34 11.98 4 13 C1.04952165 8.38987758 -0.5497272 5.63470383 0 0 Z " fill="#509AEC" transform="translate(312,70)"/>
<path d="M0 0 C4.83691236 0.44994534 7.58648184 1.48895275 11 5 C11.8125 7.75 11.8125 7.75 12 10 C10.5 8.625 10.5 8.625 9 7 C9 6.34 9 5.68 9 5 C6.06279492 3.47700477 3.0831351 2.19899698 0 1 C0 0.67 0 0.34 0 0 Z " fill="#67C0EF" transform="translate(293,45)"/>
<path d="M0 0 C3.9881741 0.56973916 6.62446673 1.83619662 10 4 C11.32608822 4.68096422 12.65686601 5.35330586 14 6 C11 7 11 7 8.30078125 5.78515625 C7.31464844 5.21667969 6.32851562 4.64820313 5.3125 4.0625 C4.31863281 3.49660156 3.32476562 2.93070312 2.30078125 2.34765625 C1.54152344 1.90292969 0.78226562 1.45820313 0 1 C0 0.67 0 0.34 0 0 Z " fill="#65ACC3" transform="translate(115,366)"/>
<path d="M0 0 C0 0.66 0 1.32 0 2 C-4.62 2 -9.24 2 -14 2 C-14 1.67 -14 1.34 -14 1 C-4.58997722 -1.48063781 -4.58997722 -1.48063781 0 0 Z " fill="#5A6DEE" transform="translate(280,266)"/>
<path d="M0 0 C1.26457031 0.12761719 2.52914062 0.25523437 3.83203125 0.38671875 C5.74048828 0.56654297 5.74048828 0.56654297 7.6875 0.75 C8.66332031 0.85699219 9.63914063 0.96398437 10.64453125 1.07421875 C10.64453125 1.40421875 10.64453125 1.73421875 10.64453125 2.07421875 C2.22953125 2.56921875 2.22953125 2.56921875 -6.35546875 3.07421875 C-3.35546875 0.07421875 -3.35546875 0.07421875 0 0 Z " fill="#D4C2EF" transform="translate(183.35546875,223.92578125)"/>
<path d="M0 0 C0.66 0.33 1.32 0.66 2 1 C0.02 3.31 -1.96 5.62 -4 8 C-4.99 7.67 -5.98 7.34 -7 7 C-4.66666667 4.66666667 -2.33333333 2.33333333 0 0 Z " fill="#5355D3" transform="translate(240,400)"/>
<path d="M0 0 C1 2 1 2 0.22265625 4.3828125 C-0.16019531 5.28773438 -0.54304688 6.19265625 -0.9375 7.125 C-1.31777344 8.03507812 -1.69804687 8.94515625 -2.08984375 9.8828125 C-2.39019531 10.58148438 -2.69054687 11.28015625 -3 12 C-3.33 12 -3.66 12 -4 12 C-4.50423019 6.70558305 -3.18923033 4.18586481 0 0 Z " fill="#6C78EF" transform="translate(320,306)"/>
<path d="M0 0 C0 0.66 0 1.32 0 2 C-3.3 2 -6.6 2 -10 2 C-10.33 1.34 -10.66 0.68 -11 0 C-6.94952424 -1.35015859 -4.2079832 -0.62084998 0 0 Z " fill="#9789E2" transform="translate(392,201)"/>
<path d="M0 0 C0.33 0.99 0.66 1.98 1 3 C-1.33333333 7.66666667 -1.33333333 7.66666667 -4 9 C-2.25 2.25 -2.25 2.25 0 0 Z " fill="#515FE6" transform="translate(427,177)"/>
<path d="M0 0 C0.99 0.33 1.98 0.66 3 1 C0.36 3.97 -2.28 6.94 -5 10 C-5.33 9.01 -5.66 8.02 -6 7 C-4.78515625 5.17578125 -4.78515625 5.17578125 -3.0625 3.3125 C-2.49660156 2.68988281 -1.93070313 2.06726563 -1.34765625 1.42578125 C-0.90292969 0.95527344 -0.45820313 0.48476563 0 0 Z " fill="#9CA1F7" transform="translate(142,22)"/>
<path d="M0 0 C0.66 0.66 1.32 1.32 2 2 C-0.66666667 4.66666667 -3.33333333 7.33333333 -6 10 C-6.66 9.67 -7.32 9.34 -8 9 C-7.50628906 8.51789063 -7.01257813 8.03578125 -6.50390625 7.5390625 C-5.86324219 6.90742188 -5.22257813 6.27578125 -4.5625 5.625 C-3.92441406 4.99851562 -3.28632813 4.37203125 -2.62890625 3.7265625 C-0.92117824 2.08276939 -0.92117824 2.08276939 0 0 Z " fill="#817DE5" transform="translate(261,373)"/>
<path d="M0 0 C1.4370809 -0.05422947 2.87475462 -0.09289723 4.3125 -0.125 C5.11300781 -0.14820313 5.91351563 -0.17140625 6.73828125 -0.1953125 C9 0 9 0 12 2 C7.47907032 3.45606519 4.48351204 2.27032841 0 1 C0 0.67 0 0.34 0 0 Z " fill="#2447E2" transform="translate(205,344)"/>
<path d="M0 0 C0.66 0 1.32 0 2 0 C1.49701212 4.40114397 -0.08772731 6.71195019 -3 10 C-2.25 3.375 -2.25 3.375 0 0 Z " fill="#3993CE" transform="translate(342,308)"/>
<path d="M0 0 C0.66 0.33 1.32 0.66 2 1 C1.43457996 2.32031595 0.84693528 3.6311301 0.25 4.9375 C-0.23726563 6.03384766 -0.23726563 6.03384766 -0.734375 7.15234375 C-2 9 -2 9 -6 10 C-4.02 6.7 -2.04 3.4 0 0 Z " fill="#3E4AD2" transform="translate(426,185)"/>
<path d="M0 0 C0 3.63195496 -0.95453155 4.74713911 -3 7.6875 C-3.556875 8.49574219 -4.11375 9.30398437 -4.6875 10.13671875 C-5.120625 10.75160156 -5.55375 11.36648437 -6 12 C-6.33 11.34 -6.66 10.68 -7 10 C-6.07421875 7.87109375 -6.07421875 7.87109375 -4.6875 5.4375 C-4.23761719 4.63183594 -3.78773437 3.82617188 -3.32421875 2.99609375 C-2 1 -2 1 0 0 Z " fill="#A9C1FB" transform="translate(64,137)"/>
<path d="M0 0 C3.96 0 7.92 0 12 0 C9.57479454 2.42520546 8.37932259 2.68564441 5 3 C2.1875 2.0625 2.1875 2.0625 0 1 C0 0.67 0 0.34 0 0 Z " fill="#7878EF" transform="translate(192,235)"/>
<path d="M0 0 C5.75 3.625 5.75 3.625 8 7 C5.03 6.505 5.03 6.505 2 6 C1.34 4.02 0.68 2.04 0 0 Z " fill="#5D79ED" transform="translate(411,149)"/>
<path d="M0 0 C0.66 0.33 1.32 0.66 2 1 C-0.97 4.96 -0.97 4.96 -4 9 C-4.33 8.01 -4.66 7.02 -5 6 C-3.59554165 3.7363436 -1.8032087 1.9791315 0 0 Z " fill="#A2A6F8" transform="translate(88,118)"/>
<path d="M0 0 C2.1875 0.3125 2.1875 0.3125 4 1 C2.1875 2.5625 2.1875 2.5625 0 4 C-0.99 3.67 -1.98 3.34 -3 3 C-1.75 1.4375 -1.75 1.4375 0 0 Z M-5 4 C-4.34 4.33 -3.68 4.66 -3 5 C-3.99 5 -4.98 5 -6 5 C-5.67 4.67 -5.34 4.34 -5 4 Z " fill="#8D84E4" transform="translate(224,403)"/>
<path d="M0 0 C0.33 0.99 0.66 1.98 1 3 C-0.65 4.65 -2.3 6.3 -4 8 C-3.40138258 5.64828869 -2.73075648 3.3140622 -2 1 C-1.34 0.67 -0.68 0.34 0 0 Z " fill="#56B3E6" transform="translate(358,252)"/>
<path d="M0 0 C-4.44 2.96 -4.44 2.96 -7 4 C-7.99 3.67 -8.98 3.34 -10 3 C-7.29536552 -0.8183075 -4.37912428 -0.24787496 0 0 Z " fill="#9B98F4" transform="translate(194,227)"/>
<path d="M0 0 C-0.66 1.98 -1.32 3.96 -2 6 C-2.66 5.34 -3.32 4.68 -4 4 C-4 3.01 -4 2.02 -4 1 C-4.66 0.67 -5.32 0.34 -6 0 C-3.50907189 -1.24546405 -2.58919267 -0.7767578 0 0 Z " fill="#6A72E3" transform="translate(212,221)"/>
<path d="M0 0 C1.4540625 0.0309375 1.4540625 0.0309375 2.9375 0.0625 C-0.20841933 2.86295623 -2.129564 3.41511589 -6.3125 3.25 C-7.20453125 3.22292969 -8.0965625 3.19585937 -9.015625 3.16796875 C-9.69109375 3.13316406 -10.3665625 3.09835938 -11.0625 3.0625 C-11.0625 2.7325 -11.0625 2.4025 -11.0625 2.0625 C-9.928125 1.918125 -8.79375 1.77375 -7.625 1.625 C-3.97252634 1.04829363 -3.54680005 0.07238367 0 0 Z " fill="#8779DA" transform="translate(396.0625,200.9375)"/>
<path d="M0 0 C1.4800841 0.11362262 2.95910074 0.24122908 4.4375 0.375 C5.26121094 0.44460938 6.08492187 0.51421875 6.93359375 0.5859375 C7.95646484 0.79089844 7.95646484 0.79089844 9 1 C9.33 1.66 9.66 2.32 10 3 C8.72125 3.061875 7.4425 3.12375 6.125 3.1875 C5.40570313 3.22230469 4.68640625 3.25710938 3.9453125 3.29296875 C3.30335938 3.19628906 2.66140625 3.09960938 2 3 C1.34 2.01 0.68 1.02 0 0 Z " fill="#65B2D2" transform="translate(158,363)"/>
<path d="M0 0 C3.63 0.33 7.26 0.66 11 1 C11 1.33 11 1.66 11 2 C9.54263913 2.19491452 8.08405407 2.38069358 6.625 2.5625 C5.81289062 2.66691406 5.00078125 2.77132813 4.1640625 2.87890625 C2 3 2 3 0 2 C0 1.34 0 0.68 0 0 Z " fill="#465CE6" transform="translate(175,337)"/>
<path d="M0 0 C0.99 0 1.98 0 3 0 C2.1875 2.4375 2.1875 2.4375 1 5 C0.01 5.33 -0.98 5.66 -2 6 C-1.125 1.125 -1.125 1.125 0 0 Z " fill="#358AD1" transform="translate(354,288)"/>
<path d="M0 0 C0.33 0.66 0.66 1.32 1 2 C0.22265625 3.9453125 0.22265625 3.9453125 -0.9375 6.125 C-1.31777344 6.84945313 -1.69804687 7.57390625 -2.08984375 8.3203125 C-2.39019531 8.87460937 -2.69054687 9.42890625 -3 10 C-3.62109375 8.203125 -3.62109375 8.203125 -4 6 C-2.0625 2.75 -2.0625 2.75 0 0 Z " fill="#6B76EE" transform="translate(334,283)"/>
<path d="M0 0 C1 2 1 2 0.0625 5.125 C-0.288125 6.07375 -0.63875 7.0225 -1 8 C-1.99 8 -2.98 8 -4 8 C-2.87548273 5.0280615 -1.77706209 2.66559313 0 0 Z " fill="#5463E6" transform="translate(351,256)"/>
<path d="M0 0 C1 2 1 2 0.3125 4.5 C-1.15567038 7.29651501 -2.09303901 7.93411431 -5 9 C-3.50163895 5.88801935 -1.80066242 2.9465385 0 0 Z " fill="#6E79EF" transform="translate(327,295)"/>
</svg>
