<svg width="143" height="57" viewBox="0 0 143 57" fill="none" xmlns="http://www.w3.org/2000/svg">
<path fill-rule="evenodd" clip-rule="evenodd" d="M4.59865 44.2257L4.5857 44.2274H4.60322C4.6027 44.2275 4.60218 44.2275 4.60166 44.2276H137.437H137.44C137.434 44.2276 137.428 44.2275 137.421 44.2274H142.467L142.467 44.2273H142.493L142.493 44.2274V56.579H0.0177272V44.2274H0.471348C0.434857 44.2263 0.400348 44.2257 0.367876 44.2257H0.0175781C0.0175781 44.2257 16.4736 33.7232 17.4109 32.2756C18.3482 30.8264 21.7585 26.5621 24.2313 25.0281C25.3602 24.3271 26.88 23.9461 28.4824 23.5445C30.3903 23.0662 32.4151 22.5586 34.0365 21.4467C37.0212 19.4009 53.4772 0.983887 53.4772 0.983887C53.4772 0.983887 56.1213 4.56525 59.2756 6.0992C60.8014 6.84088 64.1806 8.9781 67.6785 11.1905C71.4151 13.5537 75.2872 16.0028 77.1807 16.9281C80.8469 18.7179 83.5757 22.1297 83.5757 22.1297L89.4588 22.2145L97.047 15.4789C97.047 15.4789 102.845 20.3383 106.255 23.4925C106.94 24.1258 107.577 24.7282 108.175 25.2941C110.556 27.5484 112.328 29.2246 114.1 29.9739C116.317 30.9112 122.286 33.8095 122.286 33.8095C122.286 33.8095 121.349 35.0892 126.976 37.3061C132.04 39.3024 140.925 42.9125 142.312 44.1202C142.397 44.1936 142.442 44.2193 142.467 44.2273H137.437C137.406 44.2273 137.372 44.2256 137.334 44.2223C136.025 44.1043 130.685 42.0193 125.517 40.0018C120.678 38.1123 115.99 36.2819 114.906 36.1817C114.805 36.1721 114.734 36.1775 114.698 36.1993C113.859 36.7032 116.242 42.7434 116.316 42.9305C116.122 42.739 110.069 36.7759 108.244 35.6646C108.204 35.6406 108.167 35.6189 108.132 35.5994C108.107 35.5856 108.081 35.5706 108.056 35.5543C107.316 35.0761 106.497 33.5537 105.585 31.8582C104.447 29.7423 103.164 27.3568 101.709 26.3948C101.67 26.3693 101.631 26.3448 101.593 26.3213C101.584 26.3162 101.576 26.3111 101.567 26.3061C98.8385 24.6874 96.452 23.4925 95.8537 23.7485C95.2571 24.0044 91.2503 28.9502 91.335 29.6316C91.4198 30.313 91.335 33.2977 91.0791 33.5536C90.8266 33.8062 81.099 41.6556 80.6903 41.9852C80.9401 41.6552 86.0633 34.8562 86.4787 32.2775C86.7628 30.5184 86.7064 29.553 86.1851 29.1537C85.9229 28.9508 85.5421 28.8926 85.0265 28.9502C83.5371 29.1148 82.2874 29.201 82.2161 29.2059C82.2235 29.119 82.442 26.3687 80.5956 24.774C79.5076 23.8345 77.0437 22.2639 74.9993 20.9608C73.5181 20.0167 72.2571 19.2128 71.8989 18.891C71.4254 18.4646 70.794 18.0909 70.3262 17.843C69.95 17.6434 69.6789 17.5247 69.6789 17.5247L74.5383 25.1992C74.5383 25.1992 71.1779 24.7079 68.5168 23.0931C68.4335 23.0426 68.3508 22.9909 68.269 22.9381C68.0815 22.8171 67.8983 22.6901 67.7209 22.5571C66.5869 21.7068 64.8065 19.8566 63.0572 18.0387L63.0572 18.0387L63.0571 18.0387C61.0125 15.9139 59.0104 13.8334 58.1327 13.4452C57.9516 13.3643 57.8181 13.355 57.7416 13.4315C56.9754 14.1976 57.2297 17.0128 57.6552 18.462C57.9038 19.3087 58.735 20.8253 59.3831 22.008L59.3832 22.008C59.8444 22.8496 60.2129 23.5221 60.2129 23.6637C60.2129 23.7403 60.0707 24.0323 59.86 24.4651C59.1333 25.9581 57.5909 29.1268 58.2519 30.9112C59.0927 33.1799 59.3532 36.53 59.3602 36.6212C59.2673 36.51 57.1476 33.9751 56.4359 33.5328C56.3776 33.4963 56.3286 33.4736 56.2908 33.4672C56.2833 33.466 56.2763 33.4634 56.2696 33.4595C56.0961 33.3451 56.1908 32.3069 56.3144 30.9506C56.5062 28.8472 56.7677 25.9787 56.2075 24.6029C55.2701 22.2996 53.3091 20.5945 53.3091 20.5945L52.7125 11.813C52.7125 11.813 52.7115 11.813 52.7096 11.8129L52.7095 11.8111C52.7095 11.8111 50.4925 11.7248 49.2977 14.7959C48.7106 16.3059 47.7311 18.2287 46.8671 19.9246L46.867 19.9246L46.867 19.9247C45.9748 21.676 45.2058 23.1853 45.1197 23.7485C45.095 23.9097 45.0596 24.1571 45.0157 24.4637L45.0157 24.4638C44.7572 26.2683 44.2053 30.1204 43.8416 30.4841C43.6043 30.7215 41.9453 31.538 40.2693 32.3629L40.2691 32.3629C38.9297 33.0222 37.5793 33.6868 36.9348 34.0655C35.5476 34.8819 33.3787 36.0099 33.1948 36.1042L33.2175 36.0827C33.645 35.6786 38.1638 31.4078 38.8125 31.0826C39.2485 30.8652 39.0933 29.2232 38.9461 27.6648L38.9461 27.6648C38.8627 26.7817 38.7818 25.9255 38.8125 25.3707C38.8973 23.8351 38.9837 23.1537 38.9837 23.1537C38.9837 23.1537 38.9824 23.1551 38.9799 23.158C38.9804 23.1539 38.9807 23.1518 38.9807 23.1518C38.9807 23.1518 34.4604 28.2672 33.6926 28.4383C33.46 28.4903 32.8184 28.325 31.9828 28.1098C30.0664 27.6162 27.1293 26.8597 25.7637 27.8577C24.5706 28.7306 23.156 30.9341 22.0971 32.5835L22.097 32.5835C21.4155 33.6451 20.8814 34.4771 20.6484 34.5773C20.5029 34.6396 19.694 35.2063 18.5102 36.0358L18.51 36.036C14.8273 38.6164 7.51628 43.7392 5.25765 44.1265C5.03372 44.1649 4.81298 44.1985 4.59865 44.2257ZM12.2575 51.3248V54.3096H13.6395V46.9261H12.2575V50.0372H8.62973V46.9261H7.23814V54.3096H8.62973V51.3248H12.2575ZM16.3282 52.9068L15.6948 54.2984H14.1864L17.4991 46.9149H19.0186L22.3313 54.2984H20.8117L20.1895 52.9068H16.3282ZM18.2588 48.4665L16.888 51.6096H19.6312L18.2604 48.4665H18.2588ZM26.2246 54.4679C27.2899 54.4679 28.2704 54.1192 29.0302 53.3707L28.0832 52.4125C27.597 52.8972 26.8692 53.1611 26.2262 53.1611C24.4011 53.1611 23.6957 51.8847 23.6845 50.661C23.6733 49.4278 24.4443 48.0986 26.2262 48.0986C26.8692 48.0986 27.5234 48.3193 28.0081 48.7944L28.9358 47.897C28.176 47.1469 27.2259 46.7678 26.2246 46.7678C23.555 46.7678 22.2993 48.7288 22.3105 50.6594C22.3217 52.5805 23.4814 54.4679 26.2246 54.4679ZM35.7482 46.9581L32.4676 50.4914L36.0217 54.2152V54.2999H34.3022L31.2119 51.0305V54.2999H29.8204V46.9165H31.2119V50.0388L34.0175 46.9165H35.7466V46.9581H35.7482ZM41.4554 53.6346C41.4554 54.9734 42.1832 55.6596 43.7443 55.3749V54.3736C42.9637 54.4584 42.8054 54.3112 42.8054 53.5722V52.1582L42.8055 52.099L42.8057 52.0483C42.8087 51.4754 42.8111 51.0046 42.0664 50.797C42.811 50.5789 42.8087 50.1189 42.8057 49.5381L42.8055 49.4818L42.8054 49.4262V48.0122C42.8054 47.2748 43.0581 47.0317 43.7443 47.2109V46.2096C42.1832 45.9248 41.4554 46.611 41.4554 47.9498V49.4262C41.4554 49.8277 41.3802 50.3124 40.7164 50.3124V51.2721C41.3818 51.2721 41.4554 51.7567 41.4554 52.1582V53.6346ZM48.9444 47.4315H46.2764V46.9245H52.1835V47.4315H49.5155V54.2983H48.946V47.4315H48.9444ZM58.5433 50.9442V54.2984H59.1127V46.9149H58.5433V50.4275H53.839V46.9149H53.2696V54.2984H53.839V50.9442H58.5433ZM61.2959 50.322H65.6211V50.8386H61.2959V53.7498H65.9586V54.2984H60.7377V46.9149H65.8322V47.4524H61.2959V50.322ZM73.7323 52.0638L76.5587 47.7386V54.2999H77.1185V46.9165H76.4227L73.6267 51.2208L70.8003 46.9165H70.1253V54.2999H70.6948V47.7386L73.542 52.0638H73.7323ZM85.8728 50.6177C85.8617 52.558 84.6284 54.4262 82.1491 54.4262C79.6699 54.4262 78.4254 52.5484 78.4254 50.5969C78.4254 48.6455 79.6603 46.7996 82.1491 46.7996C84.638 46.7996 85.8824 48.6247 85.8728 50.6177ZM78.9853 50.6065C78.9965 52.2733 80.0505 53.8968 82.1491 53.8968C84.2477 53.8968 85.3242 52.2717 85.3242 50.6065C85.3242 48.9414 84.2701 47.3259 82.1491 47.3259C80.0281 47.3259 78.9741 48.8662 78.9853 50.6065ZM92.8757 51.504V46.9149H92.8741H92.3158V51.504C92.3158 54.6679 87.7796 54.6791 87.7796 51.504V46.9149H87.2213V51.504C87.2213 55.3749 92.8757 55.3653 92.8757 51.504ZM94.6799 46.9149L99.648 53.022V46.9149H100.208V54.2984H99.9871L95.0078 48.201V54.2984H94.4383V46.9149H94.6799ZM101.284 47.4315H103.952H103.954V54.2983H104.523V47.4315H107.191V46.9245H101.284V47.4315ZM114.142 54.2984L113.329 52.4845H108.921L108.119 54.2984H107.508L110.821 46.9149H111.443L114.756 54.2984H114.145H114.142ZM113.108 51.9567L111.125 47.4636L109.141 51.9567H113.108ZM115.597 46.9149V54.2984H116.155V46.9149H115.597ZM118.033 46.9149L123.001 53.022V46.9149H123.561V54.2984H123.34L118.361 48.201V54.2984H117.791V46.9149H118.033ZM130.111 48.3378L130.111 48.3385H130.11L130.111 48.3378ZM130.573 48.065L130.111 48.3378C129.573 47.4731 128.708 47.3468 127.875 47.3372C127.01 47.3372 125.639 47.6539 125.639 48.8344C125.639 49.7733 126.651 49.9941 127.896 50.226L127.972 50.2406C129.371 50.509 130.796 50.7821 130.796 52.3454C130.785 54.0121 129.108 54.4136 127.873 54.4136C126.723 54.4136 125.417 53.9385 124.846 52.8108L125.353 52.5581C125.807 53.4555 126.966 53.8969 127.873 53.8969C128.78 53.8969 130.226 53.6442 130.226 52.3358C130.238 51.2289 129.014 50.9858 127.8 50.7538C126.45 50.4899 125.068 50.2164 125.068 48.8552C125.036 47.294 126.661 46.8094 127.873 46.8094C128.928 46.8094 129.846 46.9789 130.573 48.065ZM134.203 54.3719C134.983 54.4567 135.142 54.308 135.142 53.5706V52.1566C135.142 52.1196 135.142 52.0829 135.141 52.0467C135.138 51.4739 135.136 51.0045 135.881 50.7954C135.136 50.5773 135.138 50.1158 135.141 49.5362C135.142 49.4994 135.142 49.4622 135.142 49.4246V48.0106C135.142 47.2716 134.889 47.0301 134.203 47.2092V46.2079C135.764 45.9232 136.492 46.6094 136.492 47.9482V49.4246C136.492 49.8261 136.565 50.3107 137.231 50.3107V51.2704C136.567 51.2704 136.492 51.7551 136.492 52.1566V53.633C136.492 54.9718 135.764 55.658 134.203 55.3732V54.3719Z" fill="#D5D5D5"/>
</svg>
