<svg width="126" height="50" viewBox="0 0 126 50" fill="none" xmlns="http://www.w3.org/2000/svg">
<path d="M44.9316 1.70549C39.3835 8.04425 33.0949 14.8985 31.2949 16.574C29.5633 18.1792 28.4127 18.7533 25.3139 19.5501C23.4684 20.0188 22.3291 20.4171 21.5886 20.8389C20.1532 21.6591 17.9886 23.8853 15.9835 26.6153C15.1633 27.7401 14.8329 28.0682 13.7506 28.9118C11.6203 30.5521 7.75823 33.2235 2.07342 36.9963L0 38.3789V43.9912V49.6035H63H126V44.0029V38.414L125.51 38.0977C124.12 37.2072 119.575 35.1216 113.787 32.7431C110.985 31.5949 110.108 31.1731 109.162 30.5287C108.535 30.1069 107.943 29.3453 108.023 29.0758C108.08 28.9118 106.735 28.2088 102.987 26.4512C99.3645 24.7406 99.2051 24.6351 96.2772 21.8114C92.0848 17.7809 85.9671 12.2974 85.7506 12.3794C85.6823 12.4029 84.1557 13.762 82.3671 15.3906L79.1089 18.355L76.5228 18.3315L73.9253 18.2964L72.6494 16.9958C71.1456 15.4609 69.8468 14.4885 67.7506 13.3285C66.1557 12.438 64.538 11.4187 58.2152 7.34125C56.119 5.99382 53.7835 4.54095 53.0316 4.10743C51.2202 3.09979 50.3089 2.42021 49.0557 1.18995L48.019 0.158882H47.1532H46.2873L44.9316 1.70549ZM46.5266 8.93472C46.5608 8.98159 46.6975 10.786 46.8342 12.9418L47.0848 16.8552L47.7342 17.5582C49.6709 19.679 50.1494 21.1553 49.8987 24.3657C49.8304 25.2561 49.7392 26.5801 49.7051 27.2948C49.6367 28.5603 49.6481 28.6071 49.8759 28.6774C50.0126 28.7243 50.5595 29.275 51.1063 29.896C52.5646 31.5715 52.4392 31.4777 52.3481 30.7982C52.1544 29.2398 51.9152 27.9861 51.5962 26.8262C51.3114 25.7717 51.2544 25.4202 51.3228 24.8929C51.4253 24.0024 52.0405 22.1278 52.6671 20.8038L53.1911 19.7141L52.0519 17.4059C50.7646 14.8165 50.5823 14.1721 50.5937 12.3443C50.5937 10.329 50.924 9.96579 51.9949 10.8094C52.3253 11.0789 54.057 12.813 55.8342 14.6642C57.6114 16.5272 59.4 18.2964 59.8101 18.601C60.6873 19.2689 61.7013 19.8079 62.8861 20.2414C63.8203 20.5929 65.6089 21.0615 65.6886 20.9795C65.7228 20.9444 64.8342 19.4564 63.7291 17.6637C62.624 15.871 61.6899 14.3244 61.6557 14.2307C61.5759 14.0081 62.7608 14.6876 63.4101 15.2266C63.6721 15.4375 65.0506 16.3866 66.4861 17.3356C69.7557 19.4915 71.362 20.6749 71.7835 21.2724C72.2392 21.9286 72.581 22.9245 72.6494 23.8736L72.7177 24.6703L73.8683 24.5766C75.7709 24.4125 75.9759 24.436 76.2835 24.7992C76.5228 25.0921 76.557 25.2444 76.557 26.088C76.557 26.627 76.4772 27.3769 76.3747 27.7518C76.0443 29.0758 74.5633 31.7472 72.5582 34.6178C72.0684 35.3325 71.6354 35.9652 71.5899 36.0355C71.5443 36.1058 72.1709 35.6137 72.9797 34.9459C73.7886 34.2663 75.7937 32.5908 77.4456 31.22C79.1316 29.8139 80.4987 28.5837 80.5557 28.4314C80.6127 28.2791 80.681 27.4003 80.7152 26.4981C80.7721 24.6 80.7721 24.6234 82.1962 22.6667C83.4835 20.9209 84.6 19.7258 84.9646 19.7258C85.4316 19.7258 86.9582 20.4054 88.5304 21.3076C90.8089 22.6199 91.2532 23.1823 93.6911 27.7401C94.7848 29.7788 94.9785 30.0366 96.0038 30.8099C97.1089 31.6535 98.5443 32.954 100.823 35.1919L102.703 37.0315L102.042 34.9693C101.529 33.411 101.347 32.6845 101.301 31.9815L101.244 31.0559L101.803 31.1262C102.52 31.2082 104.514 31.9464 110.051 34.1609C116.009 36.5511 117.832 37.2424 119.563 37.8399L121.044 38.3437H62.7152C6.63038 38.3437 4.40886 38.332 5.01266 38.1328C5.35443 38.0157 5.92405 37.7813 6.26582 37.5939C8.00886 36.68 12.1785 33.9031 16.5759 30.7161L18.3987 29.3921L19.6519 27.4472C21.2127 25.0335 22.0899 23.897 22.7506 23.4752C23.6962 22.8542 24.9494 22.8894 28.0253 23.6509L29.6772 24.061L30.1215 23.733C30.4975 23.4635 32.6734 21.1787 33.9721 19.679L34.3709 19.2103L34.3595 21.0264C34.3595 22.0223 34.3937 23.5455 34.4506 24.4242C34.5076 25.3616 34.5076 26.088 34.4506 26.1935C34.3937 26.2989 34.0861 26.5918 33.7671 26.8496C33.4481 27.1074 32.5253 27.951 31.7278 28.7126C30.919 29.4742 30.0873 30.2709 29.8595 30.4818L29.4494 30.8685L29.962 30.6107C30.2468 30.4701 31.0443 30.0248 31.7278 29.6265C32.4228 29.2281 34.2114 28.2556 35.7152 27.4823C37.2304 26.709 38.5405 25.9709 38.6544 25.8537C38.8823 25.5842 39.0987 24.5648 39.5316 21.7177C39.7025 20.5226 39.9076 19.3978 39.9759 19.2103C40.0557 19.0228 40.7392 17.57 41.5025 15.9882C42.2772 14.4064 43.0975 12.6255 43.3253 12.0514C44.0544 10.2587 44.7608 9.40339 45.8772 8.9933C46.4013 8.80583 46.4468 8.80584 46.5266 8.93472ZM38.6203 40.6285C38.6203 41.0737 38.5861 41.1323 38.4038 41.0854C37.9595 40.9683 37.8228 41.3315 37.8228 42.6438C37.8228 43.7686 37.8 43.8975 37.5721 44.1318L37.3101 44.3896L37.5721 44.6473C37.8 44.8817 37.8228 45.0223 37.8228 46.1236C37.8228 47.4008 37.8911 47.6117 38.3582 47.6117C38.5861 47.6117 38.6203 47.6703 38.6203 48.0803C38.6203 48.4787 38.5747 48.5607 38.3354 48.6193C37.9139 48.7248 37.1392 48.4201 36.8658 48.0452C36.6608 47.764 36.6152 47.5062 36.5924 46.4166C36.5468 45.1277 36.5468 45.1277 36.2165 44.9403C35.7835 44.6825 35.738 44.0263 36.1595 43.874C36.524 43.7217 36.5696 43.546 36.5696 42.3157C36.5696 40.6871 36.9797 40.1247 38.1418 40.113H38.6203V40.6285ZM119.951 40.2653C120.532 40.5699 120.68 40.9448 120.748 42.3626C120.816 43.5928 120.839 43.6983 121.078 43.8037C121.443 43.9678 121.443 44.7059 121.056 44.8934C120.805 45.0106 120.782 45.0809 120.737 46.2994C120.703 47.2953 120.634 47.6585 120.463 47.9749C120.201 48.4436 119.54 48.7248 118.971 48.6076C118.618 48.549 118.595 48.5021 118.595 48.0803C118.595 47.6351 118.618 47.6117 118.937 47.6117C119.404 47.6117 119.506 47.2953 119.506 45.9127C119.506 44.952 119.54 44.7762 119.734 44.5888L119.962 44.3661L119.734 44.1552C119.529 43.9678 119.506 43.792 119.506 42.7609C119.506 41.4369 119.358 41.0503 118.868 41.0503C118.629 41.0503 118.595 40.9917 118.595 40.6636C118.595 40.441 118.629 40.2301 118.675 40.195C118.8 40.0544 119.654 40.113 119.951 40.2653ZM24.6987 41.1089C25.5987 41.6127 25.6329 41.6947 25.1089 42.1517L24.6759 42.5383L24.3456 42.2923C23.8443 41.9173 22.5342 41.8939 21.9304 42.2454C20.4608 43.1242 20.6089 45.7253 22.1582 46.3228C22.8759 46.604 24.0494 46.44 24.5278 45.9948C24.7215 45.819 24.7671 45.8424 25.2 46.2877L25.6671 46.7681L25.1316 47.1196C23.2177 48.3733 20.5975 47.6234 19.857 45.5964C19.5835 44.8231 19.6063 43.4757 19.9253 42.7375C20.2671 41.9291 21.019 41.1909 21.7823 40.9097C22.6823 40.5816 23.9127 40.6636 24.6987 41.1089ZM74.0506 41.0151C75.1785 41.5307 75.7709 42.4915 75.8506 43.9326C75.9076 45.1277 75.7025 45.8659 75.0759 46.5923C74.4152 47.3656 73.743 47.6585 72.6266 47.6585C71.8519 47.6703 71.624 47.6234 71.0544 47.3305C70.3709 46.9907 69.881 46.4517 69.5278 45.6198C69.243 44.9871 69.2658 43.3585 69.562 42.6906C70.0063 41.7064 70.724 41.0737 71.7152 40.8042C72.2734 40.6519 73.5038 40.7574 74.0506 41.0151ZM114.596 41.0386C114.847 41.1792 115.143 41.4135 115.246 41.5775C115.565 42.0814 115.166 42.3157 114.767 41.8588C114.448 41.4838 113.89 41.2846 113.172 41.2846C111.965 41.2846 111.27 41.6713 111.122 42.4094C111.076 42.6906 111.121 42.843 111.349 43.1242C111.611 43.4405 111.805 43.5342 112.762 43.7451C114.482 44.1318 114.904 44.3075 115.291 44.7528C115.587 45.1043 115.633 45.2566 115.633 45.7956C115.633 46.3697 115.587 46.4869 115.234 46.8969C114.311 47.9515 112.078 47.9397 110.905 46.8852C110.358 46.3931 110.278 46.1588 110.586 46.0416C110.711 45.983 110.905 46.1002 111.178 46.3697C111.737 46.9204 112.295 47.143 113.149 47.143C113.97 47.143 114.744 46.8384 114.949 46.44C115.177 46.0065 115.12 45.3972 114.824 45.0809C114.562 44.7879 114.095 44.6239 112.454 44.2138C111.93 44.0849 111.372 43.8975 111.224 43.8037C110.29 43.171 110.392 41.6479 111.418 41.1089C112.295 40.6402 113.776 40.6168 114.596 41.0386ZM7.51899 42.222V43.628H9.11392H10.7089V42.222V40.816H11.3354H11.962V44.2138V47.6117H11.3354H10.7089V46.2642V44.9168H9.11392H7.51899V46.2642V47.6117H6.8924H6.26582V44.2138V40.816H6.8924H7.51899V42.222ZM18.1823 44.0849C18.9456 45.8424 19.6063 47.3539 19.6405 47.4476C19.6861 47.5765 19.5494 47.6117 19.0139 47.6117H18.3304L18.0456 46.9672L17.7608 46.3228H16.0633H14.3658L14.081 46.9672L13.7962 47.6117H13.1696C12.7823 47.6117 12.5316 47.5648 12.5316 47.4828C12.5316 47.4125 13.0785 46.1119 13.7392 44.577C14.4114 43.0539 15.0494 41.5893 15.1633 41.3081L15.3797 40.8042L16.0747 40.8394L16.781 40.8745L18.1823 44.0849ZM27.5924 42.1751L27.6266 43.5342L28.8114 42.1751L29.9848 40.816H30.7823H31.5683L31.2494 41.2143C31.0785 41.4252 30.4291 42.1634 29.8025 42.8547L28.6861 44.0966L30.2354 45.7839C31.0899 46.7095 31.7848 47.4945 31.7848 47.5414C31.7848 47.5765 31.443 47.6117 31.0215 47.6117L30.2468 47.6L28.9367 46.1588L27.6266 44.7176L27.5924 46.1705L27.5582 47.6117H26.943H26.3165V44.2138V40.816H26.943H27.5582L27.5924 42.1751ZM46.1392 41.0503C46.1392 41.2729 46.0595 41.2846 44.943 41.2846H43.7468V44.4482V47.6117H43.462H43.1772V44.4482V41.2846H41.981C41.0582 41.2846 40.7848 41.2495 40.7848 41.1323C40.7848 41.0386 40.819 40.9331 40.8646 40.898C40.8987 40.8511 42.1063 40.816 43.5418 40.816C46.0595 40.816 46.1392 40.8277 46.1392 41.0503ZM47.6203 42.3977V43.9795H49.6709H51.7215V42.386C51.7215 40.8042 51.7215 40.8042 51.9835 40.8394L52.2342 40.8745V44.2138V47.5531L51.9835 47.5882C51.7215 47.6234 51.7215 47.6234 51.7215 46.1002V44.5653H49.6709H47.6316L47.5975 46.0533C47.5633 47.5062 47.5519 47.5531 47.3127 47.5882L47.0506 47.6234V44.2255V40.816H47.3354H47.6203V42.3977ZM58.1924 41.0737C58.1582 41.3432 58.1354 41.3432 56.1304 41.3784L54.1025 41.4018L54.1367 42.6672L54.1709 43.9209L56.0848 43.956C57.8962 43.9795 57.9873 43.9912 57.9873 44.2138C57.9873 44.4364 57.9076 44.4482 56.0506 44.4482H54.1139V45.737V47.0258H56.2329H58.3405L58.3063 47.2836C58.2721 47.5531 58.2608 47.5531 55.9709 47.5882L53.6582 47.6117V44.2138V40.816H55.9481H58.2266L58.1924 41.0737ZM63.8316 42.7961L65.062 44.7176L65.9392 43.3233C66.4291 42.55 66.9759 41.683 67.1582 41.3784C67.4316 40.9331 67.5684 40.816 67.819 40.816H68.1266V44.2138C68.1266 47.5179 68.1152 47.6117 67.8987 47.6117C67.6823 47.6117 67.6709 47.5179 67.6481 44.6591L67.6139 41.7064L66.4177 43.5928C65.757 44.6356 65.1532 45.4909 65.0734 45.5027C64.9937 45.5027 64.3785 44.6473 63.7063 43.5928L62.4873 41.6947L62.4532 44.6473C62.4304 47.5179 62.419 47.6117 62.2025 47.6117C61.9861 47.6117 61.9747 47.5179 61.9747 44.2021V40.8042L62.2937 40.8394C62.5557 40.8745 62.7835 41.1675 63.8316 42.7961ZM77.5823 43.007C77.5823 45.3972 77.662 45.8893 78.1177 46.4517C78.9835 47.5062 80.681 47.307 81.3076 46.0885C81.5582 45.6081 81.5696 45.4558 81.5696 43.1945V40.816H81.8544H82.1392V43.0539C82.1392 45.5378 82.0481 46.1002 81.5468 46.7212C80.6468 47.846 78.8582 47.9749 77.8215 46.9907C77.2063 46.4048 77.1266 46.0065 77.1266 43.2999C77.1266 40.898 77.138 40.816 77.3544 40.816C77.5709 40.816 77.5823 40.898 77.5823 43.007ZM85.8532 43.5342L88.0063 46.2642L88.0405 43.5342L88.0633 40.816H88.3481H88.6329V44.2255C88.6329 46.8969 88.5987 47.6234 88.4962 47.5882C88.4165 47.5531 87.3797 46.3111 86.1835 44.8231L84.019 42.1048L83.9848 44.87L83.962 47.6234L83.7 47.5882L83.4494 47.5531L83.4152 44.331C83.3924 41.1323 83.4038 40.816 83.5975 40.816C83.6544 40.816 84.6684 42.0462 85.8532 43.5342ZM94.7848 41.0503C94.7848 41.2612 94.6937 41.2846 93.6228 41.3081L92.4494 41.3432L92.4152 44.4833L92.3924 47.6234L92.1304 47.5882L91.8798 47.5531L91.8456 44.413L91.8228 41.2846H90.6835C89.624 41.2846 89.5443 41.2729 89.5443 41.0503C89.5443 40.8277 89.6241 40.816 92.1646 40.816C94.6937 40.816 94.7848 40.8277 94.7848 41.0503ZM99.9683 44.0966C100.743 45.8659 101.381 47.3891 101.392 47.4594C101.392 47.5414 101.29 47.6117 101.153 47.6117C100.971 47.6117 100.834 47.4242 100.561 46.7915L100.196 45.9713L98.2253 45.9948L96.243 46.0299L95.9354 46.7915C95.662 47.4476 95.5709 47.5531 95.2975 47.5882C95.0696 47.6234 95.0013 47.5882 95.0468 47.4711C95.2291 47.0141 97.8722 41.0034 97.9291 40.9097C97.9633 40.8511 98.1228 40.816 98.2823 40.8394C98.5329 40.8745 98.7152 41.226 99.9683 44.0966ZM102.703 44.2138V47.5531L102.452 47.5882L102.19 47.6234V44.2138V40.8042L102.452 40.8394L102.703 40.8745V44.2138ZM106.519 43.5577L108.627 46.2174L108.661 43.5108L108.684 40.816H108.968H109.253V44.2138C109.253 46.0768 109.208 47.6117 109.151 47.6117C109.105 47.6117 108.091 46.3931 106.906 44.8934L104.753 42.1868L104.696 44.87C104.639 47.5414 104.639 47.5531 104.389 47.5882L104.127 47.6234V44.2138C104.127 41.5307 104.161 40.8042 104.275 40.8394C104.343 40.8745 105.357 42.0931 106.519 43.5577Z" fill="white"/>
<path d="M71.4302 41.4736C69.6986 42.2469 69.2884 44.9418 70.6783 46.3712C71.2137 46.9219 71.7948 47.1445 72.6948 47.1445C74.2783 47.1328 75.3492 45.9377 75.3492 44.1568C75.3492 42.8211 74.6884 41.79 73.6062 41.415C73.0593 41.2276 71.9087 41.2627 71.4302 41.4736Z" fill="white"/>
<path d="M97.9056 42.1783C96.9031 44.5099 96.6069 45.2129 96.6069 45.2949C96.6069 45.3418 97.3474 45.3887 98.2588 45.3887C99.1702 45.3887 99.9107 45.3652 99.9107 45.3418C99.9107 45.2715 98.3157 41.5924 98.2588 41.5339C98.2246 41.5104 98.0651 41.7916 97.9056 42.1783Z" fill="white"/>
</svg>
