<svg width="616" height="763" viewBox="0 0 616 763" fill="none" xmlns="http://www.w3.org/2000/svg">
<path d="M402.538 334.279C402.538 334.279 411.072 272.248 437.541 260.967C464.003 249.685 487.058 275.067 495.593 294.804C504.127 314.542 505.84 336.158 497.299 347.44C497.299 347.44 514.374 336.158 525.475 336.158C536.576 336.158 535.722 347.44 535.722 353.077C535.722 358.714 530.602 368.117 514.381 372.815C498.159 377.512 479.378 388.794 476.817 390.673C474.257 392.552 494.746 391.613 491.332 397.25C487.918 402.887 411.938 435.785 411.938 435.785L402.538 334.279Z" fill="#F3E7D9"/>
<path d="M51.661 365.298C51.661 365.298 364.974 225.257 396.563 211.157C428.152 197.057 440.1 192.359 440.1 192.359C440.1 192.359 409.364 211.157 418.758 210.217C428.152 209.278 564.744 136.905 564.744 136.905C564.744 136.905 560.477 132.207 546.816 133.147C533.155 134.086 495.592 151.005 495.592 151.005C495.592 151.005 481.931 129.388 460.589 130.328C439.247 131.267 415.345 156.642 415.345 156.642C415.345 156.642 435.833 89.9135 404.244 69.2365C372.655 48.5596 333.385 38.2175 306.922 73.9342C306.922 73.9342 297.528 43.8548 262.532 48.5596C227.529 53.2573 178.865 107.772 195.086 184.842L199.353 202.701C199.353 202.701 125.08 182.963 88.3707 222.438C51.661 261.913 77.2699 315.488 77.2699 315.488C77.2699 315.488 43.1204 355.896 39.7067 362.479C36.293 369.056 51.661 365.298 51.661 365.298Z" fill="#F3E7D9"/>
<path d="M433.837 540.109C433.837 540.109 428.146 478.707 436.115 484.973C444.085 491.239 437.822 510.037 437.822 510.037C437.822 510.037 444.649 488.731 445.792 497.505C446.927 506.279 445.792 513.795 445.792 513.795C445.792 513.795 448.634 485.602 453.19 486.223C457.746 486.845 450.912 518.182 450.912 518.182C450.912 518.182 449.776 517.553 458.31 514.424C466.845 511.294 452.048 536.98 452.048 536.98L433.837 540.109Z" fill="#288453"/>
<path d="M467.14 519.079C467.14 519.079 452.818 495.612 457.669 486.838C462.526 478.057 464.875 503.926 464.875 503.926C464.875 503.926 462.565 483.412 466.62 489.756C470.669 496.092 475.103 515.703 475.103 515.703C475.103 515.703 468.455 486.287 475.937 488.484C483.419 490.681 481.302 500.31 481.302 500.31C481.302 500.31 483.772 477.768 488.931 489.007C494.09 500.246 481.276 521.135 481.276 521.135L467.14 519.079Z" fill="#288453"/>
<path d="M484.49 590.866C484.49 590.866 479.369 569.56 485.061 563.923C490.752 558.286 486.767 572.068 486.767 572.068C486.767 572.068 498.722 560.165 497.58 570.817C496.444 581.47 493.024 582.721 493.024 582.721C493.024 582.721 512.376 577.083 502.129 587.736C491.894 598.382 484.49 590.866 484.49 590.866Z" fill="#288453"/>
<path d="M481.076 535.73C481.076 535.73 500.429 513.802 498.722 525.077C497.015 536.358 493.601 536.98 493.601 536.98C493.601 536.98 511.247 529.464 507.263 538.23C503.278 547.004 494.173 546.376 494.173 546.376C494.173 546.376 512.954 548.883 498.728 553.892C484.49 558.907 454.896 562.673 481.076 535.73Z" fill="#33A86D"/>
<path d="M474.25 535.101C474.25 535.101 482.219 513.795 476.528 513.795C470.836 513.795 469.7 527.577 469.7 527.577C469.7 527.577 474.821 497.498 462.302 501.885C449.783 506.272 464.58 523.812 464.58 523.812C464.58 523.812 446.934 509.401 448.641 517.546C450.348 525.691 457.175 529.449 457.175 529.449C457.175 529.449 442.949 539.474 454.332 541.981C465.709 544.496 474.25 535.101 474.25 535.101Z" fill="#33A86D"/>
<path d="M473.678 536.98C473.678 536.98 475.956 498.755 482.783 503.771C489.61 508.787 485.061 517.553 485.061 517.553C485.061 517.553 493.595 498.127 494.737 505.65C495.873 513.166 490.181 521.94 490.181 521.94C490.181 521.94 500.429 519.432 491.317 530.714C482.205 541.996 473.678 536.98 473.678 536.98Z" fill="#288453"/>
<path d="M157.298 672.125C131.471 662.644 48.978 675.346 86.6951 689.185C112.529 698.665 183.131 681.605 157.298 672.125Z" fill="#288453"/>
<path d="M297.13 649.958C262.898 637.397 153.564 654.224 203.55 672.57C237.789 685.13 331.37 662.518 297.13 649.958Z" fill="#288453"/>
<path d="M248.485 663.542L221.927 668.353C221.927 668.353 215.478 652.479 210.165 652.063C203.549 651.54 203.883 659.586 211.795 669.879C211.795 669.879 203.543 658.315 198.127 663.542C192.712 668.77 198.127 676.215 198.127 676.215C198.127 676.215 174.392 677.798 162.162 684.134C149.932 690.471 149.213 694.427 172.955 695.218C172.955 695.218 164.632 697.592 163.875 701.35C163.118 705.108 172.178 713.762 204.852 711.791C232.553 710.116 242.73 711.056 242.73 711.056C242.73 711.056 235.408 730.249 287.89 732.312C341.944 734.439 361.553 725.651 361.553 719.314C361.553 712.977 361.553 712.977 361.553 712.977C361.553 712.977 421.793 721.038 468.551 706.782C515.31 692.527 471.471 651.667 390.185 653.249C308.911 654.832 248.485 663.542 248.485 663.542Z" fill="#288453"/>
<path d="M161.686 691.403C161.686 691.403 159.518 670.684 166.031 677.854C172.543 685.024 165.305 696.185 161.686 691.403Z" fill="#33A86D"/>
<path d="M215.74 685.822C215.74 685.822 206.327 676.257 210.671 664.305C215.015 652.345 225.147 685.024 215.74 685.822Z" fill="#33A86D"/>
<path d="M221.773 679.182C221.773 679.182 216.704 646.503 226.842 647.301C236.974 648.099 227.561 683.166 221.773 679.182Z" fill="#33A86D"/>
<path d="M127.731 690.719C127.731 690.719 128.494 678.921 123.9 678.074C119.306 677.233 120.839 689.037 127.731 690.719Z" fill="#33A86D"/>
<path d="M133.851 651.95C126.196 651.109 102.46 677.232 122.365 671.334C142.276 665.435 141.506 652.79 133.851 651.95Z" fill="#F7BC4B"/>
<path d="M136.662 668.523C127.473 680.32 129.007 697.182 145.08 681.167C161.154 665.153 145.85 656.725 136.662 668.523Z" fill="#F7BC4B"/>
<path d="M152.992 651.384C146.613 650.261 133.594 661.783 146.864 660.935C160.14 660.094 159.37 652.508 152.992 651.384Z" fill="#F7BC4B"/>
<path d="M125.94 661.5C122.365 664.587 121.602 670.21 126.453 665.152C131.304 660.094 129.514 658.406 125.94 661.5Z" fill="#EE5D4F"/>
<path d="M140.999 672.457C137.425 675.544 136.661 681.167 141.512 676.109C146.363 671.051 144.573 669.37 140.999 672.457Z" fill="#EE5D4F"/>
<path d="M147.865 655.849C147.865 655.849 146.826 659.303 151.273 656.23C155.719 653.164 147.865 655.849 147.865 655.849Z" fill="#EE5D4F"/>
<path d="M301.353 705.913L238.771 686.112L225.822 539.607L210.718 524.561L199.206 357.464L324.37 322.616L418.605 309.151L432.131 521.156L435.872 530.099C435.872 530.099 471.626 535.623 486.506 538.597C486.506 538.597 486.775 543.083 486.345 549.815L485.505 587.114L528.599 598.77L541.548 649.604L566.04 657.1L573.85 691.954L503.773 706.154L454.897 697.38L421.319 704.896L355.304 707.489L301.353 705.913Z" fill="#021713"/>
<path d="M199.213 357.464L217.911 360.629L214.318 363.801L263.232 364.592L330.132 353.501L379.046 336.872L368.254 329.744L418.605 309.159L337.89 320.568L233.741 340.044L199.213 357.464Z" fill="#095145"/>
<path d="M379.045 336.871L368.278 329.736L418.604 309.158L434.408 520.371L435.872 530.106L396.075 498.557L379.045 336.871Z" fill="#095145"/>
<path d="M477.856 651.434L541.741 649.604C541.741 649.604 558.244 654.62 562.659 655.92C564.68 656.52 566.175 656.874 566.047 657.128C565.919 657.382 562.3 658.866 552.797 661.246C536.101 665.421 501.194 672.528 501.194 672.528L478.806 659.162L477.856 651.434Z" fill="#095145"/>
<path d="M503.844 706.154L501.072 672.479L478.043 651.646L474.436 623.029L437.066 610.709L423.976 605.065L407.093 599.011L394.857 566.43L353.867 552.281L359.001 599.321L371.86 642.152L371.25 644.222L380.817 676.081L421.319 704.903L422.821 704.564L422.173 705.532L437.823 706.938L444.657 705.702L503.844 706.154Z" fill="#021713"/>
<path d="M398.983 525.754L400.029 535.779L353.874 552.281L394.575 567.681C394.575 567.681 462.874 558.441 467.141 556.872C471.408 555.304 489.574 538.647 486.064 538.286C476.022 535.341 435.879 530.106 435.879 530.106L398.983 525.754Z" fill="#095145"/>
<path d="M434.031 600.685L485.505 587.128C485.505 587.128 504.8 591.063 511.621 592.752C522.696 595.492 528.67 598.156 528.6 598.862C528.529 599.568 520.066 604.655 508.682 609.042C500.296 612.27 476.907 623.036 474.437 623.036C471.966 623.036 468.219 620.57 463.811 619.278C459.12 617.9 429.443 608.265 429.661 608.208L407.209 599.173C405.117 597.795 431.631 601.165 434.031 600.685Z" fill="#095145"/>
<path d="M330.824 358.714C330.824 358.714 335.945 430.147 336.798 453.643C337.652 477.138 347.899 668.875 347.899 668.875L352.166 679.218L342.778 473.38L330.824 358.714Z" fill="#021713"/>
<path d="M321.148 451.135L327.411 503.142L342.779 533.532L342.4 541.367L324.755 507.529L321.148 451.135Z" fill="#021713"/>
<path d="M381.292 322.482L388.312 364.669L387.362 318.3L381.292 322.482Z" fill="#095145"/>
<path d="M403.108 344.621L401.973 382.216L412.4 413.963L413.92 449.263L414.492 413.546L405.386 380.337C405.38 380.33 403.673 347.121 403.108 344.621Z" fill="#095145"/>
<path d="M342.779 343.992L351.313 355.895L351.885 343.992H342.779Z" fill="#095145"/>
<path d="M397.128 316.739L399.124 323.732L401.401 314.853L397.128 316.739Z" fill="#095145"/>
<path d="M430.578 468.888L424.732 475.26L431.566 482.359L430.578 468.888Z" fill="#095145"/>
<path d="M360.418 627.833L359.282 662.92C359.282 662.92 364.974 684.226 364.974 687.984C364.974 691.743 366.681 704.274 366.681 704.274L367.816 689.235L363.261 661.663L360.418 627.833Z" fill="#021713"/>
<path d="M356.986 349.071L360.906 404.928L364.731 476.291L363.236 350.936L371.443 341.11L353.123 346.309L356.986 349.071Z" fill="#021713"/>
<path d="M261.204 364.973L264.047 389.733L266.325 442.368L270.117 469.94L268.596 444.043C268.596 444.043 268.596 392.248 268.596 390.574C268.596 388.899 265.259 364.605 265.259 364.605L261.204 364.973Z" fill="#021713"/>
<path d="M252.849 636.606C252.849 633.477 252.278 595.881 252.278 595.881L249.609 544.319L243.179 537.29C243.179 537.29 249.737 531.632 249.301 530.452L248.871 510.976L249.724 481.843L236.352 521.947L229.524 517.56L243.75 681.097L248.017 621.884L248.473 602.55C250.43 618.783 252.849 638.471 252.849 636.606Z" fill="#021713"/>
<path d="M474.52 590.809L474.186 584.183L473.558 569.553L475.791 581.195L476.387 592.13L474.52 590.809Z" fill="#095145"/>
<path d="M369.812 641.615L399.977 644.017L427.248 670.182L431.419 691.898L425.541 671.433L398.553 645.585L370.095 643.812L369.812 641.615Z" fill="#021713"/>
<path d="M435.93 662.292L442 683.181L442.379 705.532L444.843 705.949C444.843 705.115 444.086 682.976 444.086 682.976L437.258 661.67L410.796 641.148L435.93 662.292Z" fill="#021713"/>
<path d="M266.511 521.939L267.653 560.164L263.097 590.865L261.962 638.485L260.819 584.599L265.375 554.52L266.511 521.939Z" fill="#021713"/>
<path d="M264.804 575.826L269.924 592.744L273.909 626.582L278.465 684.855L276.187 627.832L273.909 591.494L265.939 566.43L264.804 575.826Z" fill="#021713"/>
<path d="M250.681 689.863L257.976 692.216L252.285 678.589L250.681 689.863Z" fill="#021713"/>
<path d="M301.353 705.913L271.631 696.758C271.631 696.758 278.458 688.613 281.307 692.371C284.15 696.129 284.15 696.129 284.15 696.129C284.15 696.129 302.36 679.21 306.345 686.105C310.33 693 303.509 698.008 303.509 698.008C303.509 698.008 307.68 695.917 311.664 698.008C315.649 700.099 313.185 705.948 313.185 705.948L301.995 706.16" fill="#021713"/>
<path d="M381.292 562.672L387.362 570.188L388.498 565.589L381.292 562.672Z" fill="#095145"/>
<path d="M467.134 556.873L467.038 572.273C467.038 572.273 468.937 583.13 468.937 584.388C468.937 585.638 469.695 572.273 469.695 572.273L469.316 551.384L467.134 556.873Z" fill="#095145"/>
<path d="M400.639 586.895L408.987 589.403L402.159 596.086L400.639 586.895Z" fill="#021713"/>
<path d="M341.926 707.093L335.471 706.888L335.946 665.428L341.926 707.093Z" fill="#021713"/>
<path d="M324.658 706.676L322.477 706.57L322.855 690.598L324.658 706.676Z" fill="#021713"/>
<path d="M522.626 667.936V676.71L526.611 691.121L528.318 701.766L527.182 684.855L524.904 676.71V667.307L522.626 667.936Z" fill="#095145"/>
<path d="M483.926 613.422L489.046 624.075L487.339 633.47L489.617 647.259V634.727L491.895 624.075L487.339 609.664L483.926 613.422Z" fill="#095145"/>
<path d="M306.717 710.569C306.717 710.569 304.785 710.569 303.335 705.659C301.885 700.75 306.717 704.607 306.717 704.607C306.717 704.607 302.854 690.224 305.754 686.014C308.648 681.804 310.098 689.871 310.098 689.871L313.48 682.15L315.892 688.818C315.892 688.818 323.13 677.24 321.687 683.909C320.236 690.577 312.517 706.366 312.517 706.366C312.517 706.366 317.343 699.697 318.793 700.75C320.243 701.802 314.917 711.622 306.717 710.569Z" fill="#288453"/>
<path d="M400.021 535.778L393.033 471.543L388.208 503.587L372.724 488.498L388.972 529.293L363.247 548.861L400.021 535.778Z" fill="#E6E6E6"/>
<path d="M311.535 247.82C311.535 247.82 306.049 263.567 303.443 267.805C300.838 272.044 303.437 276.183 305.676 277.872C307.916 279.553 311.317 281.171 317.175 272.34C323.033 263.51 326.017 253.253 326.017 253.253C326.017 253.253 319.979 239.004 311.535 247.82Z" fill="#CC6D3D"/>
<path d="M317.355 267.339C317.355 267.339 308.744 276.169 310.194 277.257C311.644 278.345 315.096 276.388 319.299 268.957C322.694 262.952 324.516 257.576 324.516 257.576L317.355 267.339Z" fill="#F5894E"/>
<path d="M322.622 228.019C322.622 228.019 319.067 228.704 315.795 236.842C312.522 244.988 311.534 247.82 311.534 247.82L324.701 256.439C324.701 256.439 330.245 246.542 331.894 240.516C333.543 234.49 332.003 223.83 322.622 228.019Z" fill="#C94039"/>
<path d="M350.741 303.888C351.793 302.179 346.679 299.84 344.831 299.494C339.89 298.583 323.553 298.23 316.123 298.964C305.067 300.052 302.853 318.511 304.708 320.221C306.562 321.923 305.888 324.191 310.681 323.407C314.692 322.75 325.369 320.56 328.757 319.853C329.431 319.712 330.021 319.288 330.406 318.659L350.741 303.888Z" fill="#CC6D3D"/>
<path d="M341.225 278.464C341.225 278.464 288.493 292.042 286.279 305.195C284.065 318.349 285.599 323.739 299.831 323.958C309.668 324.106 309.482 323.004 308.423 322.312C307.666 321.817 307.191 320.942 307.152 319.974C307.011 316.314 307.582 307.837 314.981 301.72C315.59 301.218 316.36 301.027 317.105 301.211C323.425 302.772 344.94 306.622 369.092 297.955C391.487 289.915 341.225 278.464 341.225 278.464Z" fill="#273252"/>
<path d="M335.944 309.533C338.825 307.873 305.779 311.207 280.356 319.14C275.486 320.659 282.634 332.922 286.805 334.18C290.976 335.437 336.13 332.089 344.099 332.089C352.069 332.089 355.675 307.442 335.944 309.533Z" fill="#F5894E"/>
<path d="M395.99 310.473C395.99 310.473 386.737 315.17 370.946 323.315C363.053 327.391 359.467 328.953 353.21 330.832C346.948 332.711 333.479 332.082 333.479 332.082L330.065 309.526L346.383 304.094C346.383 304.094 349.039 301.847 354.59 299.029C360.14 296.21 366.377 294.797 380.058 292.918C393.738 291.039 395.99 310.473 395.99 310.473Z" fill="#3E4C6F"/>
<path d="M395.991 310.472C395.991 310.472 386.738 315.17 370.946 323.315C370.946 323.315 380.905 306.396 365.537 296.061C378.056 291.985 366.365 294.811 380.052 292.932C393.738 291.053 395.991 310.472 395.991 310.472Z" fill="#273252"/>
<path d="M375.214 265.042C377.492 255.647 367.437 237.887 357.947 224.939C353.801 219.28 350.952 218.284 345.903 217.104C342.559 216.327 337.734 220.983 327.403 224.939C317.599 228.69 318.484 230.159 319.434 243.948C320.339 257.052 321.538 256.205 328.706 262.188C334.423 266.964 338.273 268.821 338.273 268.821C338.273 268.821 344.651 279.849 354.45 277.51C367.251 274.438 372.942 274.438 375.214 265.042Z" fill="#CE9436"/>
<path d="M375.213 265.042C377.491 255.647 367.436 237.887 357.946 224.939C353.8 219.28 350.951 218.284 345.901 217.104C342.558 216.327 339.1 226.041 342.584 235.168C347.518 248.116 351.311 258.981 351.689 263.156C352.068 267.338 372.941 274.438 375.213 265.042Z" fill="#F7BC4B"/>
<path d="M321.808 216.158L325.741 225.772C325.741 225.772 329.662 233.882 332.081 233.501C334.5 233.126 338.446 231.989 337.233 224.826C336.021 217.663 329.976 206.346 329.976 206.346L321.808 216.158Z" fill="#CE6D3E"/>
<path d="M397.698 291.674C400.354 298.774 401.779 307.025 401.779 307.025C401.779 307.025 405.763 310.783 398.365 313.291C390.967 315.799 388.881 314.965 388.881 314.965C388.881 314.965 365.306 296.478 355.11 297.842C344.914 299.205 343.207 298.887 339.364 298.258C335.52 297.63 307.774 288.863 307.774 288.863C307.774 288.863 313.453 284.405 323.713 281.968C342.213 277.581 362.983 259.101 371.524 257.215C380.052 255.329 395.041 284.568 397.698 291.674Z" fill="#CE9436"/>
<path d="M397.698 291.674C400.355 298.774 401.779 307.025 401.779 307.025C401.779 307.025 405.764 310.783 398.365 313.291C390.967 315.799 388.882 314.965 388.882 314.965L391.16 303.684L373.706 280.711L357.299 270.369L367.636 268.179C363.08 266.929 357.389 264.004 357.389 264.004C357.389 264.004 362.984 259.094 371.525 257.215C380.052 255.329 395.042 284.568 397.698 291.674Z" fill="#F7BC4B"/>
<path d="M348.09 329.892C348.09 329.892 344.676 327.702 342.969 323.626C341.262 319.55 341.262 319.55 341.262 319.55C341.262 319.55 340.691 324.876 341.833 325.816H338.702C338.696 325.823 341.256 328.952 348.09 329.892Z" fill="#273252"/>
<path d="M309.731 267.352C306.324 265.996 301.576 269.14 295.628 274.812C289.891 280.28 282.627 287.33 278.919 291.208C275.312 294.988 277.186 301.812 286.375 297.509C295.884 293.059 310.02 282.83 313.934 278.267C317.97 273.562 313.126 268.702 309.731 267.352Z" fill="#CC6D3D"/>
<path d="M312.068 273.025C312.068 273.025 307.641 276.317 304.779 279.538C301.975 282.696 277.187 301.819 286.376 297.516C295.886 293.066 310.208 282.696 314.122 278.125C318.164 273.406 315.11 271.047 312.068 273.025Z" fill="#F5894E"/>
<path d="M286.998 298.357C285.253 301.43 284.246 305.774 281.307 308.487C280.376 309.349 279.741 309.412 278.958 308.897C278.175 308.381 278.65 305.562 279.407 303.994C280.165 302.426 281.018 300.236 281.018 300.236C281.018 300.236 276.443 303.146 274.569 306.813C272.696 310.479 272.343 313.481 270.206 314.923C267.498 316.759 268.955 311.256 268.955 311.256C268.955 311.256 267.716 317.091 266.247 313.319C265.778 312.118 266.869 307.59 266.869 307.59C266.869 307.59 265.201 309.427 263.956 307.364C263.436 306.509 266.247 298.654 269.16 296.591C272.073 294.528 276.655 289.943 282.487 290.862C288.327 291.766 289.084 294.684 286.998 298.357Z" fill="#CC6D3D"/>
<path d="M307.487 224.543C307.487 224.543 316.579 230.604 322.2 222.671C327.821 214.745 319.723 193.044 308.988 199.804C298.253 206.565 300.492 220.877 307.487 224.543Z" fill="#273252"/>
<path d="M301.275 187.273C301.275 187.273 305.876 169.704 312.767 166.8C319.659 163.897 323.457 168.722 323.457 168.722C323.457 168.722 328.52 161.806 340.879 166.278C353.237 170.749 352.461 186.898 352.461 186.898C352.461 186.898 364.261 195.827 355.913 208.684C347.565 221.541 342.393 219.252 336.894 220.149C324.606 222.156 299.729 201.867 301.275 187.273Z" fill="#273252"/>
<path d="M319.133 177.361C319.531 173.229 322.399 172.07 325.389 171.187C329.534 169.958 333.59 172.614 333.59 172.614C333.59 172.614 336.638 169.767 344.479 173.116C352.32 176.464 351.204 188.325 351.204 188.325C351.204 188.325 359.564 199.105 354.771 206.049C350.671 211.99 346.526 209.765 342.021 208.529C337.369 207.25 331.312 197.544 326.089 188.925C325.28 187.597 322.393 185.351 321.751 184.157C320.057 180.971 319.03 178.442 319.133 177.361Z" fill="#48598B"/>
<path d="M309.046 184.786C305.51 188.283 289.937 194.648 287.839 191.144C285.747 187.64 296.219 176.379 301.795 183.076C301.795 183.076 295.224 177.241 298.426 172.706C301.628 168.171 312.588 181.282 309.046 184.786Z" fill="#273252"/>
<path d="M302.025 208.861C308.666 227.284 317.97 228.457 328.141 220.559C335.783 214.632 336.938 205.357 331.015 194.231C325.093 183.105 316.957 176.973 308.397 181.148C297.11 186.658 297.713 196.894 302.025 208.861Z" fill="#CE6D3E"/>
<path d="M306.986 210.394C307.307 211.298 307.641 212.153 307.981 212.958C313.031 224.847 319.961 225.208 327.539 219.337C333.615 214.625 336.169 206.706 331.568 198.039C326.968 189.371 317.202 188.403 310.413 191.744C301.449 196.16 303.662 201.055 306.986 210.394Z" fill="#F5894E"/>
<path d="M333.955 195.333L326.819 198.993C326.819 198.993 319.819 185.246 310.194 186.56C300.081 187.944 299.093 196.117 299.093 196.117C299.093 196.117 297.386 181.862 312.234 179.615C324.022 177.828 333.955 195.333 333.955 195.333Z" fill="#F7BC4B"/>
<path d="M314.134 199.275C314.134 199.275 311.491 198.936 310.227 199.656" stroke="#1D2538" stroke-width="1.05963" stroke-miterlimit="10" stroke-linecap="round" stroke-linejoin="round"/>
<path d="M335.751 201.54C336.314 197.514 334.453 193.858 331.595 193.373C328.737 192.889 325.963 195.76 325.401 199.786C324.838 203.812 326.699 207.468 329.557 207.952C332.415 208.437 335.189 205.566 335.751 201.54Z" fill="#F5894E"/>
<path d="M313.846 207.397C314.532 207.2 314.818 205.896 314.484 204.484C314.15 203.072 313.323 202.087 312.637 202.283C311.952 202.48 311.666 203.784 312 205.196C312.334 206.608 313.161 207.593 313.846 207.397Z" fill="#273252"/>
<path d="M304.792 210.466C305.262 210.268 305.298 209.112 304.873 207.884C304.447 206.655 303.721 205.819 303.251 206.017C302.781 206.214 302.744 207.37 303.17 208.598C303.595 209.827 304.322 210.663 304.792 210.466Z" fill="#273252"/>
<path d="M303.349 201.796C303.349 201.796 301.674 202.573 301.225 203.781" stroke="#1D2538" stroke-width="1.05963" stroke-miterlimit="10" stroke-linecap="round" stroke-linejoin="round"/>
<path d="M336.156 200.39C336.156 200.39 328.052 200.574 326.018 208.698C323.99 216.822 335.374 227.842 341.392 218.072C347.405 208.302 342.137 199.564 336.156 200.39Z" fill="#2A3452"/>
<path d="M339.936 196.901C339.936 196.901 332.255 197.925 329.644 206.191C327.032 214.456 336.856 224.211 343.375 213.898C349.901 203.584 345.66 195.467 339.936 196.901Z" fill="#48598B"/>
<path d="M320.935 186.284C320.935 186.284 323.424 192.331 326.697 195.58C329.174 198.039 331.4 199.013 331.4 199.013L331.137 197.579L332.863 196.788C332.863 196.788 327.653 194.577 322.231 185.874L320.935 186.284Z" fill="#EE5D4F"/>
<path d="M320.704 185.598C320.704 185.598 321.16 192.217 323.226 196.505C324.792 199.747 326.575 201.506 326.575 201.506L326.774 200.058L328.642 199.966C328.642 199.966 324.432 195.926 322.052 185.704L320.704 185.598Z" fill="#EE5D4F"/>
<path d="M322.276 189.49C323.707 189.632 326.98 181.981 323.765 180.844C320.736 179.777 317.156 179.177 317.111 181.889C317.06 184.602 320.839 189.349 322.276 189.49Z" fill="#EE5D4F"/>
<path d="M324.573 185.266C324.573 185.266 324.913 181.67 323.925 181.458C322.936 181.247 323.443 182.977 323.135 185.323C322.834 187.668 324.393 186.778 324.573 185.266Z" fill="#F7BC4B"/>
<path d="M321.545 187.484C321.545 187.484 321.725 185.838 324.202 184.927C326.678 184.016 328.481 183.655 329.592 184.962C330.702 186.269 330.182 190.416 328.924 192.217C327.666 194.012 323.367 191.087 322.379 189.978C321.397 188.862 321.545 187.484 321.545 187.484Z" fill="#EE5D4F"/>
<path d="M329.521 188.41C329.521 188.41 329.174 191.758 327.737 191.892C325.607 192.097 328.321 186.368 328.668 185.443C329.014 184.517 330.432 186.213 329.521 188.41Z" fill="#F7BC4B"/>
<path d="M285.798 326.134L302.494 320.589C306.222 319.353 310.124 321.846 310.99 326.028L312.697 334.237C313.415 337.712 311.792 341.259 308.821 342.679L298.875 347.433C296.591 348.528 293.947 348.139 292.003 346.43L283.552 339.005C279.311 335.282 280.607 327.858 285.798 326.134Z" fill="#29ABE2"/>
<path d="M269.719 322.333L306.133 319.734C306.91 319.677 307.121 320.892 306.377 321.154L279.895 330.528C279.709 330.592 279.51 330.563 279.344 330.45L269.411 323.683C268.865 323.308 269.07 322.376 269.719 322.333Z" fill="#1689CB"/>
<path d="M285.819 323.732L288.617 322.609L286.935 319.451L283.772 320.355L283.586 323.506L285.819 323.732Z" fill="#1689CB"/>
<path d="M284.374 326.24L287.852 324.884L286.434 321.853L283.303 322.687L282.731 325.406L284.374 326.24Z" fill="#29ABE2"/>
<path d="M290.559 324.15L293.357 323.026L291.682 319.869L288.512 320.773L288.326 323.924L290.559 324.15Z" fill="#29ABE2"/>
<path d="M296.013 322.065L299.049 321.119L297.906 318.201L295.442 318.717L296.013 322.065Z" fill="#29ABE2"/>
<path d="M296.014 322.066H294.307L294.019 319.24L295.443 318.717L296.014 322.066Z" fill="#29ABE2"/>
<path d="M229.993 296.45L217.731 303.048C215.241 304.383 215.395 307.315 217.943 307.301L258.99 307.075C259.439 307.075 259.92 306.891 260.344 306.573L267.64 301.127C269.135 300.01 269.071 297.849 267.524 297.778L231.559 296.069C231.045 296.04 230.494 296.175 229.993 296.45Z" fill="#1689CB"/>
<path d="M215.337 311.885L221.773 352.074C222.305 355.394 224.885 357.852 227.946 357.958L269.532 359.343C274.094 359.498 277.36 354.546 275.814 349.82L262.172 308.014C261.242 305.174 258.79 303.281 256.044 303.302L221.664 303.536C217.66 303.55 214.644 307.541 215.337 311.885Z" fill="#1689CB"/>
<path d="M276.943 357.986L293.639 350.887C297.245 349.382 296.591 346.09 294.717 342.664L272.374 301.769C270.475 298.294 267.594 298.244 264.61 300.971L260.439 303.895C258.508 305.662 257.455 307.463 258.219 309.942L271.502 353.204C272.573 356.665 273.638 359.364 276.943 357.986Z" fill="#29ABE2"/>
<path d="M356.978 249.806C356.978 249.806 355.438 270.186 354.353 276.402C353.121 283.438 348.206 284.971 342.38 279.574C337.298 274.862 340.795 252.257 340.603 244.924C340.481 240.057 357.28 237.33 356.978 249.806Z" fill="#CC6D3D"/>
<path d="M356.978 249.805C356.978 249.805 355.438 270.186 354.353 276.402C353.795 279.609 348.283 275.886 348.283 275.886L348.335 246.86L352.768 246.81C352.768 246.81 357.279 237.33 356.978 249.805Z" fill="#F5894E"/>
<path d="M357.1 249.162C357.1 249.162 360.199 223.223 349.483 221.118C338.761 219.019 340.609 244.91 340.609 244.91L357.1 249.162Z" fill="#C94039"/>
<path d="M348.296 246.959L350.17 231.665C352.184 232.936 353.635 234.731 354.648 236.687C354.392 234.639 354.129 232.901 353.872 231.983C352.858 228.38 345.755 221.845 345.755 221.845C347.346 220.482 349.483 221.118 349.483 221.118C360.205 223.216 357.1 249.163 357.1 249.163L348.296 246.959Z" fill="#EE5D4F"/>
<path d="M326.325 280.465C329.642 278.444 341.449 267.693 346.942 268.858C352.434 270.024 356.644 278.063 350.952 285.113C345.26 292.163 315.532 300.463 310.861 301.297C306.189 302.131 300.767 296.91 306.517 293.251C310.752 290.552 323.001 282.492 326.325 280.465Z" fill="#CC6D3D"/>
<path d="M354.347 275.279C354.347 275.279 355.867 279.221 350.952 285.112C345.158 292.057 315.532 300.463 310.861 301.297C306.19 302.13 322.86 295.433 322.86 295.433C322.86 295.433 343.753 269.197 348.687 269.197C353.615 269.197 354.347 275.279 354.347 275.279Z" fill="#F5894E"/>
<path d="M308.41 294.204C308.41 294.204 306.158 292.495 300.036 295.879C296.174 298.012 291.669 301.572 291.239 303.699C290.816 305.825 289.751 311.978 289.321 313.398C288.891 314.818 290.828 315.997 292.33 313.864C292.33 313.864 293.838 315.75 295.769 315.037C297.701 314.323 299.844 310.77 299.844 310.77C299.844 310.77 299.632 314.083 300.28 314.789C300.928 315.496 301.788 315.729 302.43 314.549C303.072 313.37 304.355 308.637 305.426 307.21C306.498 305.79 309.937 306.489 312.934 302.229C315.937 297.97 308.41 294.204 308.41 294.204Z" fill="#CC6D3D"/>
<path d="M291.239 303.692C290.816 305.818 289.751 311.971 289.321 313.391C288.891 314.811 290.828 315.99 292.33 313.857C292.33 313.857 293.838 315.743 295.769 315.03C297.701 314.316 299.844 310.763 299.844 310.763C299.844 310.763 299.632 314.076 300.28 314.782C300.928 315.489 301.005 313.158 301.647 311.971C302.289 310.784 302.962 307.04 303.02 305.903C303.104 304.356 296.764 302.59 296.764 302.59C296.764 302.59 291.611 301.834 291.239 303.692Z" fill="#F5894E"/>
<path d="M259.965 286.03C259.965 286.03 256.244 270.786 240.048 266.293C203.909 256.269 180.001 293.546 180.001 293.546C180.001 293.546 220.413 284.462 232.65 281.643C244.886 278.825 259.965 286.03 259.965 286.03Z" fill="#CE9436"/>
<path d="M233.125 466.592L166.347 468.683C166.347 468.683 155.342 450.719 182.286 441.528C209.229 432.337 233.882 450.302 233.125 466.592Z" fill="#CE9436"/>
<path d="M261.326 280.555L206.521 281.12L202.723 301.084L259.792 301.147L261.326 280.555Z" fill="#3E4C6F"/>
<path d="M268.07 291.636C268.553 285.902 265.746 280.927 261.801 280.525C257.857 280.122 254.267 284.444 253.784 290.178C253.302 295.911 256.108 300.886 260.053 301.289C263.998 301.691 267.588 297.369 268.07 291.636Z" fill="#273252"/>
<path d="M212.696 293.593C214.198 288.093 212.031 282.514 207.857 281.133C203.682 279.751 199.081 283.09 197.579 288.59C196.077 294.09 198.244 299.668 202.418 301.05C206.593 302.431 211.194 299.093 212.696 293.593Z" fill="#3E4C6F"/>
<path d="M252.805 280.598L208.504 281.007C208.504 281.007 204.751 281.678 203.563 288.933C202.376 296.188 205.598 301.176 205.598 301.176L251.175 301.31C251.175 301.31 247.646 296.669 247.819 290.184C247.999 283.699 252.805 280.598 252.805 280.598Z" fill="#FEED7F"/>
<path d="M218.134 308.904C222.613 289.718 226.386 269.74 233.214 267.239C240.041 264.731 244.905 266.837 253.227 274.233C253.227 274.233 246.586 262.224 219.835 263.163C191.935 264.145 182.554 265.982 175.156 269.118C167.757 272.248 156.753 280.916 150.682 290.106C142.841 301.981 137.875 324.883 157.978 385.692C179.936 452.11 135.032 457.408 135.032 457.408C135.032 457.408 192.705 445.293 202.953 446.55C213.2 447.801 214.432 456.469 221.259 462.734C225.039 466.203 229.421 467.439 233.04 466.705C235.96 466.111 238.36 464.07 239.759 462.113C242.89 457.726 241.465 441.747 237.769 432.033C234.067 422.313 209.876 344.246 218.134 308.904Z" fill="#F7BC4B"/>
<path d="M231.224 453.643L214.374 454.455" stroke="#FEED7F" stroke-width="1.41284" stroke-miterlimit="10"/>
<path d="M224.398 437.353L172.603 439.86" stroke="#FEED7F" stroke-width="1.41284" stroke-miterlimit="10"/>
<path d="M225.534 423.57L173.738 426.071" stroke="#FEED7F" stroke-width="1.41284" stroke-miterlimit="10"/>
<path d="M221.548 406.651L170.895 410.409" stroke="#FEED7F" stroke-width="1.41284" stroke-miterlimit="10"/>
<path d="M215.284 385.345L166.909 390.982" stroke="#FEED7F" stroke-width="1.41284" stroke-miterlimit="10"/>
<path d="M211.871 369.056L162.925 371.563" stroke="#FEED7F" stroke-width="1.41284" stroke-miterlimit="10"/>
<path d="M205.609 352.766L159.512 355.895" stroke="#FEED7F" stroke-width="1.41284" stroke-miterlimit="10"/>
<path d="M201.631 332.71L152.685 335.218" stroke="#FEED7F" stroke-width="1.41284" stroke-miterlimit="10"/>
<path d="M199.353 313.913L152.113 315.799" stroke="#FEED7F" stroke-width="1.41284" stroke-miterlimit="10"/>
<path d="M201.06 297L153.82 298.88" stroke="#FEED7F" stroke-width="1.41284" stroke-miterlimit="10"/>
<path d="M213.014 281.961L165.774 283.84" stroke="#FEED7F" stroke-width="1.41284" stroke-miterlimit="10"/>
<path d="M219.271 268.8L182.85 270.058" stroke="#FEED7F" stroke-width="1.41284" stroke-miterlimit="10"/>
<path d="M98.9004 607.155C98.9004 607.155 173.744 619.998 191.384 619.998C191.384 619.998 220.695 595.874 217.281 553.891C213.868 511.908 200.207 496.869 193.379 488.413C186.552 479.957 182.85 463.038 189.112 454.893C195.375 446.748 202.337 446.359 202.337 446.359C202.337 446.359 198.718 446.077 172.609 449.249C148.739 452.145 133.91 450.188 127.076 453.636C120.249 457.083 108.577 471.805 108.865 490.292C109.148 508.779 124.516 516.295 125.94 533.214C127.365 550.133 132.203 559.217 124.516 575.508C116.829 591.805 114.262 602.14 98.9004 607.155Z" fill="#FEED7F"/>
<path d="M214.972 454.922C214.972 454.922 214.497 454.201 214.305 453.989C214.305 453.989 213.868 454.364 214.138 455.084C214.401 455.812 214.972 454.922 214.972 454.922Z" fill="#CE9436"/>
<path d="M131.247 597.761L157.427 601.102" stroke="#F7BC4B" stroke-width="1.41284" stroke-miterlimit="10"/>
<path d="M143.009 542.2L196.505 540.109" stroke="#F7BC4B" stroke-width="1.41284" stroke-miterlimit="10"/>
<path d="M140.352 527.578L193.847 525.494" stroke="#F7BC4B" stroke-width="1.41284" stroke-miterlimit="10"/>
<path d="M136.938 515.47L190.056 511.288" stroke="#F7BC4B" stroke-width="1.41284" stroke-miterlimit="10"/>
<path d="M129.347 501.263L182.464 497.088" stroke="#F7BC4B" stroke-width="1.41284" stroke-miterlimit="10"/>
<path d="M129.347 458.659L181.707 454.894" stroke="#F7BC4B" stroke-width="1.41284" stroke-miterlimit="10"/>
<path d="M142.245 558.074L195.369 557.657" stroke="#F7BC4B" stroke-width="1.41284" stroke-miterlimit="10"/>
<path d="M141.109 573.53L192.334 575.197" stroke="#F7BC4B" stroke-width="1.41284" stroke-miterlimit="10"/>
<path d="M138.074 585.229L188.156 589.82" stroke="#F7BC4B" stroke-width="1.41284" stroke-miterlimit="10"/>
<path d="M121.757 473.275L174.88 469.1" stroke="#F7BC4B" stroke-width="1.41284" stroke-miterlimit="10"/>
<path d="M120.242 487.481L173.359 483.299" stroke="#F7BC4B" stroke-width="1.41284" stroke-miterlimit="10"/>
<path d="M439.151 707.615C435.545 707.403 438.959 688.959 441.923 694.914C442.943 696.963 441.808 700.933 441.808 700.933C441.808 700.933 453.473 692.378 452.337 696.963C451.202 701.547 449.328 702.932 449.328 702.932C449.328 702.932 442.757 707.827 439.151 707.615Z" fill="#288453"/>
<path d="M403.109 708.343C403.109 708.343 387.17 686.995 390.019 677.034C392.861 667.074 398.553 692.689 398.553 692.689C398.553 692.689 396.846 663.28 399.689 662.334C402.531 661.387 403.673 680.361 403.673 680.361C403.673 680.361 410.501 669.928 410.501 676.095C410.501 682.262 408.794 702.656 408.794 702.656C408.794 702.656 418.47 686.529 417.328 694.116C416.192 701.702 406.516 709.297 406.516 709.297L403.109 708.343Z" fill="#288453"/>
<path d="M363.266 582.092C359.262 581.562 349.041 577.076 357.004 576.454C364.967 575.833 368.008 582.72 363.266 582.092Z" fill="#288453"/>
<path d="M358.903 590.865C357.947 590.47 350.369 592.744 357.575 593.995C364.781 595.252 364.402 593.161 358.903 590.865Z" fill="#288453"/>
<path d="M357.383 585.85C356.523 585.03 346.757 582.508 351.691 586.895C356.626 591.282 364.216 592.327 357.383 585.85Z" fill="#288453"/>
<path d="M372.373 618.437C365.731 616.762 358.525 619.899 365.924 622.824C373.322 625.741 379.014 620.104 372.373 618.437Z" fill="#288453"/>
<path d="M364.216 610.913C359.282 610.08 349.606 611.542 359.282 614.467C368.958 617.391 369.144 611.754 364.216 610.913Z" fill="#288453"/>
<path d="M377.114 668.14C367.251 671.27 365.923 676.286 380.149 673.361C394.375 670.436 386.983 665.011 377.114 668.14Z" fill="#288453"/>
<path d="M361.366 601.101C360.417 598.389 355.482 599.639 358.139 603.397C360.795 607.155 362.316 603.814 361.366 601.101Z" fill="#288453"/>
<path d="M363.267 597.548C361.182 598.593 363.267 601.518 365.353 600.677C367.438 599.844 365.353 596.502 363.267 597.548Z" fill="#288453"/>
<path d="M489.046 708.873C489.046 708.873 487.525 700.932 489.803 690.075L489.046 708.873Z" fill="#288453"/>
<path d="M478.799 709.29C478.799 709.29 483.355 693.417 473.107 680.051C473.114 680.051 481.841 693.417 478.799 709.29Z" fill="#288453"/>
<path d="M468.558 676.709C460.967 680.467 463.245 683.809 476.906 681.725C490.567 679.627 476.149 672.944 468.558 676.709Z" fill="#F7BC4B"/>
<path d="M492.082 684.643C501.944 688.818 498.909 695.501 486.769 690.492C474.628 685.484 482.219 680.468 492.082 684.643Z" fill="#F7BC4B"/>
<path d="M471.593 695.083C471.593 695.083 492.46 691.742 484.112 697.591C475.764 703.44 457.553 703.024 471.593 695.083Z" fill="#F7BC4B"/>
<path d="M455.654 707.199C455.654 707.199 452.618 694.667 456.032 699.258C459.446 703.85 459.067 705.941 459.067 705.941C459.067 705.941 464.002 694.66 463.238 700.092C462.481 705.524 462.102 707.192 462.102 707.192C462.102 707.192 471.586 703.85 469.315 706.775C467.037 709.706 455.654 707.199 455.654 707.199Z" fill="#288453"/>
<path d="M230.654 516.719C221.549 517.136 223.442 525.909 231.79 522.985C240.138 520.06 239.759 516.302 230.654 516.719Z" fill="#288453"/>
<path d="M243.705 495.11C236.268 492.468 229.781 495.972 238.623 500.012C247.465 504.053 251.135 497.752 243.705 495.11Z" fill="#288453"/>
<path d="M220.792 522.151C227.619 516.302 223.827 508.369 217.378 515.052C210.923 521.734 213.958 528 220.792 522.151Z" fill="#288453"/>
<path d="M224.963 528C220.792 530.092 221.549 535.941 229.518 531.759C237.488 527.577 229.14 525.909 224.963 528Z" fill="#288453"/>
<path d="M225.34 548.466C229.511 550.557 240.137 552.224 233.689 547.632C227.24 543.041 221.17 546.375 225.34 548.466Z" fill="#288453"/>
<path d="M240.131 555.622C233.663 553.545 220.99 561.259 232.315 561.852C243.634 562.446 246.599 557.698 240.131 555.622Z" fill="#33A86D"/>
<path d="M248.511 475.083C240.728 478.439 239.714 486.633 250.879 482.161C262.044 477.69 256.294 471.728 248.511 475.083Z" fill="#33A86D"/>
<path d="M241.126 486.803C235.665 488.653 234.953 493.174 242.788 490.709C250.623 488.244 246.58 484.952 241.126 486.803Z" fill="#33A86D"/>
<path d="M265.599 444.622C262.044 445.463 251.13 453.841 264.078 451.326C277.027 448.811 269.154 443.781 265.599 444.622Z" fill="#33A86D"/>
<path d="M256.461 455.239C249.858 455.521 243.512 468.654 256.461 464.458C269.41 460.269 263.064 454.956 256.461 455.239Z" fill="#33A86D"/>
<path d="M267.125 415.835C260.523 417.509 261.036 425.894 269.153 421.981C277.277 418.067 273.722 414.154 267.125 415.835Z" fill="#33A86D"/>
<path d="M259.51 413.596C259.51 413.596 268.14 408.008 266.619 404.652C265.099 401.297 248.338 418.067 259.51 413.596Z" fill="#33A86D"/>
<path d="M233.188 532.409C229.03 533.426 225.456 542.193 233.246 539.904C241.042 537.622 237.346 531.391 233.188 532.409Z" fill="#288453"/>
<path d="M247.323 515.879C247.323 515.879 264.841 506.66 252.656 506.66C240.47 506.66 238.943 515.879 247.323 515.879Z" fill="#33A86D"/>
</svg>
